<svg id="S2.F1.sf2.pic1" height="101.85" overflow="visible" version="1.1" width="232.29"><g transform="translate(0,101.85) matrix(1 0 0 -1 0 0) translate(24.54,0) translate(0,49.54)"><g stroke-width="0.8pt" fill="#DBF1F4" stroke="#B3B3B3"><path d="M -0.92 11.81 L 0.92 11.81 C -2.13 11.81 -4.61 9.33 -4.61 6.28 L -4.61 -6.28 C -4.61 -9.33 -2.13 -11.81 0.92 -11.81 L -0.92 -11.81 C 2.13 -11.81 4.61 -9.33 4.61 -6.28 L 4.61 6.28 C 4.61 9.33 2.13 11.81 -0.92 11.81 Z M -4.61 -11.81"></path></g><g stroke-width="0.8pt" fill="#DBF1F4" stroke="#B3B3B3"><path d="M 39.85 11.81 L 41.7 11.81 C 38.64 11.81 36.16 9.33 36.16 6.28 L 36.16 -6.28 C 36.16 -9.33 38.64 -11.81 41.7 -11.81 L 39.85 -11.81 C 42.91 -11.81 45.38 -9.33 45.38 -6.28 L 45.38 6.28 C 45.38 9.33 42.91 11.81 39.85 11.81 Z M 36.16 -11.81"></path></g><g stroke-width="0.8pt" fill="#DBF1F4" stroke="#B3B3B3"><path d="M 80.62 11.81 L 82.47 11.81 C 79.41 11.81 76.93 9.33 76.93 6.28 L 76.93 -6.28 C 76.93 -9.33 79.41 -11.81 82.47 -11.81 L 80.62 -11.81 C 83.68 -11.81 86.16 -9.33 86.16 -6.28 L 86.16 6.28 C 86.16 9.33 83.68 11.81 80.62 11.81 Z M 76.93 -11.81"></path></g><g stroke="#000000" fill="#000000" stroke-width="0.4pt"><g stroke="#B3B3FF"><path d="M 5.17 1.38 C 16.63 4.46 24.14 4.46 27.87 3.46" style="fill:none"></path><g fill="#B3B3FF" stroke-dasharray="none" stroke-dashoffset="0.0pt" stroke-linejoin="miter" transform="matrix(0.96593 -0.25882 0.25882 0.96593 28 3.42)"><path d="M 6.77 0 L 0.28 1.69 L 0 0 L 0.28 -1.69 Z"></path></g></g><g stroke="#B3B3FF"><path d="M 5.17 2.98 C 29.22 16.87 52.33 16.87 69.44 6.99" style="fill:none"></path><g fill="#B3B3FF" stroke-dasharray="none" stroke-dashoffset="0.0pt" stroke-linejoin="miter" transform="matrix(0.86603 -0.5 0.5 0.86603 69.56 6.92)"><path d="M 6.77 0 L 0.28 1.69 L 0 0 L 0.28 -1.69 Z"></path></g></g><g stroke="#B3B3FF"><path d="M 35.61 1.38 C 24.14 4.46 16.63 4.46 12.9 3.46" style="fill:none"></path><g fill="#B3B3FF" stroke-dasharray="none" stroke-dashoffset="0.0pt" stroke-linejoin="miter" transform="matrix(-0.96593 -0.25882 0.25882 -0.96593 12.77 3.42)"><path d="M 6.77 0 L 0.28 1.69 L 0 0 L 0.28 -1.69 Z"></path></g></g><g stroke="#B3B3FF"><path d="M 45.94 1.38 C 57.4 4.46 64.91 4.46 68.64 3.46" style="fill:none"></path><g fill="#B3B3FF" stroke-dasharray="none" stroke-dashoffset="0.0pt" stroke-linejoin="miter" transform="matrix(0.96593 -0.25882 0.25882 0.96593 68.77 3.42)"><path d="M 6.77 0 L 0.28 1.69 L 0 0 L 0.28 -1.69 Z"></path></g></g><g stroke="#B3B3FF"><path d="M 76.38 2.98 C 52.33 16.87 29.22 16.87 12.1 6.99" style="fill:none"></path><g fill="#B3B3FF" stroke-dasharray="none" stroke-dashoffset="0.0pt" stroke-linejoin="miter" transform="matrix(-0.86603 -0.5 0.5 -0.86603 11.98 6.92)"><path d="M 6.77 0 L 0.28 1.69 L 0 0 L 0.28 -1.69 Z"></path></g></g><g stroke="#B3B3FF"><path d="M 76.38 1.38 C 64.91 4.46 57.4 4.46 53.68 3.46" style="fill:none"></path><g fill="#B3B3FF" stroke-dasharray="none" stroke-dashoffset="0.0pt" stroke-linejoin="miter" transform="matrix(-0.96593 -0.25882 0.25882 -0.96593 53.54 3.42)"><path d="M 6.77 0 L 0.28 1.69 L 0 0 L 0.28 -1.69 Z"></path></g></g><g transform="matrix(1.0 0.0 0.0 1.0 -19.92 -41.47)" fill="#000000" stroke="#000000"><foreignObject width="39.85" height="13.84" transform="matrix(1 0 0 -1 0 16.6)" overflow="visible"><math xmlns="http://www.w3.org/1998/Math/MathML" display="inline" data-latex="(x_{1},y_{1})"><semantics id="S2.F1.sf2.pic1.1.1.1.1.1.1.1.1.1.1.1.1.1.1.1.1.1.1.1.1.1.m1.2a"><mrow id="S2.F1.sf2.pic1.1.1.1.1.1.1.1.1.1.1.1.1.1.1.1.1.1.1.1.1.1.m1.2.2.2" xref="S2.F1.sf2.pic1.1.1.1.1.1.1.1.1.1.1.1.1.1.1.1.1.1.1.1.1.1.m1.2.2.3.cmml"><mo stretchy="false" id="S2.F1.sf2.pic1.1.1.1.1.1.1.1.1.1.1.1.1.1.1.1.1.1.1.1.1.1.m1.2.2.2.3" xref="S2.F1.sf2.pic1.1.1.1.1.1.1.1.1.1.1.1.1.1.1.1.1.1.1.1.1.1.m1.2.2.3.cmml">(</mo><msub id="S2.F1.sf2.pic1.1.1.1.1.1.1.1.1.1.1.1.1.1.1.1.1.1.1.1.1.1.m1.1.1.1.1" xref="S2.F1.sf2.pic1.1.1.1.1.1.1.1.1.1.1.1.1.1.1.1.1.1.1.1.1.1.m1.1.1.1.1.cmml"><mi id="S2.F1.sf2.pic1.1.1.1.1.1.1.1.1.1.1.1.1.1.1.1.1.1.1.1.1.1.m1.1.1.1.1.2" xref="S2.F1.sf2.pic1.1.1.1.1.1.1.1.1.1.1.1.1.1.1.1.1.1.1.1.1.1.m1.1.1.1.1.2.cmml">x</mi> <mn id="S2.F1.sf2.pic1.1.1.1.1.1.1.1.1.1.1.1.1.1.1.1.1.1.1.1.1.1.m1.1.1.1.1.3" xref="S2.F1.sf2.pic1.1.1.1.1.1.1.1.1.1.1.1.1.1.1.1.1.1.1.1.1.1.m1.1.1.1.1.3.cmml">1</mn></msub><mo id="S2.F1.sf2.pic1.1.1.1.1.1.1.1.1.1.1.1.1.1.1.1.1.1.1.1.1.1.m1.2.2.2.4" xref="S2.F1.sf2.pic1.1.1.1.1.1.1.1.1.1.1.1.1.1.1.1.1.1.1.1.1.1.m1.2.2.3.cmml">,</mo><msub id="S2.F1.sf2.pic1.1.1.1.1.1.1.1.1.1.1.1.1.1.1.1.1.1.1.1.1.1.m1.2.2.2.2" xref="S2.F1.sf2.pic1.1.1.1.1.1.1.1.1.1.1.1.1.1.1.1.1.1.1.1.1.1.m1.2.2.2.2.cmml"><mi id="S2.F1.sf2.pic1.1.1.1.1.1.1.1.1.1.1.1.1.1.1.1.1.1.1.1.1.1.m1.2.2.2.2.2" xref="S2.F1.sf2.pic1.1.1.1.1.1.1.1.1.1.1.1.1.1.1.1.1.1.1.1.1.1.m1.2.2.2.2.2.cmml">y</mi> <mn id="S2.F1.sf2.pic1.1.1.1.1.1.1.1.1.1.1.1.1.1.1.1.1.1.1.1.1.1.m1.2.2.2.2.3" xref="S2.F1.sf2.pic1.1.1.1.1.1.1.1.1.1.1.1.1.1.1.1.1.1.1.1.1.1.m1.2.2.2.2.3.cmml">1</mn></msub><mo stretchy="false" id="S2.F1.sf2.pic1.1.1.1.1.1.1.1.1.1.1.1.1.1.1.1.1.1.1.1.1.1.m1.2.2.2.5" xref="S2.F1.sf2.pic1.1.1.1.1.1.1.1.1.1.1.1.1.1.1.1.1.1.1.1.1.1.m1.2.2.3.cmml">)</mo></mrow> <annotation-xml encoding="MathML-Content" id="S2.F1.sf2.pic1.1.1.1.1.1.1.1.1.1.1.1.1.1.1.1.1.1.1.1.1.1.m1.2b"><interval closure="open" id="S2.F1.sf2.pic1.1.1.1.1.1.1.1.1.1.1.1.1.1.1.1.1.1.1.1.1.1.m1.2.2.3.cmml" xref="S2.F1.sf2.pic1.1.1.1.1.1.1.1.1.1.1.1.1.1.1.1.1.1.1.1.1.1.m1.2.2.2"><apply id="S2.F1.sf2.pic1.1.1.1.1.1.1.1.1.1.1.1.1.1.1.1.1.1.1.1.1.1.m1.1.1.1.1.cmml" xref="S2.F1.sf2.pic1.1.1.1.1.1.1.1.1.1.1.1.1.1.1.1.1.1.1.1.1.1.m1.1.1.1.1"><csymbol cd="ambiguous" id="S2.F1.sf2.pic1.1.1.1.1.1.1.1.1.1.1.1.1.1.1.1.1.1.1.1.1.1.m1.1.1.1.1.1.cmml" xref="S2.F1.sf2.pic1.1.1.1.1.1.1.1.1.1.1.1.1.1.1.1.1.1.1.1.1.1.m1.1.1.1.1">subscript</csymbol> <ci id="S2.F1.sf2.pic1.1.1.1.1.1.1.1.1.1.1.1.1.1.1.1.1.1.1.1.1.1.m1.1.1.1.1.2.cmml" xref="S2.F1.sf2.pic1.1.1.1.1.1.1.1.1.1.1.1.1.1.1.1.1.1.1.1.1.1.m1.1.1.1.1.2">𝑥</ci> <cn type="integer" id="S2.F1.sf2.pic1.1.1.1.1.1.1.1.1.1.1.1.1.1.1.1.1.1.1.1.1.1.m1.1.1.1.1.3.cmml" xref="S2.F1.sf2.pic1.1.1.1.1.1.1.1.1.1.1.1.1.1.1.1.1.1.1.1.1.1.m1.1.1.1.1.3">1</cn></apply> <apply id="S2.F1.sf2.pic1.1.1.1.1.1.1.1.1.1.1.1.1.1.1.1.1.1.1.1.1.1.m1.2.2.2.2.cmml" xref="S2.F1.sf2.pic1.1.1.1.1.1.1.1.1.1.1.1.1.1.1.1.1.1.1.1.1.1.m1.2.2.2.2"><csymbol cd="ambiguous" id="S2.F1.sf2.pic1.1.1.1.1.1.1.1.1.1.1.1.1.1.1.1.1.1.1.1.1.1.m1.2.2.2.2.1.cmml" xref="S2.F1.sf2.pic1.1.1.1.1.1.1.1.1.1.1.1.1.1.1.1.1.1.1.1.1.1.m1.2.2.2.2">subscript</csymbol> <ci id="S2.F1.sf2.pic1.1.1.1.1.1.1.1.1.1.1.1.1.1.1.1.1.1.1.1.1.1.m1.2.2.2.2.2.cmml" xref="S2.F1.sf2.pic1.1.1.1.1.1.1.1.1.1.1.1.1.1.1.1.1.1.1.1.1.1.m1.2.2.2.2.2">𝑦</ci> <cn type="integer" id="S2.F1.sf2.pic1.1.1.1.1.1.1.1.1.1.1.1.1.1.1.1.1.1.1.1.1.1.m1.2.2.2.2.3.cmml" xref="S2.F1.sf2.pic1.1.1.1.1.1.1.1.1.1.1.1.1.1.1.1.1.1.1.1.1.1.m1.2.2.2.2.3">1</cn></apply></interval></annotation-xml> <annotation encoding="application/x-tex" id="S2.F1.sf2.pic1.1.1.1.1.1.1.1.1.1.1.1.1.1.1.1.1.1.1.1.1.1.m1.2c">(x_{1},y_{1})</annotation></semantics></math></foreignObject></g> <g stroke="#4D4D4D"><path d="M 0 -26.2 L 0 -20.38" style="fill:none"></path><g fill="#4D4D4D" stroke-dasharray="none" stroke-dashoffset="0.0pt" stroke-linejoin="miter" transform="matrix(0.0 1.0 -1.0 0.0 0 -20.24)"><path d="M 6.77 0 L 0.28 1.69 L 0 0 L 0.28 -1.69 Z"></path></g></g><g transform="matrix(1.0 0.0 0.0 1.0 20.85 -41.47)" fill="#000000" stroke="#000000"><foreignObject width="39.85" height="13.84" transform="matrix(1 0 0 -1 0 16.6)" overflow="visible"><math xmlns="http://www.w3.org/1998/Math/MathML" display="inline" data-latex="(x_{2},y_{2})"><semantics id="S2.F1.sf2.pic1.2.2.2.2.2.2.2.2.2.2.2.2.1.1.1.1.1.1.1.1.1.m1.2a"><mrow id="S2.F1.sf2.pic1.2.2.2.2.2.2.2.2.2.2.2.2.1.1.1.1.1.1.1.1.1.m1.2.2.2" xref="S2.F1.sf2.pic1.2.2.2.2.2.2.2.2.2.2.2.2.1.1.1.1.1.1.1.1.1.m1.2.2.3.cmml"><mo stretchy="false" id="S2.F1.sf2.pic1.2.2.2.2.2.2.2.2.2.2.2.2.1.1.1.1.1.1.1.1.1.m1.2.2.2.3" xref="S2.F1.sf2.pic1.2.2.2.2.2.2.2.2.2.2.2.2.1.1.1.1.1.1.1.1.1.m1.2.2.3.cmml">(</mo><msub id="S2.F1.sf2.pic1.2.2.2.2.2.2.2.2.2.2.2.2.1.1.1.1.1.1.1.1.1.m1.1.1.1.1" xref="S2.F1.sf2.pic1.2.2.2.2.2.2.2.2.2.2.2.2.1.1.1.1.1.1.1.1.1.m1.1.1.1.1.cmml"><mi id="S2.F1.sf2.pic1.2.2.2.2.2.2.2.2.2.2.2.2.1.1.1.1.1.1.1.1.1.m1.1.1.1.1.2" xref="S2.F1.sf2.pic1.2.2.2.2.2.2.2.2.2.2.2.2.1.1.1.1.1.1.1.1.1.m1.1.1.1.1.2.cmml">x</mi> <mn id="S2.F1.sf2.pic1.2.2.2.2.2.2.2.2.2.2.2.2.1.1.1.1.1.1.1.1.1.m1.1.1.1.1.3" xref="S2.F1.sf2.pic1.2.2.2.2.2.2.2.2.2.2.2.2.1.1.1.1.1.1.1.1.1.m1.1.1.1.1.3.cmml">2</mn></msub><mo id="S2.F1.sf2.pic1.2.2.2.2.2.2.2.2.2.2.2.2.1.1.1.1.1.1.1.1.1.m1.2.2.2.4" xref="S2.F1.sf2.pic1.2.2.2.2.2.2.2.2.2.2.2.2.1.1.1.1.1.1.1.1.1.m1.2.2.3.cmml">,</mo><msub id="S2.F1.sf2.pic1.2.2.2.2.2.2.2.2.2.2.2.2.1.1.1.1.1.1.1.1.1.m1.2.2.2.2" xref="S2.F1.sf2.pic1.2.2.2.2.2.2.2.2.2.2.2.2.1.1.1.1.1.1.1.1.1.m1.2.2.2.2.cmml"><mi id="S2.F1.sf2.pic1.2.2.2.2.2.2.2.2.2.2.2.2.1.1.1.1.1.1.1.1.1.m1.2.2.2.2.2" xref="S2.F1.sf2.pic1.2.2.2.2.2.2.2.2.2.2.2.2.1.1.1.1.1.1.1.1.1.m1.2.2.2.2.2.cmml">y</mi> <mn id="S2.F1.sf2.pic1.2.2.2.2.2.2.2.2.2.2.2.2.1.1.1.1.1.1.1.1.1.m1.2.2.2.2.3" xref="S2.F1.sf2.pic1.2.2.2.2.2.2.2.2.2.2.2.2.1.1.1.1.1.1.1.1.1.m1.2.2.2.2.3.cmml">2</mn></msub><mo stretchy="false" id="S2.F1.sf2.pic1.2.2.2.2.2.2.2.2.2.2.2.2.1.1.1.1.1.1.1.1.1.m1.2.2.2.5" xref="S2.F1.sf2.pic1.2.2.2.2.2.2.2.2.2.2.2.2.1.1.1.1.1.1.1.1.1.m1.2.2.3.cmml">)</mo></mrow> <annotation-xml encoding="MathML-Content" id="S2.F1.sf2.pic1.2.2.2.2.2.2.2.2.2.2.2.2.1.1.1.1.1.1.1.1.1.m1.2b"><interval closure="open" id="S2.F1.sf2.pic1.2.2.2.2.2.2.2.2.2.2.2.2.1.1.1.1.1.1.1.1.1.m1.2.2.3.cmml" xref="S2.F1.sf2.pic1.2.2.2.2.2.2.2.2.2.2.2.2.1.1.1.1.1.1.1.1.1.m1.2.2.2"><apply id="S2.F1.sf2.pic1.2.2.2.2.2.2.2.2.2.2.2.2.1.1.1.1.1.1.1.1.1.m1.1.1.1.1.cmml" xref="S2.F1.sf2.pic1.2.2.2.2.2.2.2.2.2.2.2.2.1.1.1.1.1.1.1.1.1.m1.1.1.1.1"><csymbol cd="ambiguous" id="S2.F1.sf2.pic1.2.2.2.2.2.2.2.2.2.2.2.2.1.1.1.1.1.1.1.1.1.m1.1.1.1.1.1.cmml" xref="S2.F1.sf2.pic1.2.2.2.2.2.2.2.2.2.2.2.2.1.1.1.1.1.1.1.1.1.m1.1.1.1.1">subscript</csymbol> <ci id="S2.F1.sf2.pic1.2.2.2.2.2.2.2.2.2.2.2.2.1.1.1.1.1.1.1.1.1.m1.1.1.1.1.2.cmml" xref="S2.F1.sf2.pic1.2.2.2.2.2.2.2.2.2.2.2.2.1.1.1.1.1.1.1.1.1.m1.1.1.1.1.2">𝑥</ci> <cn type="integer" id="S2.F1.sf2.pic1.2.2.2.2.2.2.2.2.2.2.2.2.1.1.1.1.1.1.1.1.1.m1.1.1.1.1.3.cmml" xref="S2.F1.sf2.pic1.2.2.2.2.2.2.2.2.2.2.2.2.1.1.1.1.1.1.1.1.1.m1.1.1.1.1.3">2</cn></apply> <apply id="S2.F1.sf2.pic1.2.2.2.2.2.2.2.2.2.2.2.2.1.1.1.1.1.1.1.1.1.m1.2.2.2.2.cmml" xref="S2.F1.sf2.pic1.2.2.2.2.2.2.2.2.2.2.2.2.1.1.1.1.1.1.1.1.1.m1.2.2.2.2"><csymbol cd="ambiguous" id="S2.F1.sf2.pic1.2.2.2.2.2.2.2.2.2.2.2.2.1.1.1.1.1.1.1.1.1.m1.2.2.2.2.1.cmml" xref="S2.F1.sf2.pic1.2.2.2.2.2.2.2.2.2.2.2.2.1.1.1.1.1.1.1.1.1.m1.2.2.2.2">subscript</csymbol> <ci id="S2.F1.sf2.pic1.2.2.2.2.2.2.2.2.2.2.2.2.1.1.1.1.1.1.1.1.1.m1.2.2.2.2.2.cmml" xref="S2.F1.sf2.pic1.2.2.2.2.2.2.2.2.2.2.2.2.1.1.1.1.1.1.1.1.1.m1.2.2.2.2.2">𝑦</ci> <cn type="integer" id="S2.F1.sf2.pic1.2.2.2.2.2.2.2.2.2.2.2.2.1.1.1.1.1.1.1.1.1.m1.2.2.2.2.3.cmml" xref="S2.F1.sf2.pic1.2.2.2.2.2.2.2.2.2.2.2.2.1.1.1.1.1.1.1.1.1.m1.2.2.2.2.3">2</cn></apply></interval></annotation-xml> <annotation encoding="application/x-tex" id="S2.F1.sf2.pic1.2.2.2.2.2.2.2.2.2.2.2.2.1.1.1.1.1.1.1.1.1.m1.2c">(x_{2},y_{2})</annotation></semantics></math></foreignObject></g> <g stroke="#4D4D4D"><path d="M 40.77 -26.2 L 40.77 -20.38" style="fill:none"></path><g fill="#4D4D4D" stroke-dasharray="none" stroke-dashoffset="0.0pt" stroke-linejoin="miter" transform="matrix(0.0 1.0 -1.0 0.0 40.77 -20.24)"><path d="M 6.77 0 L 0.28 1.69 L 0 0 L 0.28 -1.69 Z"></path></g></g><g transform="matrix(1.0 0.0 0.0 1.0 61.62 -41.47)" fill="#000000" stroke="#000000"><foreignObject width="39.85" height="13.84" transform="matrix(1 0 0 -1 0 16.6)" overflow="visible"><math xmlns="http://www.w3.org/1998/Math/MathML" display="inline" data-latex="(x_{3},y_{3})"><semantics id="S2.F1.sf2.pic1.3.3.3.3.3.3.3.3.3.3.3.3.1.1.1.1.1.1.1.1.1.m1.2a"><mrow id="S2.F1.sf2.pic1.3.3.3.3.3.3.3.3.3.3.3.3.1.1.1.1.1.1.1.1.1.m1.2.2.2" xref="S2.F1.sf2.pic1.3.3.3.3.3.3.3.3.3.3.3.3.1.1.1.1.1.1.1.1.1.m1.2.2.3.cmml"><mo stretchy="false" id="S2.F1.sf2.pic1.3.3.3.3.3.3.3.3.3.3.3.3.1.1.1.1.1.1.1.1.1.m1.2.2.2.3" xref="S2.F1.sf2.pic1.3.3.3.3.3.3.3.3.3.3.3.3.1.1.1.1.1.1.1.1.1.m1.2.2.3.cmml">(</mo><msub id="S2.F1.sf2.pic1.3.3.3.3.3.3.3.3.3.3.3.3.1.1.1.1.1.1.1.1.1.m1.1.1.1.1" xref="S2.F1.sf2.pic1.3.3.3.3.3.3.3.3.3.3.3.3.1.1.1.1.1.1.1.1.1.m1.1.1.1.1.cmml"><mi id="S2.F1.sf2.pic1.3.3.3.3.3.3.3.3.3.3.3.3.1.1.1.1.1.1.1.1.1.m1.1.1.1.1.2" xref="S2.F1.sf2.pic1.3.3.3.3.3.3.3.3.3.3.3.3.1.1.1.1.1.1.1.1.1.m1.1.1.1.1.2.cmml">x</mi> <mn id="S2.F1.sf2.pic1.3.3.3.3.3.3.3.3.3.3.3.3.1.1.1.1.1.1.1.1.1.m1.1.1.1.1.3" xref="S2.F1.sf2.pic1.3.3.3.3.3.3.3.3.3.3.3.3.1.1.1.1.1.1.1.1.1.m1.1.1.1.1.3.cmml">3</mn></msub><mo id="S2.F1.sf2.pic1.3.3.3.3.3.3.3.3.3.3.3.3.1.1.1.1.1.1.1.1.1.m1.2.2.2.4" xref="S2.F1.sf2.pic1.3.3.3.3.3.3.3.3.3.3.3.3.1.1.1.1.1.1.1.1.1.m1.2.2.3.cmml">,</mo><msub id="S2.F1.sf2.pic1.3.3.3.3.3.3.3.3.3.3.3.3.1.1.1.1.1.1.1.1.1.m1.2.2.2.2" xref="S2.F1.sf2.pic1.3.3.3.3.3.3.3.3.3.3.3.3.1.1.1.1.1.1.1.1.1.m1.2.2.2.2.cmml"><mi id="S2.F1.sf2.pic1.3.3.3.3.3.3.3.3.3.3.3.3.1.1.1.1.1.1.1.1.1.m1.2.2.2.2.2" xref="S2.F1.sf2.pic1.3.3.3.3.3.3.3.3.3.3.3.3.1.1.1.1.1.1.1.1.1.m1.2.2.2.2.2.cmml">y</mi> <mn id="S2.F1.sf2.pic1.3.3.3.3.3.3.3.3.3.3.3.3.1.1.1.1.1.1.1.1.1.m1.2.2.2.2.3" xref="S2.F1.sf2.pic1.3.3.3.3.3.3.3.3.3.3.3.3.1.1.1.1.1.1.1.1.1.m1.2.2.2.2.3.cmml">3</mn></msub><mo stretchy="false" id="S2.F1.sf2.pic1.3.3.3.3.3.3.3.3.3.3.3.3.1.1.1.1.1.1.1.1.1.m1.2.2.2.5" xref="S2.F1.sf2.pic1.3.3.3.3.3.3.3.3.3.3.3.3.1.1.1.1.1.1.1.1.1.m1.2.2.3.cmml">)</mo></mrow> <annotation-xml encoding="MathML-Content" id="S2.F1.sf2.pic1.3.3.3.3.3.3.3.3.3.3.3.3.1.1.1.1.1.1.1.1.1.m1.2b"><interval closure="open" id="S2.F1.sf2.pic1.3.3.3.3.3.3.3.3.3.3.3.3.1.1.1.1.1.1.1.1.1.m1.2.2.3.cmml" xref="S2.F1.sf2.pic1.3.3.3.3.3.3.3.3.3.3.3.3.1.1.1.1.1.1.1.1.1.m1.2.2.2"><apply id="S2.F1.sf2.pic1.3.3.3.3.3.3.3.3.3.3.3.3.1.1.1.1.1.1.1.1.1.m1.1.1.1.1.cmml" xref="S2.F1.sf2.pic1.3.3.3.3.3.3.3.3.3.3.3.3.1.1.1.1.1.1.1.1.1.m1.1.1.1.1"><csymbol cd="ambiguous" id="S2.F1.sf2.pic1.3.3.3.3.3.3.3.3.3.3.3.3.1.1.1.1.1.1.1.1.1.m1.1.1.1.1.1.cmml" xref="S2.F1.sf2.pic1.3.3.3.3.3.3.3.3.3.3.3.3.1.1.1.1.1.1.1.1.1.m1.1.1.1.1">subscript</csymbol> <ci id="S2.F1.sf2.pic1.3.3.3.3.3.3.3.3.3.3.3.3.1.1.1.1.1.1.1.1.1.m1.1.1.1.1.2.cmml" xref="S2.F1.sf2.pic1.3.3.3.3.3.3.3.3.3.3.3.3.1.1.1.1.1.1.1.1.1.m1.1.1.1.1.2">𝑥</ci> <cn type="integer" id="S2.F1.sf2.pic1.3.3.3.3.3.3.3.3.3.3.3.3.1.1.1.1.1.1.1.1.1.m1.1.1.1.1.3.cmml" xref="S2.F1.sf2.pic1.3.3.3.3.3.3.3.3.3.3.3.3.1.1.1.1.1.1.1.1.1.m1.1.1.1.1.3">3</cn></apply> <apply id="S2.F1.sf2.pic1.3.3.3.3.3.3.3.3.3.3.3.3.1.1.1.1.1.1.1.1.1.m1.2.2.2.2.cmml" xref="S2.F1.sf2.pic1.3.3.3.3.3.3.3.3.3.3.3.3.1.1.1.1.1.1.1.1.1.m1.2.2.2.2"><csymbol cd="ambiguous" id="S2.F1.sf2.pic1.3.3.3.3.3.3.3.3.3.3.3.3.1.1.1.1.1.1.1.1.1.m1.2.2.2.2.1.cmml" xref="S2.F1.sf2.pic1.3.3.3.3.3.3.3.3.3.3.3.3.1.1.1.1.1.1.1.1.1.m1.2.2.2.2">subscript</csymbol> <ci id="S2.F1.sf2.pic1.3.3.3.3.3.3.3.3.3.3.3.3.1.1.1.1.1.1.1.1.1.m1.2.2.2.2.2.cmml" xref="S2.F1.sf2.pic1.3.3.3.3.3.3.3.3.3.3.3.3.1.1.1.1.1.1.1.1.1.m1.2.2.2.2.2">𝑦</ci> <cn type="integer" id="S2.F1.sf2.pic1.3.3.3.3.3.3.3.3.3.3.3.3.1.1.1.1.1.1.1.1.1.m1.2.2.2.2.3.cmml" xref="S2.F1.sf2.pic1.3.3.3.3.3.3.3.3.3.3.3.3.1.1.1.1.1.1.1.1.1.m1.2.2.2.2.3">3</cn></apply></interval></annotation-xml> <annotation encoding="application/x-tex" id="S2.F1.sf2.pic1.3.3.3.3.3.3.3.3.3.3.3.3.1.1.1.1.1.1.1.1.1.m1.2c">(x_{3},y_{3})</annotation></semantics></math></foreignObject></g> <g stroke="#4D4D4D"><path d="M 81.54 -26.2 L 81.54 -20.38" style="fill:none"></path><g fill="#4D4D4D" stroke-dasharray="none" stroke-dashoffset="0.0pt" stroke-linejoin="miter" transform="matrix(0.0 1.0 -1.0 0.0 81.54 -20.24)"><path d="M 6.77 0 L 0.28 1.69 L 0 0 L 0.28 -1.69 Z"></path></g></g><g stroke-width="0.8pt" fill="#DBF1F4" stroke="#B3B3B3"><path d="M 118.63 11.81 L 120.47 11.81 C 117.42 11.81 114.94 9.33 114.94 6.28 L 114.94 -6.28 C 114.94 -9.33 117.42 -11.81 120.47 -11.81 L 118.63 -11.81 C 121.68 -11.81 124.16 -9.33 124.16 -6.28 L 124.16 6.28 C 124.16 9.33 121.68 11.81 118.63 11.81 Z M 114.94 -11.81"></path></g><g stroke-width="0.8pt" fill="#DBF1F4" stroke="#B3B3B3"><path d="M 173.24 11.81 L 175.08 11.81 C 172.02 11.81 169.55 9.33 169.55 6.28 L 169.55 -6.28 C 169.55 -9.33 172.02 -11.81 175.08 -11.81 L 173.24 -11.81 C 176.29 -11.81 178.77 -9.33 178.77 -6.28 L 178.77 6.28 C 178.77 9.33 176.29 11.81 173.24 11.81 Z M 169.55 -11.81"></path></g><g stroke="#FFB3B3"><path d="M 114.38 4.33 C 81.76 31.71 37.79 31.71 11.3 9.48" style="fill:none"></path><g fill="#FFB3B3" stroke-dasharray="none" stroke-dashoffset="0.0pt" stroke-linejoin="miter" transform="matrix(-0.76604 -0.64279 0.64279 -0.76604 11.2 9.39)"><path d="M 6.77 0 L 0.28 1.69 L 0 0 L 0.28 -1.69 Z"></path></g></g><g stroke="#FFB3B3"><path d="M 114.38 4.33 C 93.94 21.49 66.38 21.49 52.08 9.48" style="fill:none"></path><g fill="#FFB3B3" stroke-dasharray="none" stroke-dashoffset="0.0pt" stroke-linejoin="miter" transform="matrix(-0.76604 -0.64279 0.64279 -0.76604 51.97 9.39)"><path d="M 6.77 0 L 0.28 1.69 L 0 0 L 0.28 -1.69 Z"></path></g></g><g stroke="#FFB3B3"><path d="M 114.38 4.33 C 106.12 11.27 94.98 11.27 92.85 9.48" style="fill:none"></path><g fill="#FFB3B3" stroke-dasharray="none" stroke-dashoffset="0.0pt" stroke-linejoin="miter" transform="matrix(-0.76604 -0.64279 0.64279 -0.76604 92.74 9.39)"><path d="M 6.77 0 L 0.28 1.69 L 0 0 L 0.28 -1.69 Z"></path></g></g><g stroke="#FFB3B3"><path d="M 168.99 4.33 C 120.05 45.4 54.11 45.4 11.3 9.48" style="fill:none"></path><g fill="#FFB3B3" stroke-dasharray="none" stroke-dashoffset="0.0pt" stroke-linejoin="miter" transform="matrix(-0.76604 -0.64279 0.64279 -0.76604 11.2 9.39)"><path d="M 6.77 0 L 0.28 1.69 L 0 0 L 0.28 -1.69 Z"></path></g></g><g stroke="#FFB3B3"><path d="M 168.99 4.33 C 132.23 35.18 82.7 35.18 52.08 9.48" style="fill:none"></path><g fill="#FFB3B3" stroke-dasharray="none" stroke-dashoffset="0.0pt" stroke-linejoin="miter" transform="matrix(-0.76604 -0.64279 0.64279 -0.76604 51.97 9.39)"><path d="M 6.77 0 L 0.28 1.69 L 0 0 L 0.28 -1.69 Z"></path></g></g><g stroke="#FFB3B3"><path d="M 168.99 4.33 C 144.41 24.96 111.29 24.96 92.85 9.48" style="fill:none"></path><g fill="#FFB3B3" stroke-dasharray="none" stroke-dashoffset="0.0pt" stroke-linejoin="miter" transform="matrix(-0.76604 -0.64279 0.64279 -0.76604 92.74 9.39)"><path d="M 6.77 0 L 0.28 1.69 L 0 0 L 0.28 -1.69 Z"></path></g></g><g transform="matrix(1.0 0.0 0.0 1.0 145.17 37.32)" fill="#000000" stroke="#000000"><foreignObject width="57.97" height="13.84" transform="matrix(1 0 0 -1 0 16.6)" overflow="visible"><math xmlns="http://www.w3.org/1998/Math/MathML" display="inline" data-latex="q(\cdot|x_{5},D)"><semantics id="S2.F1.sf2.pic1.4.4.4.4.4.4.4.4.4.4.4.4.1.1.1.1.1.1.1.1.1.m1.1a"><mrow id="S2.F1.sf2.pic1.4.4.4.4.4.4.4.4.4.4.4.4.1.1.1.1.1.1.1.1.1.m1.1b"><mi id="S2.F1.sf2.pic1.4.4.4.4.4.4.4.4.4.4.4.4.1.1.1.1.1.1.1.1.1.m1.1.1">q</mi> <mrow id="S2.F1.sf2.pic1.4.4.4.4.4.4.4.4.4.4.4.4.1.1.1.1.1.1.1.1.1.m1.1.2"><mo stretchy="false" id="S2.F1.sf2.pic1.4.4.4.4.4.4.4.4.4.4.4.4.1.1.1.1.1.1.1.1.1.m1.1.2.1">(</mo><mo lspace="0em" rspace="0em" id="S2.F1.sf2.pic1.4.4.4.4.4.4.4.4.4.4.4.4.1.1.1.1.1.1.1.1.1.m1.1.2.2">⋅</mo> <mo fence="false" rspace="0.167em" stretchy="false" id="S2.F1.sf2.pic1.4.4.4.4.4.4.4.4.4.4.4.4.1.1.1.1.1.1.1.1.1.m1.1.2.3">|</mo> <msub id="S2.F1.sf2.pic1.4.4.4.4.4.4.4.4.4.4.4.4.1.1.1.1.1.1.1.1.1.m1.1.2.4"><mi id="S2.F1.sf2.pic1.4.4.4.4.4.4.4.4.4.4.4.4.1.1.1.1.1.1.1.1.1.m1.1.2.4.2">x</mi> <mn id="S2.F1.sf2.pic1.4.4.4.4.4.4.4.4.4.4.4.4.1.1.1.1.1.1.1.1.1.m1.1.2.4.3">5</mn></msub><mo id="S2.F1.sf2.pic1.4.4.4.4.4.4.4.4.4.4.4.4.1.1.1.1.1.1.1.1.1.m1.1.2.5">,</mo><mi id="S2.F1.sf2.pic1.4.4.4.4.4.4.4.4.4.4.4.4.1.1.1.1.1.1.1.1.1.m1.1.2.6">D</mi><mo stretchy="false" id="S2.F1.sf2.pic1.4.4.4.4.4.4.4.4.4.4.4.4.1.1.1.1.1.1.1.1.1.m1.1.2.7">)</mo></mrow></mrow> <annotation encoding="application/x-tex" id="S2.F1.sf2.pic1.4.4.4.4.4.4.4.4.4.4.4.4.1.1.1.1.1.1.1.1.1.m1.1c">q(\cdot|x_{5},D)</annotation></semantics></math></foreignObject></g> <g transform="matrix(1.0 0.0 0.0 1.0 90.56 37.32)" fill="#000000" stroke="#000000"><foreignObject width="57.97" height="13.84" transform="matrix(1 0 0 -1 0 16.6)" overflow="visible"><math xmlns="http://www.w3.org/1998/Math/MathML" display="inline" data-latex="q(\cdot|x_{4},D)"><semantics id="S2.F1.sf2.pic1.5.5.5.5.5.5.5.5.5.5.5.5.1.1.1.1.1.1.1.1.1.m1.1a"><mrow id="S2.F1.sf2.pic1.5.5.5.5.5.5.5.5.5.5.5.5.1.1.1.1.1.1.1.1.1.m1.1b"><mi id="S2.F1.sf2.pic1.5.5.5.5.5.5.5.5.5.5.5.5.1.1.1.1.1.1.1.1.1.m1.1.1">q</mi> <mrow id="S2.F1.sf2.pic1.5.5.5.5.5.5.5.5.5.5.5.5.1.1.1.1.1.1.1.1.1.m1.1.2"><mo stretchy="false" id="S2.F1.sf2.pic1.5.5.5.5.5.5.5.5.5.5.5.5.1.1.1.1.1.1.1.1.1.m1.1.2.1">(</mo><mo lspace="0em" rspace="0em" id="S2.F1.sf2.pic1.5.5.5.5.5.5.5.5.5.5.5.5.1.1.1.1.1.1.1.1.1.m1.1.2.2">⋅</mo> <mo fence="false" rspace="0.167em" stretchy="false" id="S2.F1.sf2.pic1.5.5.5.5.5.5.5.5.5.5.5.5.1.1.1.1.1.1.1.1.1.m1.1.2.3">|</mo> <msub id="S2.F1.sf2.pic1.5.5.5.5.5.5.5.5.5.5.5.5.1.1.1.1.1.1.1.1.1.m1.1.2.4"><mi id="S2.F1.sf2.pic1.5.5.5.5.5.5.5.5.5.5.5.5.1.1.1.1.1.1.1.1.1.m1.1.2.4.2">x</mi> <mn id="S2.F1.sf2.pic1.5.5.5.5.5.5.5.5.5.5.5.5.1.1.1.1.1.1.1.1.1.m1.1.2.4.3">4</mn></msub><mo id="S2.F1.sf2.pic1.5.5.5.5.5.5.5.5.5.5.5.5.1.1.1.1.1.1.1.1.1.m1.1.2.5">,</mo><mi id="S2.F1.sf2.pic1.5.5.5.5.5.5.5.5.5.5.5.5.1.1.1.1.1.1.1.1.1.m1.1.2.6">D</mi><mo stretchy="false" id="S2.F1.sf2.pic1.5.5.5.5.5.5.5.5.5.5.5.5.1.1.1.1.1.1.1.1.1.m1.1.2.7">)</mo></mrow></mrow> <annotation encoding="application/x-tex" id="S2.F1.sf2.pic1.5.5.5.5.5.5.5.5.5.5.5.5.1.1.1.1.1.1.1.1.1.m1.1c">q(\cdot|x_{4},D)</annotation></semantics></math></foreignObject></g> <g stroke="#4D4D4D"><path d="M 119.55 12.36 L 119.55 20.96" style="fill:none"></path><g fill="#4D4D4D" stroke-dasharray="none" stroke-dashoffset="0.0pt" stroke-linejoin="miter" transform="matrix(0.0 1.0 -1.0 0.0 119.55 21.09)"><path d="M 6.77 0 L 0.28 1.69 L 0 0 L 0.28 -1.69 Z"></path></g></g><g transform="matrix(1.0 0.0 0.0 1.0 113.66 -39.74)" fill="#000000" stroke="#000000"><foreignObject width="11.78" height="8.45" transform="matrix(1 0 0 -1 0 16.6)" overflow="visible"><math xmlns="http://www.w3.org/1998/Math/MathML" display="inline" data-latex="x_{4}"><semantics id="S2.F1.sf2.pic1.6.6.6.6.6.6.6.6.6.6.6.6.1.1.1.1.1.1.1.1.1.m1.1a"><msub id="S2.F1.sf2.pic1.6.6.6.6.6.6.6.6.6.6.6.6.1.1.1.1.1.1.1.1.1.m1.1.1" xref="S2.F1.sf2.pic1.6.6.6.6.6.6.6.6.6.6.6.6.1.1.1.1.1.1.1.1.1.m1.1.1.cmml"><mi id="S2.F1.sf2.pic1.6.6.6.6.6.6.6.6.6.6.6.6.1.1.1.1.1.1.1.1.1.m1.1.1.2" xref="S2.F1.sf2.pic1.6.6.6.6.6.6.6.6.6.6.6.6.1.1.1.1.1.1.1.1.1.m1.1.1.2.cmml">x</mi> <mn id="S2.F1.sf2.pic1.6.6.6.6.6.6.6.6.6.6.6.6.1.1.1.1.1.1.1.1.1.m1.1.1.3" xref="S2.F1.sf2.pic1.6.6.6.6.6.6.6.6.6.6.6.6.1.1.1.1.1.1.1.1.1.m1.1.1.3.cmml">4</mn></msub> <annotation-xml encoding="MathML-Content" id="S2.F1.sf2.pic1.6.6.6.6.6.6.6.6.6.6.6.6.1.1.1.1.1.1.1.1.1.m1.1b"><apply id="S2.F1.sf2.pic1.6.6.6.6.6.6.6.6.6.6.6.6.1.1.1.1.1.1.1.1.1.m1.1.1.cmml" xref="S2.F1.sf2.pic1.6.6.6.6.6.6.6.6.6.6.6.6.1.1.1.1.1.1.1.1.1.m1.1.1"><csymbol cd="ambiguous" id="S2.F1.sf2.pic1.6.6.6.6.6.6.6.6.6.6.6.6.1.1.1.1.1.1.1.1.1.m1.1.1.1.cmml" xref="S2.F1.sf2.pic1.6.6.6.6.6.6.6.6.6.6.6.6.1.1.1.1.1.1.1.1.1.m1.1.1">subscript</csymbol> <ci id="S2.F1.sf2.pic1.6.6.6.6.6.6.6.6.6.6.6.6.1.1.1.1.1.1.1.1.1.m1.1.1.2.cmml" xref="S2.F1.sf2.pic1.6.6.6.6.6.6.6.6.6.6.6.6.1.1.1.1.1.1.1.1.1.m1.1.1.2">𝑥</ci> <cn type="integer" id="S2.F1.sf2.pic1.6.6.6.6.6.6.6.6.6.6.6.6.1.1.1.1.1.1.1.1.1.m1.1.1.3.cmml" xref="S2.F1.sf2.pic1.6.6.6.6.6.6.6.6.6.6.6.6.1.1.1.1.1.1.1.1.1.m1.1.1.3">4</cn></apply></annotation-xml> <annotation encoding="application/x-tex" id="S2.F1.sf2.pic1.6.6.6.6.6.6.6.6.6.6.6.6.1.1.1.1.1.1.1.1.1.m1.1c">x_{4}</annotation></semantics></math></foreignObject></g> <g stroke="#4D4D4D"><path d="M 119.55 -28.89 L 119.55 -20.38" style="fill:none"></path><g fill="#4D4D4D" stroke-dasharray="none" stroke-dashoffset="0.0pt" stroke-linejoin="miter" transform="matrix(0.0 1.0 -1.0 0.0 119.55 -20.24)"><path d="M 6.77 0 L 0.28 1.69 L 0 0 L 0.28 -1.69 Z"></path></g></g><g stroke="#4D4D4D"><path d="M 174.16 12.36 L 174.16 20.96" style="fill:none"></path><g fill="#4D4D4D" stroke-dasharray="none" stroke-dashoffset="0.0pt" stroke-linejoin="miter" transform="matrix(0.0 1.0 -1.0 0.0 174.16 21.09)"><path d="M 6.77 0 L 0.28 1.69 L 0 0 L 0.28 -1.69 Z"></path></g></g><g transform="matrix(1.0 0.0 0.0 1.0 168.27 -39.74)" fill="#000000" stroke="#000000"><foreignObject width="11.78" height="8.45" transform="matrix(1 0 0 -1 0 16.6)" overflow="visible"><math xmlns="http://www.w3.org/1998/Math/MathML" display="inline" data-latex="x_{5}"><semantics id="S2.F1.sf2.pic1.7.7.7.7.7.7.7.7.7.7.7.7.1.1.1.1.1.1.1.1.1.m1.1a"><msub id="S2.F1.sf2.pic1.7.7.7.7.7.7.7.7.7.7.7.7.1.1.1.1.1.1.1.1.1.m1.1.1" xref="S2.F1.sf2.pic1.7.7.7.7.7.7.7.7.7.7.7.7.1.1.1.1.1.1.1.1.1.m1.1.1.cmml"><mi id="S2.F1.sf2.pic1.7.7.7.7.7.7.7.7.7.7.7.7.1.1.1.1.1.1.1.1.1.m1.1.1.2" xref="S2.F1.sf2.pic1.7.7.7.7.7.7.7.7.7.7.7.7.1.1.1.1.1.1.1.1.1.m1.1.1.2.cmml">x</mi> <mn id="S2.F1.sf2.pic1.7.7.7.7.7.7.7.7.7.7.7.7.1.1.1.1.1.1.1.1.1.m1.1.1.3" xref="S2.F1.sf2.pic1.7.7.7.7.7.7.7.7.7.7.7.7.1.1.1.1.1.1.1.1.1.m1.1.1.3.cmml">5</mn></msub> <annotation-xml encoding="MathML-Content" id="S2.F1.sf2.pic1.7.7.7.7.7.7.7.7.7.7.7.7.1.1.1.1.1.1.1.1.1.m1.1b"><apply id="S2.F1.sf2.pic1.7.7.7.7.7.7.7.7.7.7.7.7.1.1.1.1.1.1.1.1.1.m1.1.1.cmml" xref="S2.F1.sf2.pic1.7.7.7.7.7.7.7.7.7.7.7.7.1.1.1.1.1.1.1.1.1.m1.1.1"><csymbol cd="ambiguous" id="S2.F1.sf2.pic1.7.7.7.7.7.7.7.7.7.7.7.7.1.1.1.1.1.1.1.1.1.m1.1.1.1.cmml" xref="S2.F1.sf2.pic1.7.7.7.7.7.7.7.7.7.7.7.7.1.1.1.1.1.1.1.1.1.m1.1.1">subscript</csymbol> <ci id="S2.F1.sf2.pic1.7.7.7.7.7.7.7.7.7.7.7.7.1.1.1.1.1.1.1.1.1.m1.1.1.2.cmml" xref="S2.F1.sf2.pic1.7.7.7.7.7.7.7.7.7.7.7.7.1.1.1.1.1.1.1.1.1.m1.1.1.2">𝑥</ci> <cn type="integer" id="S2.F1.sf2.pic1.7.7.7.7.7.7.7.7.7.7.7.7.1.1.1.1.1.1.1.1.1.m1.1.1.3.cmml" xref="S2.F1.sf2.pic1.7.7.7.7.7.7.7.7.7.7.7.7.1.1.1.1.1.1.1.1.1.m1.1.1.3">5</cn></apply></annotation-xml> <annotation encoding="application/x-tex" id="S2.F1.sf2.pic1.7.7.7.7.7.7.7.7.7.7.7.7.1.1.1.1.1.1.1.1.1.m1.1c">x_{5}</annotation></semantics></math></foreignObject></g><g stroke="#4D4D4D"><path d="M 174.16 -28.89 L 174.16 -20.38" style="fill:none"></path><g fill="#4D4D4D" stroke-dasharray="none" stroke-dashoffset="0.0pt" stroke-linejoin="miter" transform="matrix(0.0 1.0 -1.0 0.0 174.16 -20.24)"><path d="M 6.77 0 L 0.28 1.69 L 0 0 L 0.28 -1.69 Z"></path></g></g></g></g></svg>
