<svg id="S4.F2.sf1.pic1" height="99" overflow="visible" version="1.1" width="128.1"><g transform="translate(0,99) matrix(1 0 0 -1 0 0) translate(44.16,0) translate(0,7.75)" fill="#000000" stroke="#000000" stroke-width="0.6pt"><g fill="#CCCCCC"><path d="M 9.84 0 C 9.84 4.05 5.44 7.33 0 7.33 C -5.44 7.33 -9.84 4.05 -9.84 0 C -9.84 -4.05 -5.44 -7.33 0 -7.33 C 5.44 -7.33 9.84 -4.05 9.84 0 Z M 0 0"></path></g><g transform="matrix(0.5 0.0 0.0 0.5 -3.52 -1.55)" fill="#000000" stroke="#000000"><foreignObject width="14.07" height="11.51" transform="matrix(1 0 0 -1 0 16.6)" overflow="visible"><math xmlns="http://www.w3.org/1998/Math/MathML" display="inline" data-latex="z_{X}^{(1)}"><semantics id="S4.F2.sf1.pic1.1.1.1.1.1.1.1.1.1.1.1.1.1.1.1.1.1.1.1.1.1.1.1.m1.1a"><msubsup id="S4.F2.sf1.pic1.1.1.1.1.1.1.1.1.1.1.1.1.1.1.1.1.1.1.1.1.1.1.1.m1.1.2" xref="S4.F2.sf1.pic1.1.1.1.1.1.1.1.1.1.1.1.1.1.1.1.1.1.1.1.1.1.1.1.m1.1.2.cmml"><mi id="S4.F2.sf1.pic1.1.1.1.1.1.1.1.1.1.1.1.1.1.1.1.1.1.1.1.1.1.1.1.m1.1.2.2.2" xref="S4.F2.sf1.pic1.1.1.1.1.1.1.1.1.1.1.1.1.1.1.1.1.1.1.1.1.1.1.1.m1.1.2.2.2.cmml">z</mi> <mi id="S4.F2.sf1.pic1.1.1.1.1.1.1.1.1.1.1.1.1.1.1.1.1.1.1.1.1.1.1.1.m1.1.2.2.3" xref="S4.F2.sf1.pic1.1.1.1.1.1.1.1.1.1.1.1.1.1.1.1.1.1.1.1.1.1.1.1.m1.1.2.2.3.cmml">X</mi> <mrow id="S4.F2.sf1.pic1.1.1.1.1.1.1.1.1.1.1.1.1.1.1.1.1.1.1.1.1.1.1.1.m1.1.1.1.3" xref="S4.F2.sf1.pic1.1.1.1.1.1.1.1.1.1.1.1.1.1.1.1.1.1.1.1.1.1.1.1.m1.1.2.cmml"><mo stretchy="false" id="S4.F2.sf1.pic1.1.1.1.1.1.1.1.1.1.1.1.1.1.1.1.1.1.1.1.1.1.1.1.m1.1.1.1.3.1" xref="S4.F2.sf1.pic1.1.1.1.1.1.1.1.1.1.1.1.1.1.1.1.1.1.1.1.1.1.1.1.m1.1.2.cmml">(</mo><mn id="S4.F2.sf1.pic1.1.1.1.1.1.1.1.1.1.1.1.1.1.1.1.1.1.1.1.1.1.1.1.m1.1.1.1.1" xref="S4.F2.sf1.pic1.1.1.1.1.1.1.1.1.1.1.1.1.1.1.1.1.1.1.1.1.1.1.1.m1.1.1.1.1.cmml">1</mn><mo stretchy="false" id="S4.F2.sf1.pic1.1.1.1.1.1.1.1.1.1.1.1.1.1.1.1.1.1.1.1.1.1.1.1.m1.1.1.1.3.2" xref="S4.F2.sf1.pic1.1.1.1.1.1.1.1.1.1.1.1.1.1.1.1.1.1.1.1.1.1.1.1.m1.1.2.cmml">)</mo></mrow></msubsup> <annotation-xml encoding="MathML-Content" id="S4.F2.sf1.pic1.1.1.1.1.1.1.1.1.1.1.1.1.1.1.1.1.1.1.1.1.1.1.1.m1.1b"><apply id="S4.F2.sf1.pic1.1.1.1.1.1.1.1.1.1.1.1.1.1.1.1.1.1.1.1.1.1.1.1.m1.1.2.cmml" xref="S4.F2.sf1.pic1.1.1.1.1.1.1.1.1.1.1.1.1.1.1.1.1.1.1.1.1.1.1.1.m1.1.2"><csymbol cd="ambiguous" id="S4.F2.sf1.pic1.1.1.1.1.1.1.1.1.1.1.1.1.1.1.1.1.1.1.1.1.1.1.1.m1.1.2.1.cmml" xref="S4.F2.sf1.pic1.1.1.1.1.1.1.1.1.1.1.1.1.1.1.1.1.1.1.1.1.1.1.1.m1.1.2">superscript</csymbol> <apply id="S4.F2.sf1.pic1.1.1.1.1.1.1.1.1.1.1.1.1.1.1.1.1.1.1.1.1.1.1.1.m1.1.2.2.cmml" xref="S4.F2.sf1.pic1.1.1.1.1.1.1.1.1.1.1.1.1.1.1.1.1.1.1.1.1.1.1.1.m1.1.2"><csymbol cd="ambiguous" id="S4.F2.sf1.pic1.1.1.1.1.1.1.1.1.1.1.1.1.1.1.1.1.1.1.1.1.1.1.1.m1.1.2.2.1.cmml" xref="S4.F2.sf1.pic1.1.1.1.1.1.1.1.1.1.1.1.1.1.1.1.1.1.1.1.1.1.1.1.m1.1.2">subscript</csymbol> <ci id="S4.F2.sf1.pic1.1.1.1.1.1.1.1.1.1.1.1.1.1.1.1.1.1.1.1.1.1.1.1.m1.1.2.2.2.cmml" xref="S4.F2.sf1.pic1.1.1.1.1.1.1.1.1.1.1.1.1.1.1.1.1.1.1.1.1.1.1.1.m1.1.2.2.2">𝑧</ci> <ci id="S4.F2.sf1.pic1.1.1.1.1.1.1.1.1.1.1.1.1.1.1.1.1.1.1.1.1.1.1.1.m1.1.2.2.3.cmml" xref="S4.F2.sf1.pic1.1.1.1.1.1.1.1.1.1.1.1.1.1.1.1.1.1.1.1.1.1.1.1.m1.1.2.2.3">𝑋</ci></apply> <cn type="integer" id="S4.F2.sf1.pic1.1.1.1.1.1.1.1.1.1.1.1.1.1.1.1.1.1.1.1.1.1.1.1.m1.1.1.1.1.cmml" xref="S4.F2.sf1.pic1.1.1.1.1.1.1.1.1.1.1.1.1.1.1.1.1.1.1.1.1.1.1.1.m1.1.1.1.1">1</cn></apply></annotation-xml> <annotation encoding="application/x-tex" id="S4.F2.sf1.pic1.1.1.1.1.1.1.1.1.1.1.1.1.1.1.1.1.1.1.1.1.1.1.1.m1.1c">z_{X}^{(1)}</annotation></semantics></math></foreignObject></g> <g fill="#CCCCCC"><path d="M 49.63 0 C 49.63 4.05 45.22 7.33 39.79 7.33 C 34.35 7.33 29.94 4.05 29.94 0 C 29.94 -4.05 34.35 -7.33 39.79 -7.33 C 45.22 -7.33 49.63 -4.05 49.63 0 Z M 39.79 0"></path></g><g transform="matrix(0.5 0.0 0.0 0.5 36.27 -1.55)" fill="#000000" stroke="#000000"><foreignObject width="14.07" height="11.51" transform="matrix(1 0 0 -1 0 16.6)" overflow="visible"><math xmlns="http://www.w3.org/1998/Math/MathML" display="inline" data-latex="z_{X}^{(2)}"><semantics id="S4.F2.sf1.pic1.2.2.2.2.2.2.2.2.2.2.2.2.2.1.1.1.1.1.1.1.1.1.1.m1.1a"><msubsup id="S4.F2.sf1.pic1.2.2.2.2.2.2.2.2.2.2.2.2.2.1.1.1.1.1.1.1.1.1.1.m1.1.2" xref="S4.F2.sf1.pic1.2.2.2.2.2.2.2.2.2.2.2.2.2.1.1.1.1.1.1.1.1.1.1.m1.1.2.cmml"><mi id="S4.F2.sf1.pic1.2.2.2.2.2.2.2.2.2.2.2.2.2.1.1.1.1.1.1.1.1.1.1.m1.1.2.2.2" xref="S4.F2.sf1.pic1.2.2.2.2.2.2.2.2.2.2.2.2.2.1.1.1.1.1.1.1.1.1.1.m1.1.2.2.2.cmml">z</mi> <mi id="S4.F2.sf1.pic1.2.2.2.2.2.2.2.2.2.2.2.2.2.1.1.1.1.1.1.1.1.1.1.m1.1.2.2.3" xref="S4.F2.sf1.pic1.2.2.2.2.2.2.2.2.2.2.2.2.2.1.1.1.1.1.1.1.1.1.1.m1.1.2.2.3.cmml">X</mi> <mrow id="S4.F2.sf1.pic1.2.2.2.2.2.2.2.2.2.2.2.2.2.1.1.1.1.1.1.1.1.1.1.m1.1.1.1.3" xref="S4.F2.sf1.pic1.2.2.2.2.2.2.2.2.2.2.2.2.2.1.1.1.1.1.1.1.1.1.1.m1.1.2.cmml"><mo stretchy="false" id="S4.F2.sf1.pic1.2.2.2.2.2.2.2.2.2.2.2.2.2.1.1.1.1.1.1.1.1.1.1.m1.1.1.1.3.1" xref="S4.F2.sf1.pic1.2.2.2.2.2.2.2.2.2.2.2.2.2.1.1.1.1.1.1.1.1.1.1.m1.1.2.cmml">(</mo><mn id="S4.F2.sf1.pic1.2.2.2.2.2.2.2.2.2.2.2.2.2.1.1.1.1.1.1.1.1.1.1.m1.1.1.1.1" xref="S4.F2.sf1.pic1.2.2.2.2.2.2.2.2.2.2.2.2.2.1.1.1.1.1.1.1.1.1.1.m1.1.1.1.1.cmml">2</mn><mo stretchy="false" id="S4.F2.sf1.pic1.2.2.2.2.2.2.2.2.2.2.2.2.2.1.1.1.1.1.1.1.1.1.1.m1.1.1.1.3.2" xref="S4.F2.sf1.pic1.2.2.2.2.2.2.2.2.2.2.2.2.2.1.1.1.1.1.1.1.1.1.1.m1.1.2.cmml">)</mo></mrow></msubsup> <annotation-xml encoding="MathML-Content" id="S4.F2.sf1.pic1.2.2.2.2.2.2.2.2.2.2.2.2.2.1.1.1.1.1.1.1.1.1.1.m1.1b"><apply id="S4.F2.sf1.pic1.2.2.2.2.2.2.2.2.2.2.2.2.2.1.1.1.1.1.1.1.1.1.1.m1.1.2.cmml" xref="S4.F2.sf1.pic1.2.2.2.2.2.2.2.2.2.2.2.2.2.1.1.1.1.1.1.1.1.1.1.m1.1.2"><csymbol cd="ambiguous" id="S4.F2.sf1.pic1.2.2.2.2.2.2.2.2.2.2.2.2.2.1.1.1.1.1.1.1.1.1.1.m1.1.2.1.cmml" xref="S4.F2.sf1.pic1.2.2.2.2.2.2.2.2.2.2.2.2.2.1.1.1.1.1.1.1.1.1.1.m1.1.2">superscript</csymbol> <apply id="S4.F2.sf1.pic1.2.2.2.2.2.2.2.2.2.2.2.2.2.1.1.1.1.1.1.1.1.1.1.m1.1.2.2.cmml" xref="S4.F2.sf1.pic1.2.2.2.2.2.2.2.2.2.2.2.2.2.1.1.1.1.1.1.1.1.1.1.m1.1.2"><csymbol cd="ambiguous" id="S4.F2.sf1.pic1.2.2.2.2.2.2.2.2.2.2.2.2.2.1.1.1.1.1.1.1.1.1.1.m1.1.2.2.1.cmml" xref="S4.F2.sf1.pic1.2.2.2.2.2.2.2.2.2.2.2.2.2.1.1.1.1.1.1.1.1.1.1.m1.1.2">subscript</csymbol> <ci id="S4.F2.sf1.pic1.2.2.2.2.2.2.2.2.2.2.2.2.2.1.1.1.1.1.1.1.1.1.1.m1.1.2.2.2.cmml" xref="S4.F2.sf1.pic1.2.2.2.2.2.2.2.2.2.2.2.2.2.1.1.1.1.1.1.1.1.1.1.m1.1.2.2.2">𝑧</ci> <ci id="S4.F2.sf1.pic1.2.2.2.2.2.2.2.2.2.2.2.2.2.1.1.1.1.1.1.1.1.1.1.m1.1.2.2.3.cmml" xref="S4.F2.sf1.pic1.2.2.2.2.2.2.2.2.2.2.2.2.2.1.1.1.1.1.1.1.1.1.1.m1.1.2.2.3">𝑋</ci></apply> <cn type="integer" id="S4.F2.sf1.pic1.2.2.2.2.2.2.2.2.2.2.2.2.2.1.1.1.1.1.1.1.1.1.1.m1.1.1.1.1.cmml" xref="S4.F2.sf1.pic1.2.2.2.2.2.2.2.2.2.2.2.2.2.1.1.1.1.1.1.1.1.1.1.m1.1.1.1.1">2</cn></apply></annotation-xml> <annotation encoding="application/x-tex" id="S4.F2.sf1.pic1.2.2.2.2.2.2.2.2.2.2.2.2.2.1.1.1.1.1.1.1.1.1.1.m1.1c">z_{X}^{(2)}</annotation></semantics></math></foreignObject></g> <path d="M -24.06 41.85 C -24.06 45.65 -28.46 48.73 -33.9 48.73 C -39.33 48.73 -43.74 45.65 -43.74 41.85 C -43.74 38.04 -39.33 34.96 -33.9 34.96 C -28.46 34.96 -24.06 38.04 -24.06 41.85 Z M -33.9 41.85" style="fill:none"></path><g transform="matrix(0.5 0.0 0.0 0.5 -38.13 39.63)" fill="#000000" stroke="#000000"><foreignObject width="16.94" height="8.86" transform="matrix(1 0 0 -1 0 16.6)" overflow="visible"><math xmlns="http://www.w3.org/1998/Math/MathML" display="inline" data-latex="z^{(1)}"><semantics id="S4.F2.sf1.pic1.3.3.3.3.3.3.3.3.3.3.3.3.3.1.1.1.1.1.1.1.1.1.m1.1a"><msup id="S4.F2.sf1.pic1.3.3.3.3.3.3.3.3.3.3.3.3.3.1.1.1.1.1.1.1.1.1.m1.1.2" xref="S4.F2.sf1.pic1.3.3.3.3.3.3.3.3.3.3.3.3.3.1.1.1.1.1.1.1.1.1.m1.1.2.cmml"><mi id="S4.F2.sf1.pic1.3.3.3.3.3.3.3.3.3.3.3.3.3.1.1.1.1.1.1.1.1.1.m1.1.2.2" xref="S4.F2.sf1.pic1.3.3.3.3.3.3.3.3.3.3.3.3.3.1.1.1.1.1.1.1.1.1.m1.1.2.2.cmml">z</mi> <mrow id="S4.F2.sf1.pic1.3.3.3.3.3.3.3.3.3.3.3.3.3.1.1.1.1.1.1.1.1.1.m1.1.1.1.3" xref="S4.F2.sf1.pic1.3.3.3.3.3.3.3.3.3.3.3.3.3.1.1.1.1.1.1.1.1.1.m1.1.2.cmml"><mo stretchy="false" id="S4.F2.sf1.pic1.3.3.3.3.3.3.3.3.3.3.3.3.3.1.1.1.1.1.1.1.1.1.m1.1.1.1.3.1" xref="S4.F2.sf1.pic1.3.3.3.3.3.3.3.3.3.3.3.3.3.1.1.1.1.1.1.1.1.1.m1.1.2.cmml">(</mo><mn id="S4.F2.sf1.pic1.3.3.3.3.3.3.3.3.3.3.3.3.3.1.1.1.1.1.1.1.1.1.m1.1.1.1.1" xref="S4.F2.sf1.pic1.3.3.3.3.3.3.3.3.3.3.3.3.3.1.1.1.1.1.1.1.1.1.m1.1.1.1.1.cmml">1</mn><mo stretchy="false" id="S4.F2.sf1.pic1.3.3.3.3.3.3.3.3.3.3.3.3.3.1.1.1.1.1.1.1.1.1.m1.1.1.1.3.2" xref="S4.F2.sf1.pic1.3.3.3.3.3.3.3.3.3.3.3.3.3.1.1.1.1.1.1.1.1.1.m1.1.2.cmml">)</mo></mrow></msup> <annotation-xml encoding="MathML-Content" id="S4.F2.sf1.pic1.3.3.3.3.3.3.3.3.3.3.3.3.3.1.1.1.1.1.1.1.1.1.m1.1b"><apply id="S4.F2.sf1.pic1.3.3.3.3.3.3.3.3.3.3.3.3.3.1.1.1.1.1.1.1.1.1.m1.1.2.cmml" xref="S4.F2.sf1.pic1.3.3.3.3.3.3.3.3.3.3.3.3.3.1.1.1.1.1.1.1.1.1.m1.1.2"><csymbol cd="ambiguous" id="S4.F2.sf1.pic1.3.3.3.3.3.3.3.3.3.3.3.3.3.1.1.1.1.1.1.1.1.1.m1.1.2.1.cmml" xref="S4.F2.sf1.pic1.3.3.3.3.3.3.3.3.3.3.3.3.3.1.1.1.1.1.1.1.1.1.m1.1.2">superscript</csymbol> <ci id="S4.F2.sf1.pic1.3.3.3.3.3.3.3.3.3.3.3.3.3.1.1.1.1.1.1.1.1.1.m1.1.2.2.cmml" xref="S4.F2.sf1.pic1.3.3.3.3.3.3.3.3.3.3.3.3.3.1.1.1.1.1.1.1.1.1.m1.1.2.2">𝑧</ci> <cn type="integer" id="S4.F2.sf1.pic1.3.3.3.3.3.3.3.3.3.3.3.3.3.1.1.1.1.1.1.1.1.1.m1.1.1.1.1.cmml" xref="S4.F2.sf1.pic1.3.3.3.3.3.3.3.3.3.3.3.3.3.1.1.1.1.1.1.1.1.1.m1.1.1.1.1">1</cn></apply></annotation-xml> <annotation encoding="application/x-tex" id="S4.F2.sf1.pic1.3.3.3.3.3.3.3.3.3.3.3.3.3.1.1.1.1.1.1.1.1.1.m1.1c">z^{(1)}</annotation></semantics></math></foreignObject></g> <path d="M 9.84 42.19 C 9.84 46 5.44 49.08 0 49.08 C -5.44 49.08 -9.84 46 -9.84 42.19 C -9.84 38.39 -5.44 35.3 0 35.3 C 5.44 35.3 9.84 38.39 9.84 42.19 Z M 0 42.19" style="fill:none"></path><g transform="matrix(0.5 0.0 0.0 0.5 -4.24 39.98)" fill="#000000" stroke="#000000"><foreignObject width="16.94" height="8.86" transform="matrix(1 0 0 -1 0 16.6)" overflow="visible"><math xmlns="http://www.w3.org/1998/Math/MathML" display="inline" data-latex="z^{(2)}"><semantics id="S4.F2.sf1.pic1.4.4.4.4.4.4.4.4.4.4.4.4.4.1.1.1.1.1.1.1.1.1.m1.1a"><msup id="S4.F2.sf1.pic1.4.4.4.4.4.4.4.4.4.4.4.4.4.1.1.1.1.1.1.1.1.1.m1.1.2" xref="S4.F2.sf1.pic1.4.4.4.4.4.4.4.4.4.4.4.4.4.1.1.1.1.1.1.1.1.1.m1.1.2.cmml"><mi id="S4.F2.sf1.pic1.4.4.4.4.4.4.4.4.4.4.4.4.4.1.1.1.1.1.1.1.1.1.m1.1.2.2" xref="S4.F2.sf1.pic1.4.4.4.4.4.4.4.4.4.4.4.4.4.1.1.1.1.1.1.1.1.1.m1.1.2.2.cmml">z</mi> <mrow id="S4.F2.sf1.pic1.4.4.4.4.4.4.4.4.4.4.4.4.4.1.1.1.1.1.1.1.1.1.m1.1.1.1.3" xref="S4.F2.sf1.pic1.4.4.4.4.4.4.4.4.4.4.4.4.4.1.1.1.1.1.1.1.1.1.m1.1.2.cmml"><mo stretchy="false" id="S4.F2.sf1.pic1.4.4.4.4.4.4.4.4.4.4.4.4.4.1.1.1.1.1.1.1.1.1.m1.1.1.1.3.1" xref="S4.F2.sf1.pic1.4.4.4.4.4.4.4.4.4.4.4.4.4.1.1.1.1.1.1.1.1.1.m1.1.2.cmml">(</mo><mn id="S4.F2.sf1.pic1.4.4.4.4.4.4.4.4.4.4.4.4.4.1.1.1.1.1.1.1.1.1.m1.1.1.1.1" xref="S4.F2.sf1.pic1.4.4.4.4.4.4.4.4.4.4.4.4.4.1.1.1.1.1.1.1.1.1.m1.1.1.1.1.cmml">2</mn><mo stretchy="false" id="S4.F2.sf1.pic1.4.4.4.4.4.4.4.4.4.4.4.4.4.1.1.1.1.1.1.1.1.1.m1.1.1.1.3.2" xref="S4.F2.sf1.pic1.4.4.4.4.4.4.4.4.4.4.4.4.4.1.1.1.1.1.1.1.1.1.m1.1.2.cmml">)</mo></mrow></msup> <annotation-xml encoding="MathML-Content" id="S4.F2.sf1.pic1.4.4.4.4.4.4.4.4.4.4.4.4.4.1.1.1.1.1.1.1.1.1.m1.1b"><apply id="S4.F2.sf1.pic1.4.4.4.4.4.4.4.4.4.4.4.4.4.1.1.1.1.1.1.1.1.1.m1.1.2.cmml" xref="S4.F2.sf1.pic1.4.4.4.4.4.4.4.4.4.4.4.4.4.1.1.1.1.1.1.1.1.1.m1.1.2"><csymbol cd="ambiguous" id="S4.F2.sf1.pic1.4.4.4.4.4.4.4.4.4.4.4.4.4.1.1.1.1.1.1.1.1.1.m1.1.2.1.cmml" xref="S4.F2.sf1.pic1.4.4.4.4.4.4.4.4.4.4.4.4.4.1.1.1.1.1.1.1.1.1.m1.1.2">superscript</csymbol> <ci id="S4.F2.sf1.pic1.4.4.4.4.4.4.4.4.4.4.4.4.4.1.1.1.1.1.1.1.1.1.m1.1.2.2.cmml" xref="S4.F2.sf1.pic1.4.4.4.4.4.4.4.4.4.4.4.4.4.1.1.1.1.1.1.1.1.1.m1.1.2.2">𝑧</ci> <cn type="integer" id="S4.F2.sf1.pic1.4.4.4.4.4.4.4.4.4.4.4.4.4.1.1.1.1.1.1.1.1.1.m1.1.1.1.1.cmml" xref="S4.F2.sf1.pic1.4.4.4.4.4.4.4.4.4.4.4.4.4.1.1.1.1.1.1.1.1.1.m1.1.1.1.1">2</cn></apply></annotation-xml> <annotation encoding="application/x-tex" id="S4.F2.sf1.pic1.4.4.4.4.4.4.4.4.4.4.4.4.4.1.1.1.1.1.1.1.1.1.m1.1c">z^{(2)}</annotation></semantics></math></foreignObject></g> <path d="M 49.63 42.19 C 49.63 46 45.22 49.08 39.79 49.08 C 34.35 49.08 29.94 46 29.94 42.19 C 29.94 38.39 34.35 35.3 39.79 35.3 C 45.22 35.3 49.63 38.39 49.63 42.19 Z M 39.79 42.19" style="fill:none"></path><g transform="matrix(0.5 0.0 0.0 0.5 35.55 39.98)" fill="#000000" stroke="#000000"><foreignObject width="16.94" height="8.86" transform="matrix(1 0 0 -1 0 16.6)" overflow="visible"><math xmlns="http://www.w3.org/1998/Math/MathML" display="inline" data-latex="z^{(3)}"><semantics id="S4.F2.sf1.pic1.5.5.5.5.5.5.5.5.5.5.5.5.5.1.1.1.1.1.1.1.1.1.m1.1a"><msup id="S4.F2.sf1.pic1.5.5.5.5.5.5.5.5.5.5.5.5.5.1.1.1.1.1.1.1.1.1.m1.1.2" xref="S4.F2.sf1.pic1.5.5.5.5.5.5.5.5.5.5.5.5.5.1.1.1.1.1.1.1.1.1.m1.1.2.cmml"><mi id="S4.F2.sf1.pic1.5.5.5.5.5.5.5.5.5.5.5.5.5.1.1.1.1.1.1.1.1.1.m1.1.2.2" xref="S4.F2.sf1.pic1.5.5.5.5.5.5.5.5.5.5.5.5.5.1.1.1.1.1.1.1.1.1.m1.1.2.2.cmml">z</mi> <mrow id="S4.F2.sf1.pic1.5.5.5.5.5.5.5.5.5.5.5.5.5.1.1.1.1.1.1.1.1.1.m1.1.1.1.3" xref="S4.F2.sf1.pic1.5.5.5.5.5.5.5.5.5.5.5.5.5.1.1.1.1.1.1.1.1.1.m1.1.2.cmml"><mo stretchy="false" id="S4.F2.sf1.pic1.5.5.5.5.5.5.5.5.5.5.5.5.5.1.1.1.1.1.1.1.1.1.m1.1.1.1.3.1" xref="S4.F2.sf1.pic1.5.5.5.5.5.5.5.5.5.5.5.5.5.1.1.1.1.1.1.1.1.1.m1.1.2.cmml">(</mo><mn id="S4.F2.sf1.pic1.5.5.5.5.5.5.5.5.5.5.5.5.5.1.1.1.1.1.1.1.1.1.m1.1.1.1.1" xref="S4.F2.sf1.pic1.5.5.5.5.5.5.5.5.5.5.5.5.5.1.1.1.1.1.1.1.1.1.m1.1.1.1.1.cmml">3</mn><mo stretchy="false" id="S4.F2.sf1.pic1.5.5.5.5.5.5.5.5.5.5.5.5.5.1.1.1.1.1.1.1.1.1.m1.1.1.1.3.2" xref="S4.F2.sf1.pic1.5.5.5.5.5.5.5.5.5.5.5.5.5.1.1.1.1.1.1.1.1.1.m1.1.2.cmml">)</mo></mrow></msup> <annotation-xml encoding="MathML-Content" id="S4.F2.sf1.pic1.5.5.5.5.5.5.5.5.5.5.5.5.5.1.1.1.1.1.1.1.1.1.m1.1b"><apply id="S4.F2.sf1.pic1.5.5.5.5.5.5.5.5.5.5.5.5.5.1.1.1.1.1.1.1.1.1.m1.1.2.cmml" xref="S4.F2.sf1.pic1.5.5.5.5.5.5.5.5.5.5.5.5.5.1.1.1.1.1.1.1.1.1.m1.1.2"><csymbol cd="ambiguous" id="S4.F2.sf1.pic1.5.5.5.5.5.5.5.5.5.5.5.5.5.1.1.1.1.1.1.1.1.1.m1.1.2.1.cmml" xref="S4.F2.sf1.pic1.5.5.5.5.5.5.5.5.5.5.5.5.5.1.1.1.1.1.1.1.1.1.m1.1.2">superscript</csymbol> <ci id="S4.F2.sf1.pic1.5.5.5.5.5.5.5.5.5.5.5.5.5.1.1.1.1.1.1.1.1.1.m1.1.2.2.cmml" xref="S4.F2.sf1.pic1.5.5.5.5.5.5.5.5.5.5.5.5.5.1.1.1.1.1.1.1.1.1.m1.1.2.2">𝑧</ci> <cn type="integer" id="S4.F2.sf1.pic1.5.5.5.5.5.5.5.5.5.5.5.5.5.1.1.1.1.1.1.1.1.1.m1.1.1.1.1.cmml" xref="S4.F2.sf1.pic1.5.5.5.5.5.5.5.5.5.5.5.5.5.1.1.1.1.1.1.1.1.1.m1.1.1.1.1">3</cn></apply></annotation-xml> <annotation encoding="application/x-tex" id="S4.F2.sf1.pic1.5.5.5.5.5.5.5.5.5.5.5.5.5.1.1.1.1.1.1.1.1.1.m1.1c">z^{(3)}</annotation></semantics></math></foreignObject></g> <path d="M 83.53 41.85 C 83.53 45.65 79.12 48.73 73.68 48.73 C 68.25 48.73 63.84 45.65 63.84 41.85 C 63.84 38.04 68.25 34.96 73.68 34.96 C 79.12 34.96 83.53 38.04 83.53 41.85 Z M 73.68 41.85" style="fill:none"></path><g transform="matrix(0.5 0.0 0.0 0.5 69.45 39.63)" fill="#000000" stroke="#000000"><foreignObject width="16.94" height="8.86" transform="matrix(1 0 0 -1 0 16.6)" overflow="visible"><math xmlns="http://www.w3.org/1998/Math/MathML" display="inline" data-latex="z^{(4)}"><semantics id="S4.F2.sf1.pic1.6.6.6.6.6.6.6.6.6.6.6.6.6.1.1.1.1.1.1.1.1.1.m1.1a"><msup id="S4.F2.sf1.pic1.6.6.6.6.6.6.6.6.6.6.6.6.6.1.1.1.1.1.1.1.1.1.m1.1.2" xref="S4.F2.sf1.pic1.6.6.6.6.6.6.6.6.6.6.6.6.6.1.1.1.1.1.1.1.1.1.m1.1.2.cmml"><mi id="S4.F2.sf1.pic1.6.6.6.6.6.6.6.6.6.6.6.6.6.1.1.1.1.1.1.1.1.1.m1.1.2.2" xref="S4.F2.sf1.pic1.6.6.6.6.6.6.6.6.6.6.6.6.6.1.1.1.1.1.1.1.1.1.m1.1.2.2.cmml">z</mi> <mrow id="S4.F2.sf1.pic1.6.6.6.6.6.6.6.6.6.6.6.6.6.1.1.1.1.1.1.1.1.1.m1.1.1.1.3" xref="S4.F2.sf1.pic1.6.6.6.6.6.6.6.6.6.6.6.6.6.1.1.1.1.1.1.1.1.1.m1.1.2.cmml"><mo stretchy="false" id="S4.F2.sf1.pic1.6.6.6.6.6.6.6.6.6.6.6.6.6.1.1.1.1.1.1.1.1.1.m1.1.1.1.3.1" xref="S4.F2.sf1.pic1.6.6.6.6.6.6.6.6.6.6.6.6.6.1.1.1.1.1.1.1.1.1.m1.1.2.cmml">(</mo><mn id="S4.F2.sf1.pic1.6.6.6.6.6.6.6.6.6.6.6.6.6.1.1.1.1.1.1.1.1.1.m1.1.1.1.1" xref="S4.F2.sf1.pic1.6.6.6.6.6.6.6.6.6.6.6.6.6.1.1.1.1.1.1.1.1.1.m1.1.1.1.1.cmml">4</mn><mo stretchy="false" id="S4.F2.sf1.pic1.6.6.6.6.6.6.6.6.6.6.6.6.6.1.1.1.1.1.1.1.1.1.m1.1.1.1.3.2" xref="S4.F2.sf1.pic1.6.6.6.6.6.6.6.6.6.6.6.6.6.1.1.1.1.1.1.1.1.1.m1.1.2.cmml">)</mo></mrow></msup> <annotation-xml encoding="MathML-Content" id="S4.F2.sf1.pic1.6.6.6.6.6.6.6.6.6.6.6.6.6.1.1.1.1.1.1.1.1.1.m1.1b"><apply id="S4.F2.sf1.pic1.6.6.6.6.6.6.6.6.6.6.6.6.6.1.1.1.1.1.1.1.1.1.m1.1.2.cmml" xref="S4.F2.sf1.pic1.6.6.6.6.6.6.6.6.6.6.6.6.6.1.1.1.1.1.1.1.1.1.m1.1.2"><csymbol cd="ambiguous" id="S4.F2.sf1.pic1.6.6.6.6.6.6.6.6.6.6.6.6.6.1.1.1.1.1.1.1.1.1.m1.1.2.1.cmml" xref="S4.F2.sf1.pic1.6.6.6.6.6.6.6.6.6.6.6.6.6.1.1.1.1.1.1.1.1.1.m1.1.2">superscript</csymbol> <ci id="S4.F2.sf1.pic1.6.6.6.6.6.6.6.6.6.6.6.6.6.1.1.1.1.1.1.1.1.1.m1.1.2.2.cmml" xref="S4.F2.sf1.pic1.6.6.6.6.6.6.6.6.6.6.6.6.6.1.1.1.1.1.1.1.1.1.m1.1.2.2">𝑧</ci> <cn type="integer" id="S4.F2.sf1.pic1.6.6.6.6.6.6.6.6.6.6.6.6.6.1.1.1.1.1.1.1.1.1.m1.1.1.1.1.cmml" xref="S4.F2.sf1.pic1.6.6.6.6.6.6.6.6.6.6.6.6.6.1.1.1.1.1.1.1.1.1.m1.1.1.1.1">4</cn></apply></annotation-xml> <annotation encoding="application/x-tex" id="S4.F2.sf1.pic1.6.6.6.6.6.6.6.6.6.6.6.6.6.1.1.1.1.1.1.1.1.1.m1.1c">z^{(4)}</annotation></semantics></math></foreignObject></g> <g fill="#CCCCCC"><path d="M 25.59 83.95 C 25.59 87.75 21.18 90.84 15.75 90.84 C 10.31 90.84 5.91 87.75 5.91 83.95 C 5.91 80.14 10.31 77.06 15.75 77.06 C 21.18 77.06 25.59 80.14 25.59 83.95 Z M 15.75 83.95"></path></g><g transform="matrix(0.5 0.0 0.0 0.5 12.97 83.25)" fill="#000000" stroke="#000000"><foreignObject width="11.12" height="9.13" transform="matrix(1 0 0 -1 0 16.6)" overflow="visible"><math xmlns="http://www.w3.org/1998/Math/MathML" display="inline" data-latex="z_{y}"><semantics id="S4.F2.sf1.pic1.7.7.7.7.7.7.7.7.7.7.7.7.7.1.1.1.1.1.1.1.1.1.1.m1.1a"><msub id="S4.F2.sf1.pic1.7.7.7.7.7.7.7.7.7.7.7.7.7.1.1.1.1.1.1.1.1.1.1.m1.1.1" xref="S4.F2.sf1.pic1.7.7.7.7.7.7.7.7.7.7.7.7.7.1.1.1.1.1.1.1.1.1.1.m1.1.1.cmml"><mi id="S4.F2.sf1.pic1.7.7.7.7.7.7.7.7.7.7.7.7.7.1.1.1.1.1.1.1.1.1.1.m1.1.1.2" xref="S4.F2.sf1.pic1.7.7.7.7.7.7.7.7.7.7.7.7.7.1.1.1.1.1.1.1.1.1.1.m1.1.1.2.cmml">z</mi> <mi id="S4.F2.sf1.pic1.7.7.7.7.7.7.7.7.7.7.7.7.7.1.1.1.1.1.1.1.1.1.1.m1.1.1.3" xref="S4.F2.sf1.pic1.7.7.7.7.7.7.7.7.7.7.7.7.7.1.1.1.1.1.1.1.1.1.1.m1.1.1.3.cmml">y</mi></msub> <annotation-xml encoding="MathML-Content" id="S4.F2.sf1.pic1.7.7.7.7.7.7.7.7.7.7.7.7.7.1.1.1.1.1.1.1.1.1.1.m1.1b"><apply id="S4.F2.sf1.pic1.7.7.7.7.7.7.7.7.7.7.7.7.7.1.1.1.1.1.1.1.1.1.1.m1.1.1.cmml" xref="S4.F2.sf1.pic1.7.7.7.7.7.7.7.7.7.7.7.7.7.1.1.1.1.1.1.1.1.1.1.m1.1.1"><csymbol cd="ambiguous" id="S4.F2.sf1.pic1.7.7.7.7.7.7.7.7.7.7.7.7.7.1.1.1.1.1.1.1.1.1.1.m1.1.1.1.cmml" xref="S4.F2.sf1.pic1.7.7.7.7.7.7.7.7.7.7.7.7.7.1.1.1.1.1.1.1.1.1.1.m1.1.1">subscript</csymbol> <ci id="S4.F2.sf1.pic1.7.7.7.7.7.7.7.7.7.7.7.7.7.1.1.1.1.1.1.1.1.1.1.m1.1.1.2.cmml" xref="S4.F2.sf1.pic1.7.7.7.7.7.7.7.7.7.7.7.7.7.1.1.1.1.1.1.1.1.1.1.m1.1.1.2">𝑧</ci> <ci id="S4.F2.sf1.pic1.7.7.7.7.7.7.7.7.7.7.7.7.7.1.1.1.1.1.1.1.1.1.1.m1.1.1.3.cmml" xref="S4.F2.sf1.pic1.7.7.7.7.7.7.7.7.7.7.7.7.7.1.1.1.1.1.1.1.1.1.1.m1.1.1.3">𝑦</ci></apply></annotation-xml> <annotation encoding="application/x-tex" id="S4.F2.sf1.pic1.7.7.7.7.7.7.7.7.7.7.7.7.7.1.1.1.1.1.1.1.1.1.1.m1.1c">z_{y}</annotation></semantics></math></foreignObject></g><path d="M -5.22 6.44 L -24.2 29.88" style="fill:none"></path><g transform="matrix(-0.62946 0.77702 -0.77702 -0.62946 -24.2 29.88)" stroke-dasharray="none" stroke-dashoffset="0.0pt" stroke-linejoin="miter"><path d="M 5.81 0 C 5.1 0.17 1.96 1.16 0 2.23 L 0 -2.23 C 1.96 -1.16 5.1 -0.17 5.81 0 Z"></path></g><path d="M 0 7.54 L 0 27.63" style="fill:none"></path><g transform="matrix(0.0 1.0 -1.0 0.0 0 27.63)" stroke-dasharray="none" stroke-dashoffset="0.0pt" stroke-linejoin="miter"><path d="M 5.81 0 C 5.1 0.17 1.96 1.16 0 2.23 L 0 -2.23 C 1.96 -1.16 5.1 -0.17 5.81 0 Z"></path></g><path d="M 5.8 6.15 L 29.09 30.85" style="fill:none"></path><g transform="matrix(0.68604 0.72757 -0.72757 0.68604 29.09 30.85)" stroke-dasharray="none" stroke-dashoffset="0.0pt" stroke-linejoin="miter"><path d="M 5.81 0 C 5.1 0.17 1.96 1.16 0 2.23 L 0 -2.23 C 1.96 -1.16 5.1 -0.17 5.81 0 Z"></path></g><path d="M 8.01 4.55 L 59.35 33.71" style="fill:none"></path><g transform="matrix(0.86955 0.49384 -0.49384 0.86955 59.35 33.71)" stroke-dasharray="none" stroke-dashoffset="0.0pt" stroke-linejoin="miter"><path d="M 5.81 0 C 5.1 0.17 1.96 1.16 0 2.23 L 0 -2.23 C 1.96 -1.16 5.1 -0.17 5.81 0 Z"></path></g><path d="M 31.77 4.55 L -19.57 33.71" style="fill:none"></path><g transform="matrix(-0.86955 0.49384 -0.49384 -0.86955 -19.57 33.71)" stroke-dasharray="none" stroke-dashoffset="0.0pt" stroke-linejoin="miter"><path d="M 5.81 0 C 5.1 0.17 1.96 1.16 0 2.23 L 0 -2.23 C 1.96 -1.16 5.1 -0.17 5.81 0 Z"></path></g><path d="M 33.98 6.15 L 10.7 30.85" style="fill:none"></path><g transform="matrix(-0.68604 0.72757 -0.72757 -0.68604 10.7 30.85)" stroke-dasharray="none" stroke-dashoffset="0.0pt" stroke-linejoin="miter"><path d="M 5.81 0 C 5.1 0.17 1.96 1.16 0 2.23 L 0 -2.23 C 1.96 -1.16 5.1 -0.17 5.81 0 Z"></path></g><path d="M 39.79 7.54 L 39.79 27.63" style="fill:none"></path><g transform="matrix(0.0 1.0 -1.0 0.0 39.79 27.63)" stroke-dasharray="none" stroke-dashoffset="0.0pt" stroke-linejoin="miter"><path d="M 5.81 0 C 5.1 0.17 1.96 1.16 0 2.23 L 0 -2.23 C 1.96 -1.16 5.1 -0.17 5.81 0 Z"></path></g><path d="M 45 6.44 L 63.99 29.88" style="fill:none"></path><g transform="matrix(0.62946 0.77702 -0.77702 0.62946 63.99 29.88)" stroke-dasharray="none" stroke-dashoffset="0.0pt" stroke-linejoin="miter"><path d="M 5.81 0 C 5.1 0.17 1.96 1.16 0 2.23 L 0 -2.23 C 1.96 -1.16 5.1 -0.17 5.81 0 Z"></path></g><path d="M -27.47 47.3 L 3.62 73.66" style="fill:none"></path><g transform="matrix(0.76266 0.64679 -0.64679 0.76266 3.62 73.66)" stroke-dasharray="none" stroke-dashoffset="0.0pt" stroke-linejoin="miter"><path d="M 5.81 0 C 5.1 0.17 1.96 1.16 0 2.23 L 0 -2.23 C 1.96 -1.16 5.1 -0.17 5.81 0 Z"></path></g><path d="M 2.59 49.05 L 10.52 70.1" style="fill:none"></path><g transform="matrix(0.3529 0.93565 -0.93565 0.3529 10.52 70.1)" stroke-dasharray="none" stroke-dashoffset="0.0pt" stroke-linejoin="miter"><path d="M 5.81 0 C 5.1 0.17 1.96 1.16 0 2.23 L 0 -2.23 C 1.96 -1.16 5.1 -0.17 5.81 0 Z"></path></g><path d="M 36 48.77 L 23.26 70.9" style="fill:none"></path><g transform="matrix(-0.49892 0.86665 -0.86665 -0.49892 23.26 70.9)" stroke-dasharray="none" stroke-dashoffset="0.0pt" stroke-linejoin="miter"><path d="M 5.81 0 C 5.1 0.17 1.96 1.16 0 2.23 L 0 -2.23 C 1.96 -1.16 5.1 -0.17 5.81 0 Z"></path></g><path d="M 66.68 46.93 L 28.8 74.47" style="fill:none"></path><g transform="matrix(-0.80894 0.58789 -0.58789 -0.80894 28.8 74.47)" stroke-dasharray="none" stroke-dashoffset="0.0pt" stroke-linejoin="miter"><path d="M 5.81 0 C 5.1 0.17 1.96 1.16 0 2.23 L 0 -2.23 C 1.96 -1.16 5.1 -0.17 5.81 0 Z"></path></g></g></svg>
