<svg id="S5.F5.4.pic1" height="58.55" overflow="visible" version="1.1" width="637.23"><g transform="translate(0,58.55) matrix(1 0 0 -1 0 0) translate(149.5,0) translate(0,10.81) matrix(1.0 0.0 0.0 1.0 -149.5 -10.81)" fill="#000000" stroke="#000000" stroke-width="0.4pt"><g transform="matrix(1 0 0 1 0 0) translate(384.38,0) translate(0,10.81)" fill="#000000" stroke="#000000" stroke-width="0.4pt"><clipPath id="pgfcp4"><path d="M -234.88 0 L 252.85 0 L 252.85 47.73 L -234.88 47.73 Z"></path></clipPath><g fill="#FFFFFF" fill-opacity="0.8" stroke="#CCCCCC" stroke-opacity="1"><path d="M -384.1 -10.54 h 626.92 v 57.04 h -626.92 Z"></path></g><g fill="#FFFFFF" fill-opacity="0.8" stroke="#CCCCCC" stroke-opacity="1" transform="matrix(1.0 0.0 0.0 1.0 -379.95 -7.77)"><g transform="matrix(1 0 0 -1 0 42.965)"><g transform="matrix(1 0 0 1 0 8.61)"><g transform="matrix(1 0 0 -1 0 0) translate(1.11,0)" fill="#D55E00" stroke="#D55E00" stroke-width="1.6pt" color="#D55E00"><path d="M 0 0 L 11.81 0 L 23.62 0" style="fill:none"></path></g><g transform="matrix(1 0 0 -1 25.84 0) translate(29.51,0) matrix(1.0 0.0 0.0 1.0 3.04 -3.77)" fill="#000000" stroke="#000000"><foreignObject width="52.27" height="9.61" transform="matrix(1 0 0 -1 0 16.6)" overflow="visible"><span id="S5.F5.4.pic1.1.1.1.1.1.1.1.1.1">TabPFN</span></foreignObject></g> <g transform="matrix(1 0 0 -1 116.87 0) translate(30.89,0)" fill="#0173B2" stroke="#0173B2" stroke-width="1.6pt" color="#0173B2"><path d="M 0 0 L 11.81 0 L 23.62 0" style="fill:none"></path></g><g transform="matrix(1 0 0 -1 172.5 0) translate(29.51,0) matrix(1.0 0.0 0.0 1.0 3.04 -3.77)" fill="#000000" stroke="#000000"><foreignObject width="100.05" height="9.61" transform="matrix(1 0 0 -1 0 16.6)" overflow="visible"><span id="S5.F5.4.pic1.2.2.2.2.2.2.2.1.1">Auto-sklearn 2.0</span></foreignObject></g> <g transform="matrix(1 0 0 -1 307.87 0) translate(30.89,0)" fill="#DE8F05" stroke="#DE8F05" stroke-width="1.6pt" color="#DE8F05"><path d="M 0 0 L 11.81 0 L 23.62 0" style="fill:none"></path></g><g transform="matrix(1 0 0 -1 363.49 0) translate(29.51,0) matrix(1.0 0.0 0.0 1.0 3.04 -3.77)" fill="#000000" stroke="#000000"><foreignObject width="63.42" height="12.3" transform="matrix(1 0 0 -1 0 16.6)" overflow="visible"><span id="S5.F5.4.pic1.3.3.3.3.3.3.3.1.1">Autogluon</span></foreignObject></g> <g transform="matrix(1 0 0 -1 462.23 0) translate(30.89,0)" fill="#029E73" stroke="#029E73" stroke-width="1.6pt" color="#029E73"><path d="M 0 0 L 11.81 0 L 23.62 0" style="fill:none"></path></g><g transform="matrix(1 0 0 -1 517.86 0) translate(29.51,0) matrix(1.0 0.0 0.0 1.0 3.04 -3.77)" fill="#000000" stroke="#000000"><foreignObject width="65.82" height="12.3" transform="matrix(1 0 0 -1 0 16.6)" overflow="visible"><span id="S5.F5.4.pic1.4.4.4.4.4.4.4.1.1">LightGBM</span></foreignObject></g></g> <g transform="matrix(1 0 0 1 0 25.83)"><g transform="matrix(1 0 0 -1 0 0) translate(1.11,0)" fill="#CC78BC" stroke="#CC78BC" stroke-width="1.6pt" color="#CC78BC"><path d="M 0 0 L 11.81 0 L 23.62 0" style="fill:none"></path></g><g transform="matrix(1 0 0 -1 25.84 0) translate(29.51,0) matrix(1.0 0.0 0.0 1.0 3.04 -3.69)" fill="#000000" stroke="#000000"><foreignObject width="55.71" height="9.46" transform="matrix(1 0 0 -1 0 16.6)" overflow="visible"><span id="S5.F5.4.pic1.5.5.5.5.5.5.1.1.1">XGBoost</span></foreignObject></g> <g transform="matrix(1 0 0 -1 116.87 0) translate(30.89,0)" fill="#CA9161" stroke="#CA9161" stroke-width="1.6pt" color="#CA9161"><path d="M 0 0 L 11.81 0 L 23.62 0" style="fill:none"></path></g><g transform="matrix(1 0 0 -1 172.5 0) translate(29.51,0) matrix(1.0 0.0 0.0 1.0 3.04 -3.69)" fill="#000000" stroke="#000000"><foreignObject width="45.74" height="12.15" transform="matrix(1 0 0 -1 0 16.6)" overflow="visible"><span id="S5.F5.4.pic1.6.6.6.6.6.6.2.1.1">LogReg</span></foreignObject></g> <g transform="matrix(1 0 0 -1 307.87 0) translate(30.89,0)" fill="#FBAFE4" stroke="#FBAFE4" stroke-width="1.6pt" color="#FBAFE4"><path d="M 0 0 L 11.81 0 L 23.62 0" style="fill:none"></path></g><g transform="matrix(1 0 0 -1 363.49 0) translate(29.51,0) matrix(1.0 0.0 0.0 1.0 3.04 -3.77)" fill="#000000" stroke="#000000"><foreignObject width="49.97" height="9.61" transform="matrix(1 0 0 -1 0 16.6)" overflow="visible"><span id="S5.F5.4.pic1.7.7.7.7.7.7.3.1.1">Cocktail</span></foreignObject></g> <g transform="matrix(1 0 0 -1 462.23 0) translate(30.89,0)" fill="#7F7F7F" stroke="#7F7F7F" stroke-width="1.6pt" color="#7F7F7F"><path d="M 0 0 L 11.81 0 L 23.62 0" style="fill:none"></path></g><g transform="matrix(1 0 0 -1 517.86 0) translate(29.51,0) matrix(1.0 0.0 0.0 1.0 3.04 -3.77)" fill="#000000" stroke="#000000"><foreignObject width="55.04" height="9.61" transform="matrix(1 0 0 -1 0 16.6)" overflow="visible"><span id="S5.F5.4.pic1.8.8.8.8.8.8.4.1.1">Catboost</span></foreignObject></g></g> <g transform="matrix(1 0 0 1 0 42.97)"><g transform="matrix(1 0 0 -1 0 0) translate(1.11,0)" fill="#ECE133" stroke="#ECE133" stroke-width="1.6pt" color="#ECE133"><path d="M 0 0 L 11.81 0 L 23.62 0" style="fill:none"></path></g><g transform="matrix(1 0 0 -1 25.84 0) translate(29.51,0) matrix(1.0 0.0 0.0 1.0 3.04 -3.69)" fill="#000000" stroke="#000000"><foreignObject width="31.52" height="9.46" transform="matrix(1 0 0 -1 0 16.6)" overflow="visible"><span id="S5.F5.4.pic1.9.9.9.9.9.9.1.1.1">KNN</span></foreignObject></g> <g transform="matrix(1 0 0 -1 116.87 0) translate(30.89,0)" fill="#56B4E9" stroke="#56B4E9" stroke-width="1.6pt" color="#56B4E9"><path d="M 0 0 L 11.81 0 L 23.62 0" style="fill:none"></path></g><g transform="matrix(1 0 0 -1 172.5 0) translate(29.51,0) matrix(1.0 0.0 0.0 1.0 3.04 -3.69)" fill="#000000" stroke="#000000"><foreignObject width="43.43" height="9.46" transform="matrix(1 0 0 -1 0 16.6)" overflow="visible"><span id="S5.F5.4.pic1.10.10.10.10.10.10.2.1.1">SAINT</span></foreignObject></g></g></g></g></g></g></svg>
