<svg id="S5.F5.2.pic1" height="163.13" overflow="visible" version="1.1" width="547.85"><g transform="translate(0,163.13) matrix(1 0 0 -1 0 0) translate(48.2,0) translate(0,46.82) matrix(1.0 0.0 0.0 1.0 -48.2 -46.82)" fill="#000000" stroke="#000000" stroke-width="0.4pt"><g transform="matrix(1 0 0 1 0 0) translate(48.2,0) translate(0,46.82)"><g stroke-width="0.2pt" fill="#000000" stroke="#000000" color="#808080"><path d="M 0 -5.91 L 0 0 M 95.86 -5.91 L 95.86 0 M 202.58 -5.91 L 202.58 0 M 339.73 -5.91 L 339.73 0 M 487.74 -5.91 L 487.74 0" style="fill:none"></path></g><g stroke-width="0.2pt" fill="#000000" stroke="#000000" color="#808080"><path d="M -5.91 0 L 0 0 M -5.91 15.32 L 0 15.32 M -5.91 30.64 L 0 30.64 M -5.91 45.96 L 0 45.96 M -5.91 61.28 L 0 61.28 M -5.91 76.6 L 0 76.6 M -5.91 91.92 L 0 91.92 M -5.91 107.24 L 0 107.24" style="fill:none"></path></g><g stroke="#000000" fill="#000000" stroke-width="0.4pt"><path d="M 0 0 L 0 114.9 L 487.74 114.9 L 487.74 0 L 0 0 Z" style="fill:none"></path><g transform="matrix(1.0 0.0 0.0 1.0 -6.19 -19.71)" fill="#000000" stroke="#000000"><foreignObject width="12.38" height="8.92" transform="matrix(1 0 0 -1 0 16.6)" overflow="visible"><span id="S5.F5.2.pic1.9.9.9.9.9.1.1">1s</span></foreignObject></g> <g transform="matrix(1.0 0.0 0.0 1.0 89.67 -19.71)" fill="#000000" stroke="#000000"><foreignObject width="12.38" height="8.92" transform="matrix(1 0 0 -1 0 16.6)" overflow="visible"><span id="S5.F5.2.pic1.10.10.10.10.10.1.1">5s</span></foreignObject></g> <g transform="matrix(1.0 0.0 0.0 1.0 192.94 -19.71)" fill="#000000" stroke="#000000"><foreignObject width="19.29" height="8.92" transform="matrix(1 0 0 -1 0 16.6)" overflow="visible"><span id="S5.F5.2.pic1.11.11.11.11.11.1.1">30s</span></foreignObject></g> <g transform="matrix(1.0 0.0 0.0 1.0 324.74 -20.04)" fill="#000000" stroke="#000000"><foreignObject width="29.98" height="9.24" transform="matrix(1 0 0 -1 0 16.6)" overflow="visible"><span id="S5.F5.2.pic1.12.12.12.12.12.1.1">5min</span></foreignObject></g> <g transform="matrix(1.0 0.0 0.0 1.0 480.44 -20.4)" fill="#000000" stroke="#000000"><foreignObject width="14.61" height="9.61" transform="matrix(1 0 0 -1 0 16.6)" overflow="visible"><span id="S5.F5.2.pic1.13.13.13.13.13.1.1">1h</span></foreignObject></g> <g transform="matrix(1.0 0.0 0.0 1.0 -17.71 -4.46)" fill="#000000" stroke="#000000"><foreignObject width="6.92" height="8.92" transform="matrix(1 0 0 -1 0 16.6)" overflow="visible"><math xmlns="http://www.w3.org/1998/Math/MathML" display="inline" data-latex="00"><semantics id="S5.F5.2.pic1.1.1.1.1.1.1.1.1.1.1.1.1.1.1.1.1.1.1.1.1.1.1.1.1.1.1.1.1.1.1.1.1.1.1.1.m1.1a"><mn id="S5.F5.2.pic1.1.1.1.1.1.1.1.1.1.1.1.1.1.1.1.1.1.1.1.1.1.1.1.1.1.1.1.1.1.1.1.1.1.1.1.m1.1.1" xref="S5.F5.2.pic1.1.1.1.1.1.1.1.1.1.1.1.1.1.1.1.1.1.1.1.1.1.1.1.1.1.1.1.1.1.1.1.1.1.1.1.m1.1.1.cmml">0</mn> <annotation-xml encoding="MathML-Content" id="S5.F5.2.pic1.1.1.1.1.1.1.1.1.1.1.1.1.1.1.1.1.1.1.1.1.1.1.1.1.1.1.1.1.1.1.1.1.1.1.1.m1.1b"><cn type="integer" id="S5.F5.2.pic1.1.1.1.1.1.1.1.1.1.1.1.1.1.1.1.1.1.1.1.1.1.1.1.1.1.1.1.1.1.1.1.1.1.1.1.m1.1.1.cmml" xref="S5.F5.2.pic1.1.1.1.1.1.1.1.1.1.1.1.1.1.1.1.1.1.1.1.1.1.1.1.1.1.1.1.1.1.1.1.1.1.1.1.m1.1.1">0</cn></annotation-xml></semantics></math></foreignObject></g> <g transform="matrix(1.0 0.0 0.0 1.0 -17.71 10.86)" fill="#000000" stroke="#000000"><foreignObject width="6.92" height="8.92" transform="matrix(1 0 0 -1 0 16.6)" overflow="visible"><math xmlns="http://www.w3.org/1998/Math/MathML" display="inline" data-latex="2"><semantics id="S5.F5.2.pic1.2.2.2.2.2.2.2.2.2.2.2.2.2.2.2.2.2.2.2.2.2.2.2.2.2.2.1.1.1.1.1.1.1.1.1.m1.1a"><mn id="S5.F5.2.pic1.2.2.2.2.2.2.2.2.2.2.2.2.2.2.2.2.2.2.2.2.2.2.2.2.2.2.1.1.1.1.1.1.1.1.1.m1.1.1" xref="S5.F5.2.pic1.2.2.2.2.2.2.2.2.2.2.2.2.2.2.2.2.2.2.2.2.2.2.2.2.2.2.1.1.1.1.1.1.1.1.1.m1.1.1.cmml">2</mn> <annotation-xml encoding="MathML-Content" id="S5.F5.2.pic1.2.2.2.2.2.2.2.2.2.2.2.2.2.2.2.2.2.2.2.2.2.2.2.2.2.2.1.1.1.1.1.1.1.1.1.m1.1b"><cn type="integer" id="S5.F5.2.pic1.2.2.2.2.2.2.2.2.2.2.2.2.2.2.2.2.2.2.2.2.2.2.2.2.2.2.1.1.1.1.1.1.1.1.1.m1.1.1.cmml" xref="S5.F5.2.pic1.2.2.2.2.2.2.2.2.2.2.2.2.2.2.2.2.2.2.2.2.2.2.2.2.2.2.1.1.1.1.1.1.1.1.1.m1.1.1">2</cn></annotation-xml> <annotation encoding="application/x-tex" id="S5.F5.2.pic1.2.2.2.2.2.2.2.2.2.2.2.2.2.2.2.2.2.2.2.2.2.2.2.2.2.2.1.1.1.1.1.1.1.1.1.m1.1c">2</annotation></semantics></math></foreignObject></g> <g transform="matrix(1.0 0.0 0.0 1.0 -17.71 26.18)" fill="#000000" stroke="#000000"><foreignObject width="6.92" height="8.92" transform="matrix(1 0 0 -1 0 16.6)" overflow="visible"><math xmlns="http://www.w3.org/1998/Math/MathML" display="inline" data-latex="4"><semantics id="S5.F5.2.pic1.3.3.3.3.3.3.3.3.3.3.3.3.3.3.3.3.3.3.3.3.3.3.3.3.3.3.1.1.1.1.1.1.1.1.1.m1.1a"><mn id="S5.F5.2.pic1.3.3.3.3.3.3.3.3.3.3.3.3.3.3.3.3.3.3.3.3.3.3.3.3.3.3.1.1.1.1.1.1.1.1.1.m1.1.1" xref="S5.F5.2.pic1.3.3.3.3.3.3.3.3.3.3.3.3.3.3.3.3.3.3.3.3.3.3.3.3.3.3.1.1.1.1.1.1.1.1.1.m1.1.1.cmml">4</mn> <annotation-xml encoding="MathML-Content" id="S5.F5.2.pic1.3.3.3.3.3.3.3.3.3.3.3.3.3.3.3.3.3.3.3.3.3.3.3.3.3.3.1.1.1.1.1.1.1.1.1.m1.1b"><cn type="integer" id="S5.F5.2.pic1.3.3.3.3.3.3.3.3.3.3.3.3.3.3.3.3.3.3.3.3.3.3.3.3.3.3.1.1.1.1.1.1.1.1.1.m1.1.1.cmml" xref="S5.F5.2.pic1.3.3.3.3.3.3.3.3.3.3.3.3.3.3.3.3.3.3.3.3.3.3.3.3.3.3.1.1.1.1.1.1.1.1.1.m1.1.1">4</cn></annotation-xml> <annotation encoding="application/x-tex" id="S5.F5.2.pic1.3.3.3.3.3.3.3.3.3.3.3.3.3.3.3.3.3.3.3.3.3.3.3.3.3.3.1.1.1.1.1.1.1.1.1.m1.1c">4</annotation></semantics></math></foreignObject></g> <g transform="matrix(1.0 0.0 0.0 1.0 -17.71 41.5)" fill="#000000" stroke="#000000"><foreignObject width="6.92" height="8.92" transform="matrix(1 0 0 -1 0 16.6)" overflow="visible"><math xmlns="http://www.w3.org/1998/Math/MathML" display="inline" data-latex="6"><semantics id="S5.F5.2.pic1.4.4.4.4.4.4.4.4.4.4.4.4.4.4.4.4.4.4.4.4.4.4.4.4.4.4.1.1.1.1.1.1.1.1.1.m1.1a"><mn id="S5.F5.2.pic1.4.4.4.4.4.4.4.4.4.4.4.4.4.4.4.4.4.4.4.4.4.4.4.4.4.4.1.1.1.1.1.1.1.1.1.m1.1.1" xref="S5.F5.2.pic1.4.4.4.4.4.4.4.4.4.4.4.4.4.4.4.4.4.4.4.4.4.4.4.4.4.4.1.1.1.1.1.1.1.1.1.m1.1.1.cmml">6</mn> <annotation-xml encoding="MathML-Content" id="S5.F5.2.pic1.4.4.4.4.4.4.4.4.4.4.4.4.4.4.4.4.4.4.4.4.4.4.4.4.4.4.1.1.1.1.1.1.1.1.1.m1.1b"><cn type="integer" id="S5.F5.2.pic1.4.4.4.4.4.4.4.4.4.4.4.4.4.4.4.4.4.4.4.4.4.4.4.4.4.4.1.1.1.1.1.1.1.1.1.m1.1.1.cmml" xref="S5.F5.2.pic1.4.4.4.4.4.4.4.4.4.4.4.4.4.4.4.4.4.4.4.4.4.4.4.4.4.4.1.1.1.1.1.1.1.1.1.m1.1.1">6</cn></annotation-xml> <annotation encoding="application/x-tex" id="S5.F5.2.pic1.4.4.4.4.4.4.4.4.4.4.4.4.4.4.4.4.4.4.4.4.4.4.4.4.4.4.1.1.1.1.1.1.1.1.1.m1.1c">6</annotation></semantics></math></foreignObject></g> <g transform="matrix(1.0 0.0 0.0 1.0 -17.71 56.82)" fill="#000000" stroke="#000000"><foreignObject width="6.92" height="8.92" transform="matrix(1 0 0 -1 0 16.6)" overflow="visible"><math xmlns="http://www.w3.org/1998/Math/MathML" display="inline" data-latex="8"><semantics id="S5.F5.2.pic1.5.5.5.5.5.5.5.5.5.5.5.5.5.5.5.5.5.5.5.5.5.5.5.5.5.5.1.1.1.1.1.1.1.1.1.m1.1a"><mn id="S5.F5.2.pic1.5.5.5.5.5.5.5.5.5.5.5.5.5.5.5.5.5.5.5.5.5.5.5.5.5.5.1.1.1.1.1.1.1.1.1.m1.1.1" xref="S5.F5.2.pic1.5.5.5.5.5.5.5.5.5.5.5.5.5.5.5.5.5.5.5.5.5.5.5.5.5.5.1.1.1.1.1.1.1.1.1.m1.1.1.cmml">8</mn> <annotation-xml encoding="MathML-Content" id="S5.F5.2.pic1.5.5.5.5.5.5.5.5.5.5.5.5.5.5.5.5.5.5.5.5.5.5.5.5.5.5.1.1.1.1.1.1.1.1.1.m1.1b"><cn type="integer" id="S5.F5.2.pic1.5.5.5.5.5.5.5.5.5.5.5.5.5.5.5.5.5.5.5.5.5.5.5.5.5.5.1.1.1.1.1.1.1.1.1.m1.1.1.cmml" xref="S5.F5.2.pic1.5.5.5.5.5.5.5.5.5.5.5.5.5.5.5.5.5.5.5.5.5.5.5.5.5.5.1.1.1.1.1.1.1.1.1.m1.1.1">8</cn></annotation-xml> <annotation encoding="application/x-tex" id="S5.F5.2.pic1.5.5.5.5.5.5.5.5.5.5.5.5.5.5.5.5.5.5.5.5.5.5.5.5.5.5.1.1.1.1.1.1.1.1.1.m1.1c">8</annotation></semantics></math></foreignObject></g> <g transform="matrix(1.0 0.0 0.0 1.0 -24.63 72.14)" fill="#000000" stroke="#000000"><foreignObject width="13.84" height="8.92" transform="matrix(1 0 0 -1 0 16.6)" overflow="visible"><math xmlns="http://www.w3.org/1998/Math/MathML" display="inline" data-latex="10"><semantics id="S5.F5.2.pic1.6.6.6.6.6.6.6.6.6.6.6.6.6.6.6.6.6.6.6.6.6.6.6.6.6.6.1.1.1.1.1.1.1.1.1.m1.1a"><mn id="S5.F5.2.pic1.6.6.6.6.6.6.6.6.6.6.6.6.6.6.6.6.6.6.6.6.6.6.6.6.6.6.1.1.1.1.1.1.1.1.1.m1.1.1" xref="S5.F5.2.pic1.6.6.6.6.6.6.6.6.6.6.6.6.6.6.6.6.6.6.6.6.6.6.6.6.6.6.1.1.1.1.1.1.1.1.1.m1.1.1.cmml">10</mn> <annotation-xml encoding="MathML-Content" id="S5.F5.2.pic1.6.6.6.6.6.6.6.6.6.6.6.6.6.6.6.6.6.6.6.6.6.6.6.6.6.6.1.1.1.1.1.1.1.1.1.m1.1b"><cn type="integer" id="S5.F5.2.pic1.6.6.6.6.6.6.6.6.6.6.6.6.6.6.6.6.6.6.6.6.6.6.6.6.6.6.1.1.1.1.1.1.1.1.1.m1.1.1.cmml" xref="S5.F5.2.pic1.6.6.6.6.6.6.6.6.6.6.6.6.6.6.6.6.6.6.6.6.6.6.6.6.6.6.1.1.1.1.1.1.1.1.1.m1.1.1">10</cn></annotation-xml> <annotation encoding="application/x-tex" id="S5.F5.2.pic1.6.6.6.6.6.6.6.6.6.6.6.6.6.6.6.6.6.6.6.6.6.6.6.6.6.6.1.1.1.1.1.1.1.1.1.m1.1c">10</annotation></semantics></math></foreignObject></g> <g transform="matrix(1.0 0.0 0.0 1.0 -24.63 87.46)" fill="#000000" stroke="#000000"><foreignObject width="13.84" height="8.92" transform="matrix(1 0 0 -1 0 16.6)" overflow="visible"><math xmlns="http://www.w3.org/1998/Math/MathML" display="inline" data-latex="12"><semantics id="S5.F5.2.pic1.7.7.7.7.7.7.7.7.7.7.7.7.7.7.7.7.7.7.7.7.7.7.7.7.7.7.1.1.1.1.1.1.1.1.1.m1.1a"><mn id="S5.F5.2.pic1.7.7.7.7.7.7.7.7.7.7.7.7.7.7.7.7.7.7.7.7.7.7.7.7.7.7.1.1.1.1.1.1.1.1.1.m1.1.1" xref="S5.F5.2.pic1.7.7.7.7.7.7.7.7.7.7.7.7.7.7.7.7.7.7.7.7.7.7.7.7.7.7.1.1.1.1.1.1.1.1.1.m1.1.1.cmml">12</mn> <annotation-xml encoding="MathML-Content" id="S5.F5.2.pic1.7.7.7.7.7.7.7.7.7.7.7.7.7.7.7.7.7.7.7.7.7.7.7.7.7.7.1.1.1.1.1.1.1.1.1.m1.1b"><cn type="integer" id="S5.F5.2.pic1.7.7.7.7.7.7.7.7.7.7.7.7.7.7.7.7.7.7.7.7.7.7.7.7.7.7.1.1.1.1.1.1.1.1.1.m1.1.1.cmml" xref="S5.F5.2.pic1.7.7.7.7.7.7.7.7.7.7.7.7.7.7.7.7.7.7.7.7.7.7.7.7.7.7.1.1.1.1.1.1.1.1.1.m1.1.1">12</cn></annotation-xml> <annotation encoding="application/x-tex" id="S5.F5.2.pic1.7.7.7.7.7.7.7.7.7.7.7.7.7.7.7.7.7.7.7.7.7.7.7.7.7.7.1.1.1.1.1.1.1.1.1.m1.1c">12</annotation></semantics></math></foreignObject></g> <g transform="matrix(1.0 0.0 0.0 1.0 -24.63 102.78)" fill="#000000" stroke="#000000"><foreignObject width="13.84" height="8.92" transform="matrix(1 0 0 -1 0 16.6)" overflow="visible"><math xmlns="http://www.w3.org/1998/Math/MathML" display="inline" data-latex="14"><semantics id="S5.F5.2.pic1.8.8.8.8.8.8.8.8.8.8.8.8.8.8.8.8.8.8.8.8.8.8.8.8.8.8.1.1.1.1.1.1.1.1.1.m1.1a"><mn id="S5.F5.2.pic1.8.8.8.8.8.8.8.8.8.8.8.8.8.8.8.8.8.8.8.8.8.8.8.8.8.8.1.1.1.1.1.1.1.1.1.m1.1.1" xref="S5.F5.2.pic1.8.8.8.8.8.8.8.8.8.8.8.8.8.8.8.8.8.8.8.8.8.8.8.8.8.8.1.1.1.1.1.1.1.1.1.m1.1.1.cmml">14</mn> <annotation-xml encoding="MathML-Content" id="S5.F5.2.pic1.8.8.8.8.8.8.8.8.8.8.8.8.8.8.8.8.8.8.8.8.8.8.8.8.8.8.1.1.1.1.1.1.1.1.1.m1.1b"><cn type="integer" id="S5.F5.2.pic1.8.8.8.8.8.8.8.8.8.8.8.8.8.8.8.8.8.8.8.8.8.8.8.8.8.8.1.1.1.1.1.1.1.1.1.m1.1.1.cmml" xref="S5.F5.2.pic1.8.8.8.8.8.8.8.8.8.8.8.8.8.8.8.8.8.8.8.8.8.8.8.8.8.8.1.1.1.1.1.1.1.1.1.m1.1.1">14</cn></annotation-xml> <annotation encoding="application/x-tex" id="S5.F5.2.pic1.8.8.8.8.8.8.8.8.8.8.8.8.8.8.8.8.8.8.8.8.8.8.8.8.8.8.1.1.1.1.1.1.1.1.1.m1.1c">14</annotation></semantics></math></foreignObject></g> <clipPath id="pgfcp2"><path d="M 0 0 L 487.74 0 L 487.74 114.9 L 0 114.9 Z"></path></clipPath><g clip-path="url(#pgfcp2)"><g stroke="#0173B2" fill="#0173B2" fill-opacity="0.1" stroke-opacity="0.1" stroke-width="1.0pt"><path d="M 243.87 29.11 L 243.87 7.66 L 339.73 15.32 L 405.17 9.19 L 487.74 4.6 L 487.74 15.32 L 487.74 15.32 L 405.17 18.38 L 339.73 26.04 L 243.87 29.11 Z"></path></g><g></g><g stroke="#DE8F05" fill="#DE8F05" fill-opacity="0.1" stroke-opacity="0.1" stroke-width="1.0pt"><path d="M 243.87 29.11 L 243.87 13.79 L 339.73 16.85 L 405.17 30.64 L 487.74 26.04 L 487.74 35.24 L 487.74 35.24 L 405.17 35.24 L 339.73 29.11 L 243.87 29.11 Z"></path></g><g></g><g stroke="#029E73" fill="#029E73" fill-opacity="0.1" stroke-opacity="0.1" stroke-width="1.0pt"><path d="M 95.86 10.72 L 95.86 0 L 161.3 0 L 202.58 0 L 243.87 0 L 339.73 0 L 405.17 0 L 487.74 0 L 487.74 0 L 487.74 0 L 405.17 4.6 L 339.73 4.6 L 243.87 10.72 L 202.58 9.19 L 161.3 6.13 L 95.86 10.72 Z"></path></g><g></g><g stroke="#CC78BC" fill="#CC78BC" fill-opacity="0.1" stroke-opacity="0.1" stroke-width="1.0pt"><path d="M 243.87 12.26 L 243.87 3.06 L 339.73 1.53 L 405.17 0 L 487.74 0 L 487.74 4.6 L 487.74 4.6 L 405.17 6.13 L 339.73 10.72 L 243.87 12.26 Z"></path></g><g></g><g stroke="#D55E00" fill="#D55E00" fill-opacity="0.1" stroke-opacity="0.1" stroke-width="1.0pt"><path d="M 0 111.84 L 0 93.45 L 95.86 93.45 L 161.3 64.34 L 202.58 75.07 L 243.87 39.83 L 339.73 19.92 L 405.17 26.04 L 487.74 32.17 L 487.74 50.56 L 487.74 50.56 L 405.17 41.36 L 339.73 36.77 L 243.87 45.96 L 202.58 84.26 L 161.3 88.86 L 95.86 111.84 L 0 111.84 Z"></path></g><g></g><g stroke="#CA9161" fill="#CA9161" fill-opacity="0.1" stroke-opacity="0.1" stroke-width="1.0pt"><path d="M 0 13.79 L 0 4.6 L 95.86 1.53 L 161.3 1.53 L 202.58 1.53 L 243.87 1.53 L 339.73 0 L 405.17 0 L 487.74 0 L 570.31 0 L 570.31 9.19 L 570.31 9.19 L 487.74 9.19 L 405.17 13.79 L 339.73 9.19 L 243.87 16.85 L 202.58 16.85 L 161.3 16.85 L 95.86 19.92 L 0 13.79 Z"></path></g><g></g><g stroke="#FBAFE4" fill="#FBAFE4" fill-opacity="0.1" stroke-opacity="0.1" stroke-width="1.0pt"><path d="M 339.73 6.13 L 339.73 0 L 405.17 0 L 487.74 0 L 487.74 6.13 L 487.74 6.13 L 405.17 0 L 339.73 6.13 Z"></path></g><g></g><g stroke="#949494" fill="#949494" fill-opacity="0.1" stroke-opacity="0.1" stroke-width="1.0pt"><path d="M 339.73 10.72 L 339.73 1.53 L 405.17 1.53 L 487.74 3.06 L 487.74 7.66 L 487.74 7.66 L 405.17 12.26 L 339.73 10.72 Z"></path></g><g></g><g stroke="#ECE133" fill="#ECE133" fill-opacity="0.1" stroke-opacity="0.1" stroke-width="1.0pt"><path d="M 0 4.6 L 0 0 L 95.86 0 L 161.3 0 L 202.58 0 L 243.87 0 L 339.73 0 L 405.17 0 L 487.74 0 L 570.31 0 L 570.31 0 L 570.31 0 L 487.74 0 L 405.17 0 L 339.73 0 L 243.87 0 L 202.58 0 L 161.3 0 L 95.86 0 L 0 4.6 Z"></path></g><g></g><g stroke="#56B4E9" fill="#56B4E9" fill-opacity="0.1" stroke-opacity="0.1" stroke-width="1.0pt"><path d="M 339.73 6.13 L 339.73 0 L 405.17 1.53 L 487.74 0 L 487.74 6.13 L 487.74 6.13 L 405.17 10.72 L 339.73 6.13 Z"></path></g><g></g><g stroke-width="1.5pt" fill="#0173B2" stroke="#0173B2" color="#0173B2"><path d="M 243.87 16.85 L 339.73 19.92 L 405.17 13.79 L 487.74 10.72" style="fill:none"></path></g><g></g><g stroke-width="1.5pt" fill="#DE8F05" stroke="#DE8F05" color="#DE8F05"><path d="M 243.87 21.45 L 339.73 22.98 L 405.17 32.17 L 487.74 30.64" style="fill:none"></path></g><g></g><g stroke-width="1.5pt" fill="#029E73" stroke="#029E73" color="#029E73"><path d="M 95.86 4.6 L 161.3 3.06 L 202.58 3.06 L 243.87 4.6 L 339.73 1.53 L 405.17 1.53 L 487.74 0" style="fill:none"></path></g><g></g><g stroke-width="1.5pt" fill="#CC78BC" stroke="#CC78BC" color="#CC78BC"><path d="M 243.87 7.66 L 339.73 6.13 L 405.17 3.06 L 487.74 1.53" style="fill:none"></path></g><g></g><g stroke-width="1.5pt" fill="#D55E00" stroke="#D55E00" color="#D55E00"><path d="M 0 102.64 L 95.86 101.11 L 161.3 76.6 L 202.58 81.2 L 243.87 42.9 L 339.73 29.11 L 405.17 33.7 L 487.74 39.83" style="fill:none"></path></g><g></g><g stroke-width="1.5pt" fill="#CA9161" stroke="#CA9161" color="#CA9161"><path d="M 0 9.19 L 95.86 9.19 L 161.3 9.19 L 202.58 9.19 L 243.87 9.19 L 339.73 4.6 L 405.17 4.6 L 487.74 3.06 L 570.31 3.06" style="fill:none"></path></g><g></g><g stroke-width="1.5pt" fill="#FBAFE4" stroke="#FBAFE4" color="#FBAFE4"><path d="M 339.73 3.06 L 405.17 0 L 487.74 3.06" style="fill:none"></path></g><g></g><g stroke-width="1.5pt" fill="#949494" stroke="#949494" color="#949494"><path d="M 339.73 6.13 L 405.17 6.13 L 487.74 6.13" style="fill:none"></path></g><g></g><g stroke-width="1.5pt" fill="#ECE133" stroke="#ECE133" color="#ECE133"><path d="M 0 1.53 L 95.86 0 L 161.3 0 L 202.58 0 L 243.87 0 L 339.73 0 L 405.17 0 L 487.74 0 L 570.31 0" style="fill:none"></path></g><g></g><g stroke-width="1.5pt" fill="#56B4E9" stroke="#56B4E9" color="#56B4E9"><path d="M 339.73 3.06 L 405.17 6.13 L 487.74 3.06" style="fill:none"></path></g><g></g></g><g fill="#0173B2" stroke="#FFFFFF" stroke-dasharray="none" stroke-dashoffset="0.0pt" stroke-width="0.5pt" color="#0173B2"><path d="M 246.64 16.85 C 246.64 18.38 245.4 19.62 243.87 19.62 C 242.34 19.62 241.1 18.38 241.1 16.85 C 241.1 15.32 242.34 14.08 243.87 14.08 C 245.4 14.08 246.64 15.32 246.64 16.85 Z M 243.87 16.85"></path><path d="M 342.5 19.92 C 342.5 21.44 341.26 22.68 339.73 22.68 C 338.2 22.68 336.96 21.44 336.96 19.92 C 336.96 18.39 338.2 17.15 339.73 17.15 C 341.26 17.15 342.5 18.39 342.5 19.92 Z M 339.73 19.92"></path><path d="M 407.93 13.79 C 407.93 15.32 406.7 16.56 405.17 16.56 C 403.64 16.56 402.4 15.32 402.4 13.79 C 402.4 12.26 403.64 11.02 405.17 11.02 C 406.7 11.02 407.93 12.26 407.93 13.79 Z M 405.17 13.79"></path><path d="M 490.51 10.72 C 490.51 12.25 489.27 13.49 487.74 13.49 C 486.21 13.49 484.97 12.25 484.97 10.72 C 484.97 9.2 486.21 7.96 487.74 7.96 C 489.27 7.96 490.51 9.2 490.51 10.72 Z M 487.74 10.72"></path></g><g fill="#DE8F05" stroke="#FFFFFF" stroke-dasharray="none" stroke-dashoffset="0.0pt" stroke-width="0.5pt" color="#DE8F05"><path d="M 246.64 21.45 C 246.64 22.98 245.4 24.22 243.87 24.22 C 242.34 24.22 241.1 22.98 241.1 21.45 C 241.1 19.92 242.34 18.68 243.87 18.68 C 245.4 18.68 246.64 19.92 246.64 21.45 Z M 243.87 21.45"></path><path d="M 342.5 22.98 C 342.5 24.51 341.26 25.75 339.73 25.75 C 338.2 25.75 336.96 24.51 336.96 22.98 C 336.96 21.45 338.2 20.21 339.73 20.21 C 341.26 20.21 342.5 21.45 342.5 22.98 Z M 339.73 22.98"></path><path d="M 407.93 32.17 C 407.93 33.7 406.7 34.94 405.17 34.94 C 403.64 34.94 402.4 33.7 402.4 32.17 C 402.4 30.64 403.64 29.4 405.17 29.4 C 406.7 29.4 407.93 30.64 407.93 32.17 Z M 405.17 32.17"></path><path d="M 490.51 30.64 C 490.51 32.17 489.27 33.41 487.74 33.41 C 486.21 33.41 484.97 32.17 484.97 30.64 C 484.97 29.11 486.21 27.87 487.74 27.87 C 489.27 27.87 490.51 29.11 490.51 30.64 Z M 487.74 30.64"></path></g><g fill="#029E73" stroke="#FFFFFF" stroke-dasharray="none" stroke-dashoffset="0.0pt" stroke-width="0.5pt" color="#029E73"><path d="M 98.63 4.6 C 98.63 6.12 97.39 7.36 95.86 7.36 C 94.33 7.36 93.09 6.12 93.09 4.6 C 93.09 3.07 94.33 1.83 95.86 1.83 C 97.39 1.83 98.63 3.07 98.63 4.6 Z M 95.86 4.6"></path><path d="M 164.07 3.06 C 164.07 4.59 162.83 5.83 161.3 5.83 C 159.77 5.83 158.53 4.59 158.53 3.06 C 158.53 1.54 159.77 0.3 161.3 0.3 C 162.83 0.3 164.07 1.54 164.07 3.06 Z M 161.3 3.06"></path><path d="M 205.35 3.06 C 205.35 4.59 204.11 5.83 202.58 5.83 C 201.06 5.83 199.82 4.59 199.82 3.06 C 199.82 1.54 201.06 0.3 202.58 0.3 C 204.11 0.3 205.35 1.54 205.35 3.06 Z M 202.58 3.06"></path><path d="M 246.64 4.6 C 246.64 6.12 245.4 7.36 243.87 7.36 C 242.34 7.36 241.1 6.12 241.1 4.6 C 241.1 3.07 242.34 1.83 243.87 1.83 C 245.4 1.83 246.64 3.07 246.64 4.6 Z M 243.87 4.6"></path><path d="M 342.5 1.53 C 342.5 3.06 341.26 4.3 339.73 4.3 C 338.2 4.3 336.96 3.06 336.96 1.53 C 336.96 0 338.2 -1.24 339.73 -1.24 C 341.26 -1.24 342.5 0 342.5 1.53 Z M 339.73 1.53"></path><path d="M 407.93 1.53 C 407.93 3.06 406.7 4.3 405.17 4.3 C 403.64 4.3 402.4 3.06 402.4 1.53 C 402.4 0 403.64 -1.24 405.17 -1.24 C 406.7 -1.24 407.93 0 407.93 1.53 Z M 405.17 1.53"></path><path d="M 490.51 0 C 490.51 1.53 489.27 2.77 487.74 2.77 C 486.21 2.77 484.97 1.53 484.97 0 C 484.97 -1.53 486.21 -2.77 487.74 -2.77 C 489.27 -2.77 490.51 -1.53 490.51 0 Z M 487.74 0"></path></g><g fill="#CC78BC" stroke="#FFFFFF" stroke-dasharray="none" stroke-dashoffset="0.0pt" stroke-width="0.5pt" color="#CC78BC"><path d="M 246.64 7.66 C 246.64 9.19 245.4 10.43 243.87 10.43 C 242.34 10.43 241.1 9.19 241.1 7.66 C 241.1 6.13 242.34 4.89 243.87 4.89 C 245.4 4.89 246.64 6.13 246.64 7.66 Z M 243.87 7.66"></path><path d="M 342.5 6.13 C 342.5 7.66 341.26 8.9 339.73 8.9 C 338.2 8.9 336.96 7.66 336.96 6.13 C 336.96 4.6 338.2 3.36 339.73 3.36 C 341.26 3.36 342.5 4.6 342.5 6.13 Z M 339.73 6.13"></path><path d="M 407.93 3.06 C 407.93 4.59 406.7 5.83 405.17 5.83 C 403.64 5.83 402.4 4.59 402.4 3.06 C 402.4 1.54 403.64 0.3 405.17 0.3 C 406.7 0.3 407.93 1.54 407.93 3.06 Z M 405.17 3.06"></path><path d="M 490.51 1.53 C 490.51 3.06 489.27 4.3 487.74 4.3 C 486.21 4.3 484.97 3.06 484.97 1.53 C 484.97 0 486.21 -1.24 487.74 -1.24 C 489.27 -1.24 490.51 0 490.51 1.53 Z M 487.74 1.53"></path></g><g fill="#D55E00" stroke="#FFFFFF" stroke-dasharray="none" stroke-dashoffset="0.0pt" stroke-width="0.5pt" color="#D55E00"><path d="M 2.77 102.64 C 2.77 104.17 1.53 105.41 0 105.41 C -1.53 105.41 -2.77 104.17 -2.77 102.64 C -2.77 101.12 -1.53 99.88 0 99.88 C 1.53 99.88 2.77 101.12 2.77 102.64 Z M 0 102.64"></path><path d="M 98.63 101.11 C 98.63 102.64 97.39 103.88 95.86 103.88 C 94.33 103.88 93.09 102.64 93.09 101.11 C 93.09 99.58 94.33 98.34 95.86 98.34 C 97.39 98.34 98.63 99.58 98.63 101.11 Z M 95.86 101.11"></path><path d="M 164.07 76.6 C 164.07 78.13 162.83 79.37 161.3 79.37 C 159.77 79.37 158.53 78.13 158.53 76.6 C 158.53 75.07 159.77 73.83 161.3 73.83 C 162.83 73.83 164.07 75.07 164.07 76.6 Z M 161.3 76.6"></path><path d="M 205.35 81.2 C 205.35 82.72 204.11 83.96 202.58 83.96 C 201.06 83.96 199.82 82.72 199.82 81.2 C 199.82 79.67 201.06 78.43 202.58 78.43 C 204.11 78.43 205.35 79.67 205.35 81.2 Z M 202.58 81.2"></path><path d="M 246.64 42.9 C 246.64 44.42 245.4 45.66 243.87 45.66 C 242.34 45.66 241.1 44.42 241.1 42.9 C 241.1 41.37 242.34 40.13 243.87 40.13 C 245.4 40.13 246.64 41.37 246.64 42.9 Z M 243.87 42.9"></path><path d="M 342.5 29.11 C 342.5 30.64 341.26 31.88 339.73 31.88 C 338.2 31.88 336.96 30.64 336.96 29.11 C 336.96 27.58 338.2 26.34 339.73 26.34 C 341.26 26.34 342.5 27.58 342.5 29.11 Z M 339.73 29.11"></path><path d="M 407.93 33.7 C 407.93 35.23 406.7 36.47 405.17 36.47 C 403.64 36.47 402.4 35.23 402.4 33.7 C 402.4 32.18 403.64 30.94 405.17 30.94 C 406.7 30.94 407.93 32.18 407.93 33.7 Z M 405.17 33.7"></path><path d="M 490.51 39.83 C 490.51 41.36 489.27 42.6 487.74 42.6 C 486.21 42.6 484.97 41.36 484.97 39.83 C 484.97 38.3 486.21 37.06 487.74 37.06 C 489.27 37.06 490.51 38.3 490.51 39.83 Z M 487.74 39.83"></path></g><g fill="#CA9161" stroke="#FFFFFF" stroke-dasharray="none" stroke-dashoffset="0.0pt" stroke-width="0.5pt" color="#CA9161"><path d="M 2.77 9.19 C 2.77 10.72 1.53 11.96 0 11.96 C -1.53 11.96 -2.77 10.72 -2.77 9.19 C -2.77 7.66 -1.53 6.42 0 6.42 C 1.53 6.42 2.77 7.66 2.77 9.19 Z M 0 9.19"></path><path d="M 98.63 9.19 C 98.63 10.72 97.39 11.96 95.86 11.96 C 94.33 11.96 93.09 10.72 93.09 9.19 C 93.09 7.66 94.33 6.42 95.86 6.42 C 97.39 6.42 98.63 7.66 98.63 9.19 Z M 95.86 9.19"></path><path d="M 164.07 9.19 C 164.07 10.72 162.83 11.96 161.3 11.96 C 159.77 11.96 158.53 10.72 158.53 9.19 C 158.53 7.66 159.77 6.42 161.3 6.42 C 162.83 6.42 164.07 7.66 164.07 9.19 Z M 161.3 9.19"></path><path d="M 205.35 9.19 C 205.35 10.72 204.11 11.96 202.58 11.96 C 201.06 11.96 199.82 10.72 199.82 9.19 C 199.82 7.66 201.06 6.42 202.58 6.42 C 204.11 6.42 205.35 7.66 205.35 9.19 Z M 202.58 9.19"></path><path d="M 246.64 9.19 C 246.64 10.72 245.4 11.96 243.87 11.96 C 242.34 11.96 241.1 10.72 241.1 9.19 C 241.1 7.66 242.34 6.42 243.87 6.42 C 245.4 6.42 246.64 7.66 246.64 9.19 Z M 243.87 9.19"></path><path d="M 342.5 4.6 C 342.5 6.12 341.26 7.36 339.73 7.36 C 338.2 7.36 336.96 6.12 336.96 4.6 C 336.96 3.07 338.2 1.83 339.73 1.83 C 341.26 1.83 342.5 3.07 342.5 4.6 Z M 339.73 4.6"></path><path d="M 407.93 4.6 C 407.93 6.12 406.7 7.36 405.17 7.36 C 403.64 7.36 402.4 6.12 402.4 4.6 C 402.4 3.07 403.64 1.83 405.17 1.83 C 406.7 1.83 407.93 3.07 407.93 4.6 Z M 405.17 4.6"></path><path d="M 490.51 3.06 C 490.51 4.59 489.27 5.83 487.74 5.83 C 486.21 5.83 484.97 4.59 484.97 3.06 C 484.97 1.54 486.21 0.3 487.74 0.3 C 489.27 0.3 490.51 1.54 490.51 3.06 Z M 487.74 3.06"></path></g><g fill="#FBAFE4" stroke="#FFFFFF" stroke-dasharray="none" stroke-dashoffset="0.0pt" stroke-width="0.5pt" color="#FBAFE4"><path d="M 342.5 3.06 C 342.5 4.59 341.26 5.83 339.73 5.83 C 338.2 5.83 336.96 4.59 336.96 3.06 C 336.96 1.54 338.2 0.3 339.73 0.3 C 341.26 0.3 342.5 1.54 342.5 3.06 Z M 339.73 3.06"></path><path d="M 407.93 0 C 407.93 1.53 406.7 2.77 405.17 2.77 C 403.64 2.77 402.4 1.53 402.4 0 C 402.4 -1.53 403.64 -2.77 405.17 -2.77 C 406.7 -2.77 407.93 -1.53 407.93 0 Z M 405.17 0"></path><path d="M 490.51 3.06 C 490.51 4.59 489.27 5.83 487.74 5.83 C 486.21 5.83 484.97 4.59 484.97 3.06 C 484.97 1.54 486.21 0.3 487.74 0.3 C 489.27 0.3 490.51 1.54 490.51 3.06 Z M 487.74 3.06"></path></g><g fill="#949494" stroke="#FFFFFF" stroke-dasharray="none" stroke-dashoffset="0.0pt" stroke-width="0.5pt" color="#949494"><path d="M 342.5 6.13 C 342.5 7.66 341.26 8.9 339.73 8.9 C 338.2 8.9 336.96 7.66 336.96 6.13 C 336.96 4.6 338.2 3.36 339.73 3.36 C 341.26 3.36 342.5 4.6 342.5 6.13 Z M 339.73 6.13"></path><path d="M 407.93 6.13 C 407.93 7.66 406.7 8.9 405.17 8.9 C 403.64 8.9 402.4 7.66 402.4 6.13 C 402.4 4.6 403.64 3.36 405.17 3.36 C 406.7 3.36 407.93 4.6 407.93 6.13 Z M 405.17 6.13"></path><path d="M 490.51 6.13 C 490.51 7.66 489.27 8.9 487.74 8.9 C 486.21 8.9 484.97 7.66 484.97 6.13 C 484.97 4.6 486.21 3.36 487.74 3.36 C 489.27 3.36 490.51 4.6 490.51 6.13 Z M 487.74 6.13"></path></g><g fill="#ECE133" stroke="#FFFFFF" stroke-dasharray="none" stroke-dashoffset="0.0pt" stroke-width="0.5pt" color="#ECE133"><path d="M 2.77 1.53 C 2.77 3.06 1.53 4.3 0 4.3 C -1.53 4.3 -2.77 3.06 -2.77 1.53 C -2.77 0 -1.53 -1.24 0 -1.24 C 1.53 -1.24 2.77 0 2.77 1.53 Z M 0 1.53"></path><path d="M 98.63 0 C 98.63 1.53 97.39 2.77 95.86 2.77 C 94.33 2.77 93.09 1.53 93.09 0 C 93.09 -1.53 94.33 -2.77 95.86 -2.77 C 97.39 -2.77 98.63 -1.53 98.63 0 Z M 95.86 0"></path><path d="M 164.07 0 C 164.07 1.53 162.83 2.77 161.3 2.77 C 159.77 2.77 158.53 1.53 158.53 0 C 158.53 -1.53 159.77 -2.77 161.3 -2.77 C 162.83 -2.77 164.07 -1.53 164.07 0 Z M 161.3 0"></path><path d="M 205.35 0 C 205.35 1.53 204.11 2.77 202.58 2.77 C 201.06 2.77 199.82 1.53 199.82 0 C 199.82 -1.53 201.06 -2.77 202.58 -2.77 C 204.11 -2.77 205.35 -1.53 205.35 0 Z M 202.58 0"></path><path d="M 246.64 0 C 246.64 1.53 245.4 2.77 243.87 2.77 C 242.34 2.77 241.1 1.53 241.1 0 C 241.1 -1.53 242.34 -2.77 243.87 -2.77 C 245.4 -2.77 246.64 -1.53 246.64 0 Z M 243.87 0"></path><path d="M 342.5 0 C 342.5 1.53 341.26 2.77 339.73 2.77 C 338.2 2.77 336.96 1.53 336.96 0 C 336.96 -1.53 338.2 -2.77 339.73 -2.77 C 341.26 -2.77 342.5 -1.53 342.5 0 Z M 339.73 0"></path><path d="M 407.93 0 C 407.93 1.53 406.7 2.77 405.17 2.77 C 403.64 2.77 402.4 1.53 402.4 0 C 402.4 -1.53 403.64 -2.77 405.17 -2.77 C 406.7 -2.77 407.93 -1.53 407.93 0 Z M 405.17 0"></path><path d="M 490.51 0 C 490.51 1.53 489.27 2.77 487.74 2.77 C 486.21 2.77 484.97 1.53 484.97 0 C 484.97 -1.53 486.21 -2.77 487.74 -2.77 C 489.27 -2.77 490.51 -1.53 490.51 0 Z M 487.74 0"></path></g><g fill="#56B4E9" stroke="#FFFFFF" stroke-dasharray="none" stroke-dashoffset="0.0pt" stroke-width="0.5pt" color="#56B4E9"><path d="M 342.5 3.06 C 342.5 4.59 341.26 5.83 339.73 5.83 C 338.2 5.83 336.96 4.59 336.96 3.06 C 336.96 1.54 338.2 0.3 339.73 0.3 C 341.26 0.3 342.5 1.54 342.5 3.06 Z M 339.73 3.06"></path><path d="M 407.93 6.13 C 407.93 7.66 406.7 8.9 405.17 8.9 C 403.64 8.9 402.4 7.66 402.4 6.13 C 402.4 4.6 403.64 3.36 405.17 3.36 C 406.7 3.36 407.93 4.6 407.93 6.13 Z M 405.17 6.13"></path><path d="M 490.51 3.06 C 490.51 4.59 489.27 5.83 487.74 5.83 C 486.21 5.83 484.97 4.59 484.97 3.06 C 484.97 1.54 486.21 0.3 487.74 0.3 C 489.27 0.3 490.51 1.54 490.51 3.06 Z M 487.74 3.06"></path></g><g transform="matrix(1.0 0.0 0.0 1.0 183.96 -39.51)" fill="#000000" stroke="#000000"><foreignObject width="120.21" height="12.3" transform="matrix(1 0 0 -1 0 16.6)" overflow="visible"><span id="S5.F5.2.pic1.14.14.14.14.14.1.1">Given Time Budget</span></foreignObject></g> <g transform="matrix(0.0 1.0 -1.0 0.0 -34.13 6.77)" fill="#000000" stroke="#000000"><foreignObject width="101.36" height="9.46" transform="matrix(1 0 0 -1 0 16.6)" overflow="visible"><span id="S5.F5.2.pic1.15.15.15.15.15.1.1">ROC AUC Wins</span></foreignObject></g></g></g></g></svg>
