<svg id="A2.F6.pic1" height="208.12" overflow="visible" version="1.1" width="588.03"><g transform="translate(0,208.12) matrix(1 0 0 -1 0 0) translate(97.47,0) translate(0,43.43)" fill="#000000" stroke="#000000" stroke-width="0.4pt"><g transform="matrix(1.0 0.0 0.0 1.0 -97.47 -43.43)"><g transform="matrix(1 0 0 1 0 0) translate(97.47,0) translate(0,178.01)"><g stroke-width="0.2pt" fill="#000000" stroke="#000000" color="#808080"><path d="M 0 -140.49 L 0 -134.58 M 33.65 -140.49 L 33.65 -134.58 M 67.29 -140.49 L 67.29 -134.58 M 100.94 -140.49 L 100.94 -134.58 M 134.58 -140.49 L 134.58 -134.58" style="fill:none"></path></g><g stroke-width="0.2pt" fill="#000000" stroke="#000000" color="#808080"><path d="M -5.91 -9.61 L 0 -9.61 M -5.91 -28.84 L 0 -28.84 M -5.91 -48.07 L 0 -48.07 M -5.91 -67.29 L 0 -67.29 M -5.91 -86.52 L 0 -86.52 M -5.91 -105.74 L 0 -105.74 M -5.91 -124.97 L 0 -124.97" style="fill:none"></path></g><g stroke="#000000" fill="#000000" stroke-width="0.4pt"><path d="M 0 0 L 0 -134.58 L 134.58 -134.58 L 134.58 0 L 0 0 Z" style="fill:none"></path><g transform="matrix(1.0 0.0 0.0 1.0 -3.46 -154.29)" fill="#000000" stroke="#000000"><foreignObject width="6.92" height="8.92" transform="matrix(1 0 0 -1 0 16.6)" overflow="visible"><math xmlns="http://www.w3.org/1998/Math/MathML" display="inline" data-latex="00"><semantics id="A2.F6.pic1.1.1.1.1.1.1.1.1.1.1.1.1.1.1.1.1.1.1.1.1.1.1.1.1.1.1.1.1.1.1.1.1.1.1.1.m1.1a"><mn id="A2.F6.pic1.1.1.1.1.1.1.1.1.1.1.1.1.1.1.1.1.1.1.1.1.1.1.1.1.1.1.1.1.1.1.1.1.1.1.1.m1.1.1" xref="A2.F6.pic1.1.1.1.1.1.1.1.1.1.1.1.1.1.1.1.1.1.1.1.1.1.1.1.1.1.1.1.1.1.1.1.1.1.1.1.m1.1.1.cmml">0</mn> <annotation-xml encoding="MathML-Content" id="A2.F6.pic1.1.1.1.1.1.1.1.1.1.1.1.1.1.1.1.1.1.1.1.1.1.1.1.1.1.1.1.1.1.1.1.1.1.1.1.m1.1b"><cn type="integer" id="A2.F6.pic1.1.1.1.1.1.1.1.1.1.1.1.1.1.1.1.1.1.1.1.1.1.1.1.1.1.1.1.1.1.1.1.1.1.1.1.m1.1.1.cmml" xref="A2.F6.pic1.1.1.1.1.1.1.1.1.1.1.1.1.1.1.1.1.1.1.1.1.1.1.1.1.1.1.1.1.1.1.1.1.1.1.1.m1.1.1">0</cn></annotation-xml></semantics></math></foreignObject></g> <g transform="matrix(1.0 0.0 0.0 1.0 20.19 -154.29)" fill="#000000" stroke="#000000"><foreignObject width="26.91" height="8.92" transform="matrix(1 0 0 -1 0 16.6)" overflow="visible"><math xmlns="http://www.w3.org/1998/Math/MathML" display="inline" data-latex="0.25"><semantics id="A2.F6.pic1.2.2.2.2.2.2.2.2.2.2.2.2.2.2.2.2.2.2.2.2.2.2.2.2.2.2.1.1.1.1.1.1.1.1.1.m1.1a"><mn id="A2.F6.pic1.2.2.2.2.2.2.2.2.2.2.2.2.2.2.2.2.2.2.2.2.2.2.2.2.2.2.1.1.1.1.1.1.1.1.1.m1.1.1" xref="A2.F6.pic1.2.2.2.2.2.2.2.2.2.2.2.2.2.2.2.2.2.2.2.2.2.2.2.2.2.2.1.1.1.1.1.1.1.1.1.m1.1.1.cmml">0.25</mn> <annotation-xml encoding="MathML-Content" id="A2.F6.pic1.2.2.2.2.2.2.2.2.2.2.2.2.2.2.2.2.2.2.2.2.2.2.2.2.2.2.1.1.1.1.1.1.1.1.1.m1.1b"><cn type="float" id="A2.F6.pic1.2.2.2.2.2.2.2.2.2.2.2.2.2.2.2.2.2.2.2.2.2.2.2.2.2.2.1.1.1.1.1.1.1.1.1.m1.1.1.cmml" xref="A2.F6.pic1.2.2.2.2.2.2.2.2.2.2.2.2.2.2.2.2.2.2.2.2.2.2.2.2.2.2.1.1.1.1.1.1.1.1.1.m1.1.1">0.25</cn></annotation-xml> <annotation encoding="application/x-tex" id="A2.F6.pic1.2.2.2.2.2.2.2.2.2.2.2.2.2.2.2.2.2.2.2.2.2.2.2.2.2.2.1.1.1.1.1.1.1.1.1.m1.1c">0.25</annotation></semantics></math></foreignObject></g> <g transform="matrix(1.0 0.0 0.0 1.0 57.3 -154.29)" fill="#000000" stroke="#000000"><foreignObject width="19.99" height="8.92" transform="matrix(1 0 0 -1 0 16.6)" overflow="visible"><math xmlns="http://www.w3.org/1998/Math/MathML" display="inline" data-latex="0.5"><semantics id="A2.F6.pic1.3.3.3.3.3.3.3.3.3.3.3.3.3.3.3.3.3.3.3.3.3.3.3.3.3.3.1.1.1.1.1.1.1.1.1.m1.1a"><mn id="A2.F6.pic1.3.3.3.3.3.3.3.3.3.3.3.3.3.3.3.3.3.3.3.3.3.3.3.3.3.3.1.1.1.1.1.1.1.1.1.m1.1.1" xref="A2.F6.pic1.3.3.3.3.3.3.3.3.3.3.3.3.3.3.3.3.3.3.3.3.3.3.3.3.3.3.1.1.1.1.1.1.1.1.1.m1.1.1.cmml">0.5</mn> <annotation-xml encoding="MathML-Content" id="A2.F6.pic1.3.3.3.3.3.3.3.3.3.3.3.3.3.3.3.3.3.3.3.3.3.3.3.3.3.3.1.1.1.1.1.1.1.1.1.m1.1b"><cn type="float" id="A2.F6.pic1.3.3.3.3.3.3.3.3.3.3.3.3.3.3.3.3.3.3.3.3.3.3.3.3.3.3.1.1.1.1.1.1.1.1.1.m1.1.1.cmml" xref="A2.F6.pic1.3.3.3.3.3.3.3.3.3.3.3.3.3.3.3.3.3.3.3.3.3.3.3.3.3.3.1.1.1.1.1.1.1.1.1.m1.1.1">0.5</cn></annotation-xml> <annotation encoding="application/x-tex" id="A2.F6.pic1.3.3.3.3.3.3.3.3.3.3.3.3.3.3.3.3.3.3.3.3.3.3.3.3.3.3.1.1.1.1.1.1.1.1.1.m1.1c">0.5</annotation></semantics></math></foreignObject></g> <g transform="matrix(1.0 0.0 0.0 1.0 87.49 -154.29)" fill="#000000" stroke="#000000"><foreignObject width="26.91" height="8.92" transform="matrix(1 0 0 -1 0 16.6)" overflow="visible"><math xmlns="http://www.w3.org/1998/Math/MathML" display="inline" data-latex="0.75"><semantics id="A2.F6.pic1.4.4.4.4.4.4.4.4.4.4.4.4.4.4.4.4.4.4.4.4.4.4.4.4.4.4.1.1.1.1.1.1.1.1.1.m1.1a"><mn id="A2.F6.pic1.4.4.4.4.4.4.4.4.4.4.4.4.4.4.4.4.4.4.4.4.4.4.4.4.4.4.1.1.1.1.1.1.1.1.1.m1.1.1" xref="A2.F6.pic1.4.4.4.4.4.4.4.4.4.4.4.4.4.4.4.4.4.4.4.4.4.4.4.4.4.4.1.1.1.1.1.1.1.1.1.m1.1.1.cmml">0.75</mn> <annotation-xml encoding="MathML-Content" id="A2.F6.pic1.4.4.4.4.4.4.4.4.4.4.4.4.4.4.4.4.4.4.4.4.4.4.4.4.4.4.1.1.1.1.1.1.1.1.1.m1.1b"><cn type="float" id="A2.F6.pic1.4.4.4.4.4.4.4.4.4.4.4.4.4.4.4.4.4.4.4.4.4.4.4.4.4.4.1.1.1.1.1.1.1.1.1.m1.1.1.cmml" xref="A2.F6.pic1.4.4.4.4.4.4.4.4.4.4.4.4.4.4.4.4.4.4.4.4.4.4.4.4.4.4.1.1.1.1.1.1.1.1.1.m1.1.1">0.75</cn></annotation-xml> <annotation encoding="application/x-tex" id="A2.F6.pic1.4.4.4.4.4.4.4.4.4.4.4.4.4.4.4.4.4.4.4.4.4.4.4.4.4.4.1.1.1.1.1.1.1.1.1.m1.1c">0.75</annotation></semantics></math></foreignObject></g> <g transform="matrix(1.0 0.0 0.0 1.0 131.13 -154.29)" fill="#000000" stroke="#000000"><foreignObject width="6.92" height="8.92" transform="matrix(1 0 0 -1 0 16.6)" overflow="visible"><math xmlns="http://www.w3.org/1998/Math/MathML" display="inline" data-latex="1"><semantics id="A2.F6.pic1.5.5.5.5.5.5.5.5.5.5.5.5.5.5.5.5.5.5.5.5.5.5.5.5.5.5.1.1.1.1.1.1.1.1.1.m1.1a"><mn id="A2.F6.pic1.5.5.5.5.5.5.5.5.5.5.5.5.5.5.5.5.5.5.5.5.5.5.5.5.5.5.1.1.1.1.1.1.1.1.1.m1.1.1" xref="A2.F6.pic1.5.5.5.5.5.5.5.5.5.5.5.5.5.5.5.5.5.5.5.5.5.5.5.5.5.5.1.1.1.1.1.1.1.1.1.m1.1.1.cmml">1</mn> <annotation-xml encoding="MathML-Content" id="A2.F6.pic1.5.5.5.5.5.5.5.5.5.5.5.5.5.5.5.5.5.5.5.5.5.5.5.5.5.5.1.1.1.1.1.1.1.1.1.m1.1b"><cn type="integer" id="A2.F6.pic1.5.5.5.5.5.5.5.5.5.5.5.5.5.5.5.5.5.5.5.5.5.5.5.5.5.5.1.1.1.1.1.1.1.1.1.m1.1.1.cmml" xref="A2.F6.pic1.5.5.5.5.5.5.5.5.5.5.5.5.5.5.5.5.5.5.5.5.5.5.5.5.5.5.1.1.1.1.1.1.1.1.1.m1.1.1">1</cn></annotation-xml> <annotation encoding="application/x-tex" id="A2.F6.pic1.5.5.5.5.5.5.5.5.5.5.5.5.5.5.5.5.5.5.5.5.5.5.5.5.5.5.1.1.1.1.1.1.1.1.1.m1.1c">1</annotation></semantics></math></foreignObject></g> <g transform="matrix(1.0 0.0 0.0 1.0 -63.07 -14.42)" fill="#000000" stroke="#000000"><foreignObject width="52.27" height="9.61" transform="matrix(1 0 0 -1 0 16.6)" overflow="visible"><span id="A2.F6.pic1.16.16.16.6.6.6.1.1">TabPFN</span></foreignObject></g> <g transform="matrix(1.0 0.0 0.0 1.0 -90.86 -33.64)" fill="#000000" stroke="#000000"><foreignObject width="80.06" height="9.61" transform="matrix(1 0 0 -1 0 16.6)" overflow="visible"><span id="A2.F6.pic1.17.17.17.7.7.7.1.1">Autosklearn2</span></foreignObject></g> <g transform="matrix(1.0 0.0 0.0 1.0 -74.21 -51.52)" fill="#000000" stroke="#000000"><foreignObject width="63.42" height="12.3" transform="matrix(1 0 0 -1 0 16.6)" overflow="visible"><span id="A2.F6.pic1.18.18.18.8.8.8.1.1">Autogluon</span></foreignObject></g> <g transform="matrix(1.0 0.0 0.0 1.0 -66.22 -72.1)" fill="#000000" stroke="#000000"><foreignObject width="55.04" height="9.61" transform="matrix(1 0 0 -1 0 16.6)" overflow="visible"><span id="A2.F6.pic1.19.19.19.9.9.9.1.1">Catboost</span></foreignObject></g> <g transform="matrix(1.0 0.0 0.0 1.0 -41.45 -91.24)" fill="#000000" stroke="#000000"><foreignObject width="30.65" height="9.46" transform="matrix(1 0 0 -1 0 16.6)" overflow="visible"><span id="A2.F6.pic1.20.20.20.10.10.10.1.1">XGB</span></foreignObject></g> <g transform="matrix(1.0 0.0 0.0 1.0 -52.79 -110.47)" fill="#000000" stroke="#000000"><foreignObject width="41.99" height="9.46" transform="matrix(1 0 0 -1 0 16.6)" overflow="visible"><span id="A2.F6.pic1.21.21.21.11.11.11.1.1">LGBM</span></foreignObject></g> <g transform="matrix(1.0 0.0 0.0 1.0 -92.86 -128.43)" fill="#000000" stroke="#000000"><foreignObject width="81.68" height="12.3" transform="matrix(1 0 0 -1 0 16.6)" overflow="visible"><span id="A2.F6.pic1.22.22.22.12.12.12.1.1">Reg. Cocktail</span></foreignObject></g> <clipPath id="pgfcp5"><path d="M 0 0 L 134.58 0 L 134.58 -134.58 L 0 -134.58 Z"></path></clipPath><g clip-path="url(#pgfcp5)"><g fill="#3274A1" stroke-width="1.0pt"><path d="M 0 -1.92 M 0 -1.92 L 0 -9.61 L 119.76 -9.61 L 119.76 -1.92 Z M 119.76 -9.61" style="stroke:none"></path></g><g></g><g fill="#3274A1" stroke-width="1.0pt"><path d="M 0 -21.15 M 0 -21.15 L 0 -28.84 L 103.48 -28.84 L 103.48 -21.15 Z M 103.48 -28.84" style="stroke:none"></path></g><g></g><g fill="#3274A1" stroke-width="1.0pt"><path d="M 0 -40.37 M 0 -40.37 L 0 -48.07 L 107.46 -48.07 L 107.46 -40.37 Z M 107.46 -48.07" style="stroke:none"></path></g><g></g><g fill="#3274A1" stroke-width="1.0pt"><path d="M 0 -59.6 M 0 -59.6 L 0 -67.29 L 85.71 -67.29 L 85.71 -59.6 Z M 85.71 -67.29" style="stroke:none"></path></g><g></g><g fill="#3274A1" stroke-width="1.0pt"><path d="M 0 -78.83 M 0 -78.83 L 0 -86.52 L 59.71 -86.52 L 59.71 -78.83 Z M 59.71 -86.52" style="stroke:none"></path></g><g></g><g fill="#3274A1" stroke-width="1.0pt"><path d="M 0 -98.05 M 0 -98.05 L 0 -105.74 L 40.33 -105.74 L 40.33 -98.05 Z M 40.33 -105.74" style="stroke:none"></path></g><g></g><g fill="#3274A1" stroke-width="1.0pt"><path d="M 0 -117.28 M 0 -117.28 L 0 -124.97 L 60.52 -124.97 L 60.52 -117.28 Z M 60.52 -124.97" style="stroke:none"></path></g><g></g><g fill="#E1812C" stroke-width="1.0pt"><path d="M 0 -9.61 M 0 -9.61 L 0 -17.3 L 78.44 -17.3 L 78.44 -9.61 Z M 78.44 -17.3" style="stroke:none"></path></g><g></g><g fill="#E1812C" stroke-width="1.0pt"><path d="M 0 -28.84 M 0 -28.84 L 0 -36.53 L 111.52 -36.53 L 111.52 -28.84 Z M 111.52 -36.53" style="stroke:none"></path></g><g></g><g fill="#E1812C" stroke-width="1.0pt"><path d="M 0 -48.07 M 0 -48.07 L 0 -55.76 L 109.48 -55.76 L 109.48 -48.07 Z M 109.48 -55.76" style="stroke:none"></path></g><g></g><g fill="#E1812C" stroke-width="1.0pt"><path d="M 0 -67.29 M 0 -67.29 L 0 -74.98 L 90.84 -74.98 L 90.84 -67.29 Z M 90.84 -74.98" style="stroke:none"></path></g><g></g><g fill="#E1812C" stroke-width="1.0pt"><path d="M 0 -86.52 M 0 -86.52 L 0 -94.21 L 100.46 -94.21 L 100.46 -86.52 Z M 100.46 -94.21" style="stroke:none"></path></g><g></g><g fill="#E1812C" stroke-width="1.0pt"><path d="M 0 -105.74 M 0 -105.74 L 0 -113.43 L 52.12 -113.43 L 52.12 -105.74 Z M 52.12 -113.43" style="stroke:none"></path></g><g></g><g fill="#E1812C" stroke-width="1.0pt"><path d="M 0 -124.97 M 0 -124.97 L 0 -132.66 L 43.74 -132.66 L 43.74 -124.97 Z M 43.74 -132.66" style="stroke:none"></path></g><g></g></g><g transform="matrix(1.0 0.0 0.0 1.0 -2.2 -173.4)" fill="#000000" stroke="#000000"><foreignObject width="139.75" height="9.61" transform="matrix(1 0 0 -1 0 16.6)" overflow="visible"><span id="A2.F6.pic1.23.23.23.13.13.13.1.1">Normalized ROC AUC</span></foreignObject></g> <g transform="matrix(1.0 0.0 0.0 1.0 -8.45 15.88)" fill="#000000" stroke="#000000"><foreignObject width="151.48" height="12.3" transform="matrix(1 0 0 -1 0 16.6)" overflow="visible"><span id="A2.F6.pic1.24.24.24.14.14.14.1.1">Has Categorical Features</span></foreignObject></g> <g fill="#FFFFFF" fill-opacity="0.8" stroke="#CCCCCC" stroke-opacity="1"><path d="M 72.07 -130.27 h 58.2 v 40.67 h -58.2 Z"></path></g><g fill="#FFFFFF" fill-opacity="0.8" stroke="#CCCCCC" stroke-opacity="1" transform="matrix(1.0 0.0 0.0 1.0 76.22 -127.5)"><g transform="matrix(1 0 0 -1 0 26.365)"><g transform="matrix(1 0 0 1 0 8.99)"><g transform="matrix(1 0 0 -1 0 0) translate(2.77,0)" fill="#3274A1" stroke-width="1.0pt"><path d="M -2.08 -2.77 h 4.15 v 11.07 h -4.15 Z M 6.23 -2.77 h 4.15 v 8.3 h -4.15 Z"></path></g><g transform="matrix(1 0 0 -1 14.11 0) translate(-0.28,0) matrix(1.0 0.0 0.0 1.0 3.04 -3.77)" fill="#000000" stroke="#000000"><foreignObject width="30.25" height="9.61" transform="matrix(1 0 0 -1 0 16.6)" overflow="visible"><span id="A2.F6.pic1.25.25.25.15.15.15.1.1.1.1.1">False</span></foreignObject></g></g> <g transform="matrix(1 0 0 1 0 26.59)"><g transform="matrix(1 0 0 -1 0 0) translate(2.77,0)" fill="#E1812C" stroke-width="1.0pt"><path d="M -2.08 -2.77 h 4.15 v 11.07 h -4.15 Z M 6.23 -2.77 h 4.15 v 8.3 h -4.15 Z"></path></g><g transform="matrix(1 0 0 -1 14.11 0) translate(-0.28,0) matrix(1.0 0.0 0.0 1.0 3.04 -3.69)" fill="#000000" stroke="#000000"><foreignObject width="28.1" height="9.46" transform="matrix(1 0 0 -1 0 16.6)" overflow="visible"><span id="A2.F6.pic1.26.26.26.16.16.16.2.2.1.1.1">True</span></foreignObject></g></g></g></g></g></g></g> <g transform="matrix(1.0 0.0 0.0 1.0 158.55 -43.43)"><g transform="matrix(1 0 0 1 0 0) translate(15.41,0) translate(0,178.01)"><g stroke-width="0.2pt" fill="#000000" stroke="#000000" color="#808080"><path d="M 0 -140.49 L 0 -134.58 M 33.65 -140.49 L 33.65 -134.58 M 67.29 -140.49 L 67.29 -134.58 M 100.94 -140.49 L 100.94 -134.58 M 134.58 -140.49 L 134.58 -134.58" style="fill:none"></path></g><g stroke-width="0.2pt" fill="#000000" stroke="#000000" color="#808080"><path d="M -5.91 -9.61 L 0 -9.61 M -5.91 -28.84 L 0 -28.84 M -5.91 -48.07 L 0 -48.07 M -5.91 -67.29 L 0 -67.29 M -5.91 -86.52 L 0 -86.52 M -5.91 -105.74 L 0 -105.74 M -5.91 -124.97 L 0 -124.97" style="fill:none"></path></g><g stroke="#000000" fill="#000000" stroke-width="0.4pt"><path d="M 0 0 L 0 -134.58 L 134.58 -134.58 L 134.58 0 L 0 0 Z" style="fill:none"></path><g transform="matrix(1.0 0.0 0.0 1.0 -3.46 -154.29)" fill="#000000" stroke="#000000"><foreignObject width="6.92" height="8.92" transform="matrix(1 0 0 -1 0 16.6)" overflow="visible"><math xmlns="http://www.w3.org/1998/Math/MathML" display="inline" data-latex="00"><semantics id="A2.F6.pic1.6.6.6.6.6.6.6.6.6.6.6.6.1.1.1.1.1.1.1.1.1.1.1.1.1.1.1.1.1.1.1.1.1.1.1.m1.1a"><mn id="A2.F6.pic1.6.6.6.6.6.6.6.6.6.6.6.6.1.1.1.1.1.1.1.1.1.1.1.1.1.1.1.1.1.1.1.1.1.1.1.m1.1.1" xref="A2.F6.pic1.6.6.6.6.6.6.6.6.6.6.6.6.1.1.1.1.1.1.1.1.1.1.1.1.1.1.1.1.1.1.1.1.1.1.1.m1.1.1.cmml">0</mn> <annotation-xml encoding="MathML-Content" id="A2.F6.pic1.6.6.6.6.6.6.6.6.6.6.6.6.1.1.1.1.1.1.1.1.1.1.1.1.1.1.1.1.1.1.1.1.1.1.1.m1.1b"><cn type="integer" id="A2.F6.pic1.6.6.6.6.6.6.6.6.6.6.6.6.1.1.1.1.1.1.1.1.1.1.1.1.1.1.1.1.1.1.1.1.1.1.1.m1.1.1.cmml" xref="A2.F6.pic1.6.6.6.6.6.6.6.6.6.6.6.6.1.1.1.1.1.1.1.1.1.1.1.1.1.1.1.1.1.1.1.1.1.1.1.m1.1.1">0</cn></annotation-xml></semantics></math></foreignObject></g> <g transform="matrix(1.0 0.0 0.0 1.0 20.19 -154.29)" fill="#000000" stroke="#000000"><foreignObject width="26.91" height="8.92" transform="matrix(1 0 0 -1 0 16.6)" overflow="visible"><math xmlns="http://www.w3.org/1998/Math/MathML" display="inline" data-latex="0.25"><semantics id="A2.F6.pic1.7.7.7.7.7.7.7.7.7.7.7.7.2.2.2.2.2.2.2.2.2.2.2.2.2.2.1.1.1.1.1.1.1.1.1.m1.1a"><mn id="A2.F6.pic1.7.7.7.7.7.7.7.7.7.7.7.7.2.2.2.2.2.2.2.2.2.2.2.2.2.2.1.1.1.1.1.1.1.1.1.m1.1.1" xref="A2.F6.pic1.7.7.7.7.7.7.7.7.7.7.7.7.2.2.2.2.2.2.2.2.2.2.2.2.2.2.1.1.1.1.1.1.1.1.1.m1.1.1.cmml">0.25</mn> <annotation-xml encoding="MathML-Content" id="A2.F6.pic1.7.7.7.7.7.7.7.7.7.7.7.7.2.2.2.2.2.2.2.2.2.2.2.2.2.2.1.1.1.1.1.1.1.1.1.m1.1b"><cn type="float" id="A2.F6.pic1.7.7.7.7.7.7.7.7.7.7.7.7.2.2.2.2.2.2.2.2.2.2.2.2.2.2.1.1.1.1.1.1.1.1.1.m1.1.1.cmml" xref="A2.F6.pic1.7.7.7.7.7.7.7.7.7.7.7.7.2.2.2.2.2.2.2.2.2.2.2.2.2.2.1.1.1.1.1.1.1.1.1.m1.1.1">0.25</cn></annotation-xml> <annotation encoding="application/x-tex" id="A2.F6.pic1.7.7.7.7.7.7.7.7.7.7.7.7.2.2.2.2.2.2.2.2.2.2.2.2.2.2.1.1.1.1.1.1.1.1.1.m1.1c">0.25</annotation></semantics></math></foreignObject></g> <g transform="matrix(1.0 0.0 0.0 1.0 57.3 -154.29)" fill="#000000" stroke="#000000"><foreignObject width="19.99" height="8.92" transform="matrix(1 0 0 -1 0 16.6)" overflow="visible"><math xmlns="http://www.w3.org/1998/Math/MathML" display="inline" data-latex="0.5"><semantics id="A2.F6.pic1.8.8.8.8.8.8.8.8.8.8.8.8.3.3.3.3.3.3.3.3.3.3.3.3.3.3.1.1.1.1.1.1.1.1.1.m1.1a"><mn id="A2.F6.pic1.8.8.8.8.8.8.8.8.8.8.8.8.3.3.3.3.3.3.3.3.3.3.3.3.3.3.1.1.1.1.1.1.1.1.1.m1.1.1" xref="A2.F6.pic1.8.8.8.8.8.8.8.8.8.8.8.8.3.3.3.3.3.3.3.3.3.3.3.3.3.3.1.1.1.1.1.1.1.1.1.m1.1.1.cmml">0.5</mn> <annotation-xml encoding="MathML-Content" id="A2.F6.pic1.8.8.8.8.8.8.8.8.8.8.8.8.3.3.3.3.3.3.3.3.3.3.3.3.3.3.1.1.1.1.1.1.1.1.1.m1.1b"><cn type="float" id="A2.F6.pic1.8.8.8.8.8.8.8.8.8.8.8.8.3.3.3.3.3.3.3.3.3.3.3.3.3.3.1.1.1.1.1.1.1.1.1.m1.1.1.cmml" xref="A2.F6.pic1.8.8.8.8.8.8.8.8.8.8.8.8.3.3.3.3.3.3.3.3.3.3.3.3.3.3.1.1.1.1.1.1.1.1.1.m1.1.1">0.5</cn></annotation-xml> <annotation encoding="application/x-tex" id="A2.F6.pic1.8.8.8.8.8.8.8.8.8.8.8.8.3.3.3.3.3.3.3.3.3.3.3.3.3.3.1.1.1.1.1.1.1.1.1.m1.1c">0.5</annotation></semantics></math></foreignObject></g> <g transform="matrix(1.0 0.0 0.0 1.0 87.49 -154.29)" fill="#000000" stroke="#000000"><foreignObject width="26.91" height="8.92" transform="matrix(1 0 0 -1 0 16.6)" overflow="visible"><math xmlns="http://www.w3.org/1998/Math/MathML" display="inline" data-latex="0.75"><semantics id="A2.F6.pic1.9.9.9.9.9.9.9.9.9.9.9.9.4.4.4.4.4.4.4.4.4.4.4.4.4.4.1.1.1.1.1.1.1.1.1.m1.1a"><mn id="A2.F6.pic1.9.9.9.9.9.9.9.9.9.9.9.9.4.4.4.4.4.4.4.4.4.4.4.4.4.4.1.1.1.1.1.1.1.1.1.m1.1.1" xref="A2.F6.pic1.9.9.9.9.9.9.9.9.9.9.9.9.4.4.4.4.4.4.4.4.4.4.4.4.4.4.1.1.1.1.1.1.1.1.1.m1.1.1.cmml">0.75</mn> <annotation-xml encoding="MathML-Content" id="A2.F6.pic1.9.9.9.9.9.9.9.9.9.9.9.9.4.4.4.4.4.4.4.4.4.4.4.4.4.4.1.1.1.1.1.1.1.1.1.m1.1b"><cn type="float" id="A2.F6.pic1.9.9.9.9.9.9.9.9.9.9.9.9.4.4.4.4.4.4.4.4.4.4.4.4.4.4.1.1.1.1.1.1.1.1.1.m1.1.1.cmml" xref="A2.F6.pic1.9.9.9.9.9.9.9.9.9.9.9.9.4.4.4.4.4.4.4.4.4.4.4.4.4.4.1.1.1.1.1.1.1.1.1.m1.1.1">0.75</cn></annotation-xml> <annotation encoding="application/x-tex" id="A2.F6.pic1.9.9.9.9.9.9.9.9.9.9.9.9.4.4.4.4.4.4.4.4.4.4.4.4.4.4.1.1.1.1.1.1.1.1.1.m1.1c">0.75</annotation></semantics></math></foreignObject></g> <g transform="matrix(1.0 0.0 0.0 1.0 131.13 -154.29)" fill="#000000" stroke="#000000"><foreignObject width="6.92" height="8.92" transform="matrix(1 0 0 -1 0 16.6)" overflow="visible"><math xmlns="http://www.w3.org/1998/Math/MathML" display="inline" data-latex="1"><semantics id="A2.F6.pic1.10.10.10.10.10.10.10.10.10.10.10.10.5.5.5.5.5.5.5.5.5.5.5.5.5.5.1.1.1.1.1.1.1.1.1.m1.1a"><mn id="A2.F6.pic1.10.10.10.10.10.10.10.10.10.10.10.10.5.5.5.5.5.5.5.5.5.5.5.5.5.5.1.1.1.1.1.1.1.1.1.m1.1.1" xref="A2.F6.pic1.10.10.10.10.10.10.10.10.10.10.10.10.5.5.5.5.5.5.5.5.5.5.5.5.5.5.1.1.1.1.1.1.1.1.1.m1.1.1.cmml">1</mn> <annotation-xml encoding="MathML-Content" id="A2.F6.pic1.10.10.10.10.10.10.10.10.10.10.10.10.5.5.5.5.5.5.5.5.5.5.5.5.5.5.1.1.1.1.1.1.1.1.1.m1.1b"><cn type="integer" id="A2.F6.pic1.10.10.10.10.10.10.10.10.10.10.10.10.5.5.5.5.5.5.5.5.5.5.5.5.5.5.1.1.1.1.1.1.1.1.1.m1.1.1.cmml" xref="A2.F6.pic1.10.10.10.10.10.10.10.10.10.10.10.10.5.5.5.5.5.5.5.5.5.5.5.5.5.5.1.1.1.1.1.1.1.1.1.m1.1.1">1</cn></annotation-xml> <annotation encoding="application/x-tex" id="A2.F6.pic1.10.10.10.10.10.10.10.10.10.10.10.10.5.5.5.5.5.5.5.5.5.5.5.5.5.5.1.1.1.1.1.1.1.1.1.m1.1c">1</annotation></semantics></math></foreignObject></g> <clipPath id="pgfcp6"><path d="M 0 0 L 134.58 0 L 134.58 -134.58 L 0 -134.58 Z"></path></clipPath><g clip-path="url(#pgfcp6)"><g fill="#3274A1" stroke-width="1.0pt"><path d="M 0 -1.92 M 0 -1.92 L 0 -9.61 L 113.43 -9.61 L 113.43 -1.92 Z M 113.43 -9.61" style="stroke:none"></path></g><g></g><g fill="#3274A1" stroke-width="1.0pt"><path d="M 0 -21.15 M 0 -21.15 L 0 -28.84 L 105.31 -28.84 L 105.31 -21.15 Z M 105.31 -28.84" style="stroke:none"></path></g><g></g><g fill="#3274A1" stroke-width="1.0pt"><path d="M 0 -40.37 M 0 -40.37 L 0 -48.07 L 107.29 -48.07 L 107.29 -40.37 Z M 107.29 -48.07" style="stroke:none"></path></g><g></g><g fill="#3274A1" stroke-width="1.0pt"><path d="M 0 -59.6 M 0 -59.6 L 0 -67.29 L 86.15 -67.29 L 86.15 -59.6 Z M 86.15 -67.29" style="stroke:none"></path></g><g></g><g fill="#3274A1" stroke-width="1.0pt"><path d="M 0 -78.83 M 0 -78.83 L 0 -86.52 L 72.38 -86.52 L 72.38 -78.83 Z M 72.38 -86.52" style="stroke:none"></path></g><g></g><g fill="#3274A1" stroke-width="1.0pt"><path d="M 0 -98.05 M 0 -98.05 L 0 -105.74 L 43.12 -105.74 L 43.12 -98.05 Z M 43.12 -105.74" style="stroke:none"></path></g><g></g><g fill="#3274A1" stroke-width="1.0pt"><path d="M 0 -117.28 M 0 -117.28 L 0 -124.97 L 50.04 -124.97 L 50.04 -117.28 Z M 50.04 -124.97" style="stroke:none"></path></g><g></g><g fill="#E1812C" stroke-width="1.0pt"><path d="M 0 -9.61 M 0 -9.61 L 0 -17.3 L 76.22 -17.3 L 76.22 -9.61 Z M 76.22 -17.3" style="stroke:none"></path></g><g></g><g fill="#E1812C" stroke-width="1.0pt"><path d="M 0 -28.84 M 0 -28.84 L 0 -36.53 L 109.57 -36.53 L 109.57 -28.84 Z M 109.57 -36.53" style="stroke:none"></path></g><g></g><g fill="#E1812C" stroke-width="1.0pt"><path d="M 0 -48.07 M 0 -48.07 L 0 -55.76 L 111.51 -55.76 L 111.51 -48.07 Z M 111.51 -55.76" style="stroke:none"></path></g><g></g><g fill="#E1812C" stroke-width="1.0pt"><path d="M 0 -67.29 M 0 -67.29 L 0 -74.98 L 92.5 -74.98 L 92.5 -67.29 Z M 92.5 -74.98" style="stroke:none"></path></g><g></g><g fill="#E1812C" stroke-width="1.0pt"><path d="M 0 -86.52 M 0 -86.52 L 0 -94.21 L 76.94 -94.21 L 76.94 -86.52 Z M 76.94 -94.21" style="stroke:none"></path></g><g></g><g fill="#E1812C" stroke-width="1.0pt"><path d="M 0 -105.74 M 0 -105.74 L 0 -113.43 L 48.84 -113.43 L 48.84 -105.74 Z M 48.84 -113.43" style="stroke:none"></path></g><g></g><g fill="#E1812C" stroke-width="1.0pt"><path d="M 0 -124.97 M 0 -124.97 L 0 -132.66 L 74.45 -132.66 L 74.45 -124.97 Z M 74.45 -132.66" style="stroke:none"></path></g><g></g></g><g transform="matrix(1.0 0.0 0.0 1.0 -2.2 -173.4)" fill="#000000" stroke="#000000"><foreignObject width="139.75" height="9.61" transform="matrix(1 0 0 -1 0 16.6)" overflow="visible"><span id="A2.F6.pic1.27.27.27.6.6.6.1.1">Normalized ROC AUC</span></foreignObject></g> <g transform="matrix(1.0 0.0 0.0 1.0 2.49 13.19)" fill="#000000" stroke="#000000"><foreignObject width="129.61" height="9.46" transform="matrix(1 0 0 -1 0 16.6)" overflow="visible"><span id="A2.F6.pic1.28.28.28.7.7.7.1.1">Has Nans in Features</span></foreignObject></g></g></g></g> <g transform="matrix(1.0 0.0 0.0 1.0 332.5 -43.43)"><g transform="matrix(1 0 0 1 0 0) translate(15.41,0) translate(0,178.01)"><g stroke-width="0.2pt" fill="#000000" stroke="#000000" color="#808080"><path d="M 0 -140.49 L 0 -134.58 M 33.65 -140.49 L 33.65 -134.58 M 67.29 -140.49 L 67.29 -134.58 M 100.94 -140.49 L 100.94 -134.58 M 134.58 -140.49 L 134.58 -134.58" style="fill:none"></path></g><g stroke-width="0.2pt" fill="#000000" stroke="#000000" color="#808080"><path d="M -5.91 -9.61 L 0 -9.61 M -5.91 -28.84 L 0 -28.84 M -5.91 -48.07 L 0 -48.07 M -5.91 -67.29 L 0 -67.29 M -5.91 -86.52 L 0 -86.52 M -5.91 -105.74 L 0 -105.74 M -5.91 -124.97 L 0 -124.97" style="fill:none"></path></g><g stroke="#000000" fill="#000000" stroke-width="0.4pt"><path d="M 0 0 L 0 -134.58 L 134.58 -134.58 L 134.58 0 L 0 0 Z" style="fill:none"></path><g transform="matrix(1.0 0.0 0.0 1.0 -3.46 -154.29)" fill="#000000" stroke="#000000"><foreignObject width="6.92" height="8.92" transform="matrix(1 0 0 -1 0 16.6)" overflow="visible"><math xmlns="http://www.w3.org/1998/Math/MathML" display="inline" data-latex="00"><semantics id="A2.F6.pic1.11.11.11.11.11.11.11.11.11.11.11.11.1.1.1.1.1.1.1.1.1.1.1.1.1.1.1.1.1.1.1.1.1.1.1.m1.1a"><mn id="A2.F6.pic1.11.11.11.11.11.11.11.11.11.11.11.11.1.1.1.1.1.1.1.1.1.1.1.1.1.1.1.1.1.1.1.1.1.1.1.m1.1.1" xref="A2.F6.pic1.11.11.11.11.11.11.11.11.11.11.11.11.1.1.1.1.1.1.1.1.1.1.1.1.1.1.1.1.1.1.1.1.1.1.1.m1.1.1.cmml">0</mn> <annotation-xml encoding="MathML-Content" id="A2.F6.pic1.11.11.11.11.11.11.11.11.11.11.11.11.1.1.1.1.1.1.1.1.1.1.1.1.1.1.1.1.1.1.1.1.1.1.1.m1.1b"><cn type="integer" id="A2.F6.pic1.11.11.11.11.11.11.11.11.11.11.11.11.1.1.1.1.1.1.1.1.1.1.1.1.1.1.1.1.1.1.1.1.1.1.1.m1.1.1.cmml" xref="A2.F6.pic1.11.11.11.11.11.11.11.11.11.11.11.11.1.1.1.1.1.1.1.1.1.1.1.1.1.1.1.1.1.1.1.1.1.1.1.m1.1.1">0</cn></annotation-xml></semantics></math></foreignObject></g> <g transform="matrix(1.0 0.0 0.0 1.0 20.19 -154.29)" fill="#000000" stroke="#000000"><foreignObject width="26.91" height="8.92" transform="matrix(1 0 0 -1 0 16.6)" overflow="visible"><math xmlns="http://www.w3.org/1998/Math/MathML" display="inline" data-latex="0.25"><semantics id="A2.F6.pic1.12.12.12.12.12.12.12.12.12.12.12.12.2.2.2.2.2.2.2.2.2.2.2.2.2.2.1.1.1.1.1.1.1.1.1.m1.1a"><mn id="A2.F6.pic1.12.12.12.12.12.12.12.12.12.12.12.12.2.2.2.2.2.2.2.2.2.2.2.2.2.2.1.1.1.1.1.1.1.1.1.m1.1.1" xref="A2.F6.pic1.12.12.12.12.12.12.12.12.12.12.12.12.2.2.2.2.2.2.2.2.2.2.2.2.2.2.1.1.1.1.1.1.1.1.1.m1.1.1.cmml">0.25</mn> <annotation-xml encoding="MathML-Content" id="A2.F6.pic1.12.12.12.12.12.12.12.12.12.12.12.12.2.2.2.2.2.2.2.2.2.2.2.2.2.2.1.1.1.1.1.1.1.1.1.m1.1b"><cn type="float" id="A2.F6.pic1.12.12.12.12.12.12.12.12.12.12.12.12.2.2.2.2.2.2.2.2.2.2.2.2.2.2.1.1.1.1.1.1.1.1.1.m1.1.1.cmml" xref="A2.F6.pic1.12.12.12.12.12.12.12.12.12.12.12.12.2.2.2.2.2.2.2.2.2.2.2.2.2.2.1.1.1.1.1.1.1.1.1.m1.1.1">0.25</cn></annotation-xml> <annotation encoding="application/x-tex" id="A2.F6.pic1.12.12.12.12.12.12.12.12.12.12.12.12.2.2.2.2.2.2.2.2.2.2.2.2.2.2.1.1.1.1.1.1.1.1.1.m1.1c">0.25</annotation></semantics></math></foreignObject></g> <g transform="matrix(1.0 0.0 0.0 1.0 57.3 -154.29)" fill="#000000" stroke="#000000"><foreignObject width="19.99" height="8.92" transform="matrix(1 0 0 -1 0 16.6)" overflow="visible"><math xmlns="http://www.w3.org/1998/Math/MathML" display="inline" data-latex="0.5"><semantics id="A2.F6.pic1.13.13.13.13.13.13.13.13.13.13.13.13.3.3.3.3.3.3.3.3.3.3.3.3.3.3.1.1.1.1.1.1.1.1.1.m1.1a"><mn id="A2.F6.pic1.13.13.13.13.13.13.13.13.13.13.13.13.3.3.3.3.3.3.3.3.3.3.3.3.3.3.1.1.1.1.1.1.1.1.1.m1.1.1" xref="A2.F6.pic1.13.13.13.13.13.13.13.13.13.13.13.13.3.3.3.3.3.3.3.3.3.3.3.3.3.3.1.1.1.1.1.1.1.1.1.m1.1.1.cmml">0.5</mn> <annotation-xml encoding="MathML-Content" id="A2.F6.pic1.13.13.13.13.13.13.13.13.13.13.13.13.3.3.3.3.3.3.3.3.3.3.3.3.3.3.1.1.1.1.1.1.1.1.1.m1.1b"><cn type="float" id="A2.F6.pic1.13.13.13.13.13.13.13.13.13.13.13.13.3.3.3.3.3.3.3.3.3.3.3.3.3.3.1.1.1.1.1.1.1.1.1.m1.1.1.cmml" xref="A2.F6.pic1.13.13.13.13.13.13.13.13.13.13.13.13.3.3.3.3.3.3.3.3.3.3.3.3.3.3.1.1.1.1.1.1.1.1.1.m1.1.1">0.5</cn></annotation-xml> <annotation encoding="application/x-tex" id="A2.F6.pic1.13.13.13.13.13.13.13.13.13.13.13.13.3.3.3.3.3.3.3.3.3.3.3.3.3.3.1.1.1.1.1.1.1.1.1.m1.1c">0.5</annotation></semantics></math></foreignObject></g> <g transform="matrix(1.0 0.0 0.0 1.0 87.49 -154.29)" fill="#000000" stroke="#000000"><foreignObject width="26.91" height="8.92" transform="matrix(1 0 0 -1 0 16.6)" overflow="visible"><math xmlns="http://www.w3.org/1998/Math/MathML" display="inline" data-latex="0.75"><semantics id="A2.F6.pic1.14.14.14.14.14.14.14.14.14.14.14.14.4.4.4.4.4.4.4.4.4.4.4.4.4.4.1.1.1.1.1.1.1.1.1.m1.1a"><mn id="A2.F6.pic1.14.14.14.14.14.14.14.14.14.14.14.14.4.4.4.4.4.4.4.4.4.4.4.4.4.4.1.1.1.1.1.1.1.1.1.m1.1.1" xref="A2.F6.pic1.14.14.14.14.14.14.14.14.14.14.14.14.4.4.4.4.4.4.4.4.4.4.4.4.4.4.1.1.1.1.1.1.1.1.1.m1.1.1.cmml">0.75</mn> <annotation-xml encoding="MathML-Content" id="A2.F6.pic1.14.14.14.14.14.14.14.14.14.14.14.14.4.4.4.4.4.4.4.4.4.4.4.4.4.4.1.1.1.1.1.1.1.1.1.m1.1b"><cn type="float" id="A2.F6.pic1.14.14.14.14.14.14.14.14.14.14.14.14.4.4.4.4.4.4.4.4.4.4.4.4.4.4.1.1.1.1.1.1.1.1.1.m1.1.1.cmml" xref="A2.F6.pic1.14.14.14.14.14.14.14.14.14.14.14.14.4.4.4.4.4.4.4.4.4.4.4.4.4.4.1.1.1.1.1.1.1.1.1.m1.1.1">0.75</cn></annotation-xml> <annotation encoding="application/x-tex" id="A2.F6.pic1.14.14.14.14.14.14.14.14.14.14.14.14.4.4.4.4.4.4.4.4.4.4.4.4.4.4.1.1.1.1.1.1.1.1.1.m1.1c">0.75</annotation></semantics></math></foreignObject></g> <g transform="matrix(1.0 0.0 0.0 1.0 131.13 -154.29)" fill="#000000" stroke="#000000"><foreignObject width="6.92" height="8.92" transform="matrix(1 0 0 -1 0 16.6)" overflow="visible"><math xmlns="http://www.w3.org/1998/Math/MathML" display="inline" data-latex="1"><semantics id="A2.F6.pic1.15.15.15.15.15.15.15.15.15.15.15.15.5.5.5.5.5.5.5.5.5.5.5.5.5.5.1.1.1.1.1.1.1.1.1.m1.1a"><mn id="A2.F6.pic1.15.15.15.15.15.15.15.15.15.15.15.15.5.5.5.5.5.5.5.5.5.5.5.5.5.5.1.1.1.1.1.1.1.1.1.m1.1.1" xref="A2.F6.pic1.15.15.15.15.15.15.15.15.15.15.15.15.5.5.5.5.5.5.5.5.5.5.5.5.5.5.1.1.1.1.1.1.1.1.1.m1.1.1.cmml">1</mn> <annotation-xml encoding="MathML-Content" id="A2.F6.pic1.15.15.15.15.15.15.15.15.15.15.15.15.5.5.5.5.5.5.5.5.5.5.5.5.5.5.1.1.1.1.1.1.1.1.1.m1.1b"><cn type="integer" id="A2.F6.pic1.15.15.15.15.15.15.15.15.15.15.15.15.5.5.5.5.5.5.5.5.5.5.5.5.5.5.1.1.1.1.1.1.1.1.1.m1.1.1.cmml" xref="A2.F6.pic1.15.15.15.15.15.15.15.15.15.15.15.15.5.5.5.5.5.5.5.5.5.5.5.5.5.5.1.1.1.1.1.1.1.1.1.m1.1.1">1</cn></annotation-xml> <annotation encoding="application/x-tex" id="A2.F6.pic1.15.15.15.15.15.15.15.15.15.15.15.15.5.5.5.5.5.5.5.5.5.5.5.5.5.5.1.1.1.1.1.1.1.1.1.m1.1c">1</annotation></semantics></math></foreignObject></g> <clipPath id="pgfcp7"><path d="M 0 0 L 134.58 0 L 134.58 -134.58 L 0 -134.58 Z"></path></clipPath><g clip-path="url(#pgfcp7)"><g fill="#3274A1" stroke-width="1.0pt"><path d="M 0 -1.92 M 0 -1.92 L 0 -9.61 L 105.22 -9.61 L 105.22 -1.92 Z M 105.22 -9.61" style="stroke:none"></path></g><g></g><g fill="#3274A1" stroke-width="1.0pt"><path d="M 0 -21.15 M 0 -21.15 L 0 -28.84 L 103.04 -28.84 L 103.04 -21.15 Z M 103.04 -28.84" style="stroke:none"></path></g><g></g><g fill="#3274A1" stroke-width="1.0pt"><path d="M 0 -40.37 M 0 -40.37 L 0 -48.07 L 108.48 -48.07 L 108.48 -40.37 Z M 108.48 -48.07" style="stroke:none"></path></g><g></g><g fill="#3274A1" stroke-width="1.0pt"><path d="M 0 -59.6 M 0 -59.6 L 0 -67.29 L 101.78 -67.29 L 101.78 -59.6 Z M 101.78 -67.29" style="stroke:none"></path></g><g></g><g fill="#3274A1" stroke-width="1.0pt"><path d="M 0 -78.83 M 0 -78.83 L 0 -86.52 L 75.39 -86.52 L 75.39 -78.83 Z M 75.39 -86.52" style="stroke:none"></path></g><g></g><g fill="#3274A1" stroke-width="1.0pt"><path d="M 0 -98.05 M 0 -98.05 L 0 -105.74 L 44.56 -105.74 L 44.56 -98.05 Z M 44.56 -105.74" style="stroke:none"></path></g><g></g><g fill="#3274A1" stroke-width="1.0pt"><path d="M 0 -117.28 M 0 -117.28 L 0 -124.97 L 56.68 -124.97 L 56.68 -117.28 Z M 56.68 -124.97" style="stroke:none"></path></g><g></g><g fill="#E1812C" stroke-width="1.0pt"><path d="M 0 -9.61 M 0 -9.61 L 0 -17.3 L 106.99 -17.3 L 106.99 -9.61 Z M 106.99 -17.3" style="stroke:none"></path></g><g></g><g fill="#E1812C" stroke-width="1.0pt"><path d="M 0 -28.84 M 0 -28.84 L 0 -36.53 L 110.24 -36.53 L 110.24 -28.84 Z M 110.24 -36.53" style="stroke:none"></path></g><g></g><g fill="#E1812C" stroke-width="1.0pt"><path d="M 0 -48.07 M 0 -48.07 L 0 -55.76 L 107.68 -55.76 L 107.68 -48.07 Z M 107.68 -55.76" style="stroke:none"></path></g><g></g><g fill="#E1812C" stroke-width="1.0pt"><path d="M 0 -67.29 M 0 -67.29 L 0 -74.98 L 68.65 -74.98 L 68.65 -67.29 Z M 68.65 -74.98" style="stroke:none"></path></g><g></g><g fill="#E1812C" stroke-width="1.0pt"><path d="M 0 -86.52 M 0 -86.52 L 0 -94.21 L 70.55 -94.21 L 70.55 -86.52 Z M 70.55 -94.21" style="stroke:none"></path></g><g></g><g fill="#E1812C" stroke-width="1.0pt"><path d="M 0 -105.74 M 0 -105.74 L 0 -113.43 L 43.87 -113.43 L 43.87 -105.74 Z M 43.87 -113.43" style="stroke:none"></path></g><g></g><g fill="#E1812C" stroke-width="1.0pt"><path d="M 0 -124.97 M 0 -124.97 L 0 -132.66 L 52.63 -132.66 L 52.63 -124.97 Z M 52.63 -132.66" style="stroke:none"></path></g><g></g></g><g transform="matrix(1.0 0.0 0.0 1.0 -2.2 -173.4)" fill="#000000" stroke="#000000"><foreignObject width="139.75" height="9.61" transform="matrix(1 0 0 -1 0 16.6)" overflow="visible"><span id="A2.F6.pic1.29.29.29.6.6.6.1.1">Normalized ROC AUC</span></foreignObject></g> <g transform="matrix(1.0 0.0 0.0 1.0 36.66 13.19)" fill="#000000" stroke="#000000"><foreignObject width="61.27" height="9.61" transform="matrix(1 0 0 -1 0 16.6)" overflow="visible"><span id="A2.F6.pic1.30.30.30.7.7.7.1.1">Multiclass</span></foreignObject></g></g></g></g></g></svg>
