<svg id="A2.F7.1.pic1" height="190.47" overflow="visible" version="1.1" width="560.92"><g transform="translate(0,190.47) matrix(1 0 0 -1 0 0) translate(61.27,0) translate(0,46.82) matrix(1.0 0.0 0.0 1.0 -61.27 -46.82)" fill="#000000" stroke="#000000" stroke-width="0.4pt"><g transform="matrix(1 0 0 1 0 0) translate(19.98,0) translate(0,46.82)"><g stroke-width="0.2pt" fill="#000000" stroke="#000000" color="#808080"><path d="M 41.29 -5.91 L 41.29 0 M 137.15 -5.91 L 137.15 0 M 243.87 -5.91 L 243.87 0 M 285.15 -5.91 L 285.15 0 M 381.02 -5.91 L 381.02 0 M 446.45 -5.91 L 446.45 0 M 529.02 -5.91 L 529.02 0" style="fill:none"></path></g><g stroke-width="0.2pt" fill="#000000" stroke="#000000" color="#808080"><path d="M 35.38 0 L 41.29 0 M 35.38 22.43 L 41.29 22.43 M 35.38 44.86 L 41.29 44.86 M 35.38 67.29 L 41.29 67.29 M 35.38 89.72 L 41.29 89.72 M 35.38 112.16 L 41.29 112.16 M 35.38 134.59 L 41.29 134.59" style="fill:none"></path></g><g stroke="#000000" fill="#000000" stroke-width="0.4pt"><path d="M 41.29 0 L 41.29 134.59 L 529.02 134.59 L 529.02 0 L 41.29 0 Z" style="fill:none"></path><g transform="matrix(1.0 0.0 0.0 1.0 35.1 -19.71)" fill="#000000" stroke="#000000"><foreignObject width="12.38" height="8.92" transform="matrix(1 0 0 -1 0 16.6)" overflow="visible"><span id="A2.F7.1.pic1.8.8.8.8.8.1.1">1s</span></foreignObject></g> <g transform="matrix(1.0 0.0 0.0 1.0 130.96 -19.71)" fill="#000000" stroke="#000000"><foreignObject width="12.38" height="8.92" transform="matrix(1 0 0 -1 0 16.6)" overflow="visible"><span id="A2.F7.1.pic1.9.9.9.9.9.1.1">5s</span></foreignObject></g> <g transform="matrix(1.0 0.0 0.0 1.0 234.22 -19.71)" fill="#000000" stroke="#000000"><foreignObject width="19.29" height="8.92" transform="matrix(1 0 0 -1 0 16.6)" overflow="visible"><span id="A2.F7.1.pic1.10.10.10.10.10.1.1">30s</span></foreignObject></g> <g transform="matrix(1.0 0.0 0.0 1.0 366.03 -20.04)" fill="#000000" stroke="#000000"><foreignObject width="29.98" height="9.24" transform="matrix(1 0 0 -1 0 16.6)" overflow="visible"><span id="A2.F7.1.pic1.11.11.11.11.11.1.1">5min</span></foreignObject></g> <g transform="matrix(1.0 0.0 0.0 1.0 521.72 -20.4)" fill="#000000" stroke="#000000"><foreignObject width="14.61" height="9.61" transform="matrix(1 0 0 -1 0 16.6)" overflow="visible"><span id="A2.F7.1.pic1.12.12.12.12.12.1.1">1h</span></foreignObject></g> <g transform="matrix(1.0 0.0 0.0 1.0 3.59 -4.46)" fill="#000000" stroke="#000000"><foreignObject width="26.91" height="8.92" transform="matrix(1 0 0 -1 0 16.6)" overflow="visible"><math xmlns="http://www.w3.org/1998/Math/MathML" display="inline" data-latex="0.84"><semantics id="A2.F7.1.pic1.1.1.1.1.1.1.1.1.1.1.1.1.1.1.1.1.1.1.1.1.1.1.1.1.1.1.1.1.1.1.1.1.1.1.1.m1.1a"><mn id="A2.F7.1.pic1.1.1.1.1.1.1.1.1.1.1.1.1.1.1.1.1.1.1.1.1.1.1.1.1.1.1.1.1.1.1.1.1.1.1.1.m1.1.1" xref="A2.F7.1.pic1.1.1.1.1.1.1.1.1.1.1.1.1.1.1.1.1.1.1.1.1.1.1.1.1.1.1.1.1.1.1.1.1.1.1.1.m1.1.1.cmml">0.84</mn> <annotation-xml encoding="MathML-Content" id="A2.F7.1.pic1.1.1.1.1.1.1.1.1.1.1.1.1.1.1.1.1.1.1.1.1.1.1.1.1.1.1.1.1.1.1.1.1.1.1.1.m1.1b"><cn type="float" id="A2.F7.1.pic1.1.1.1.1.1.1.1.1.1.1.1.1.1.1.1.1.1.1.1.1.1.1.1.1.1.1.1.1.1.1.1.1.1.1.1.m1.1.1.cmml" xref="A2.F7.1.pic1.1.1.1.1.1.1.1.1.1.1.1.1.1.1.1.1.1.1.1.1.1.1.1.1.1.1.1.1.1.1.1.1.1.1.1.m1.1.1">0.84</cn></annotation-xml> <annotation encoding="application/x-tex" id="A2.F7.1.pic1.1.1.1.1.1.1.1.1.1.1.1.1.1.1.1.1.1.1.1.1.1.1.1.1.1.1.1.1.1.1.1.1.1.1.1.m1.1c">0.84</annotation></semantics></math></foreignObject></g> <g transform="matrix(1.0 0.0 0.0 1.0 3.59 17.97)" fill="#000000" stroke="#000000"><foreignObject width="26.91" height="8.92" transform="matrix(1 0 0 -1 0 16.6)" overflow="visible"><math xmlns="http://www.w3.org/1998/Math/MathML" display="inline" data-latex="0.85"><semantics id="A2.F7.1.pic1.2.2.2.2.2.2.2.2.2.2.2.2.2.2.2.2.2.2.2.2.2.2.2.2.2.2.1.1.1.1.1.1.1.1.1.m1.1a"><mn id="A2.F7.1.pic1.2.2.2.2.2.2.2.2.2.2.2.2.2.2.2.2.2.2.2.2.2.2.2.2.2.2.1.1.1.1.1.1.1.1.1.m1.1.1" xref="A2.F7.1.pic1.2.2.2.2.2.2.2.2.2.2.2.2.2.2.2.2.2.2.2.2.2.2.2.2.2.2.1.1.1.1.1.1.1.1.1.m1.1.1.cmml">0.85</mn> <annotation-xml encoding="MathML-Content" id="A2.F7.1.pic1.2.2.2.2.2.2.2.2.2.2.2.2.2.2.2.2.2.2.2.2.2.2.2.2.2.2.1.1.1.1.1.1.1.1.1.m1.1b"><cn type="float" id="A2.F7.1.pic1.2.2.2.2.2.2.2.2.2.2.2.2.2.2.2.2.2.2.2.2.2.2.2.2.2.2.1.1.1.1.1.1.1.1.1.m1.1.1.cmml" xref="A2.F7.1.pic1.2.2.2.2.2.2.2.2.2.2.2.2.2.2.2.2.2.2.2.2.2.2.2.2.2.2.1.1.1.1.1.1.1.1.1.m1.1.1">0.85</cn></annotation-xml> <annotation encoding="application/x-tex" id="A2.F7.1.pic1.2.2.2.2.2.2.2.2.2.2.2.2.2.2.2.2.2.2.2.2.2.2.2.2.2.2.1.1.1.1.1.1.1.1.1.m1.1c">0.85</annotation></semantics></math></foreignObject></g> <g transform="matrix(1.0 0.0 0.0 1.0 3.59 40.4)" fill="#000000" stroke="#000000"><foreignObject width="26.91" height="8.92" transform="matrix(1 0 0 -1 0 16.6)" overflow="visible"><math xmlns="http://www.w3.org/1998/Math/MathML" display="inline" data-latex="0.86"><semantics id="A2.F7.1.pic1.3.3.3.3.3.3.3.3.3.3.3.3.3.3.3.3.3.3.3.3.3.3.3.3.3.3.1.1.1.1.1.1.1.1.1.m1.1a"><mn id="A2.F7.1.pic1.3.3.3.3.3.3.3.3.3.3.3.3.3.3.3.3.3.3.3.3.3.3.3.3.3.3.1.1.1.1.1.1.1.1.1.m1.1.1" xref="A2.F7.1.pic1.3.3.3.3.3.3.3.3.3.3.3.3.3.3.3.3.3.3.3.3.3.3.3.3.3.3.1.1.1.1.1.1.1.1.1.m1.1.1.cmml">0.86</mn> <annotation-xml encoding="MathML-Content" id="A2.F7.1.pic1.3.3.3.3.3.3.3.3.3.3.3.3.3.3.3.3.3.3.3.3.3.3.3.3.3.3.1.1.1.1.1.1.1.1.1.m1.1b"><cn type="float" id="A2.F7.1.pic1.3.3.3.3.3.3.3.3.3.3.3.3.3.3.3.3.3.3.3.3.3.3.3.3.3.3.1.1.1.1.1.1.1.1.1.m1.1.1.cmml" xref="A2.F7.1.pic1.3.3.3.3.3.3.3.3.3.3.3.3.3.3.3.3.3.3.3.3.3.3.3.3.3.3.1.1.1.1.1.1.1.1.1.m1.1.1">0.86</cn></annotation-xml> <annotation encoding="application/x-tex" id="A2.F7.1.pic1.3.3.3.3.3.3.3.3.3.3.3.3.3.3.3.3.3.3.3.3.3.3.3.3.3.3.1.1.1.1.1.1.1.1.1.m1.1c">0.86</annotation></semantics></math></foreignObject></g> <g transform="matrix(1.0 0.0 0.0 1.0 3.59 62.83)" fill="#000000" stroke="#000000"><foreignObject width="26.91" height="8.92" transform="matrix(1 0 0 -1 0 16.6)" overflow="visible"><math xmlns="http://www.w3.org/1998/Math/MathML" display="inline" data-latex="0.87"><semantics id="A2.F7.1.pic1.4.4.4.4.4.4.4.4.4.4.4.4.4.4.4.4.4.4.4.4.4.4.4.4.4.4.1.1.1.1.1.1.1.1.1.m1.1a"><mn id="A2.F7.1.pic1.4.4.4.4.4.4.4.4.4.4.4.4.4.4.4.4.4.4.4.4.4.4.4.4.4.4.1.1.1.1.1.1.1.1.1.m1.1.1" xref="A2.F7.1.pic1.4.4.4.4.4.4.4.4.4.4.4.4.4.4.4.4.4.4.4.4.4.4.4.4.4.4.1.1.1.1.1.1.1.1.1.m1.1.1.cmml">0.87</mn> <annotation-xml encoding="MathML-Content" id="A2.F7.1.pic1.4.4.4.4.4.4.4.4.4.4.4.4.4.4.4.4.4.4.4.4.4.4.4.4.4.4.1.1.1.1.1.1.1.1.1.m1.1b"><cn type="float" id="A2.F7.1.pic1.4.4.4.4.4.4.4.4.4.4.4.4.4.4.4.4.4.4.4.4.4.4.4.4.4.4.1.1.1.1.1.1.1.1.1.m1.1.1.cmml" xref="A2.F7.1.pic1.4.4.4.4.4.4.4.4.4.4.4.4.4.4.4.4.4.4.4.4.4.4.4.4.4.4.1.1.1.1.1.1.1.1.1.m1.1.1">0.87</cn></annotation-xml> <annotation encoding="application/x-tex" id="A2.F7.1.pic1.4.4.4.4.4.4.4.4.4.4.4.4.4.4.4.4.4.4.4.4.4.4.4.4.4.4.1.1.1.1.1.1.1.1.1.m1.1c">0.87</annotation></semantics></math></foreignObject></g> <g transform="matrix(1.0 0.0 0.0 1.0 3.59 85.27)" fill="#000000" stroke="#000000"><foreignObject width="26.91" height="8.92" transform="matrix(1 0 0 -1 0 16.6)" overflow="visible"><math xmlns="http://www.w3.org/1998/Math/MathML" display="inline" data-latex="0.88"><semantics id="A2.F7.1.pic1.5.5.5.5.5.5.5.5.5.5.5.5.5.5.5.5.5.5.5.5.5.5.5.5.5.5.1.1.1.1.1.1.1.1.1.m1.1a"><mn id="A2.F7.1.pic1.5.5.5.5.5.5.5.5.5.5.5.5.5.5.5.5.5.5.5.5.5.5.5.5.5.5.1.1.1.1.1.1.1.1.1.m1.1.1" xref="A2.F7.1.pic1.5.5.5.5.5.5.5.5.5.5.5.5.5.5.5.5.5.5.5.5.5.5.5.5.5.5.1.1.1.1.1.1.1.1.1.m1.1.1.cmml">0.88</mn> <annotation-xml encoding="MathML-Content" id="A2.F7.1.pic1.5.5.5.5.5.5.5.5.5.5.5.5.5.5.5.5.5.5.5.5.5.5.5.5.5.5.1.1.1.1.1.1.1.1.1.m1.1b"><cn type="float" id="A2.F7.1.pic1.5.5.5.5.5.5.5.5.5.5.5.5.5.5.5.5.5.5.5.5.5.5.5.5.5.5.1.1.1.1.1.1.1.1.1.m1.1.1.cmml" xref="A2.F7.1.pic1.5.5.5.5.5.5.5.5.5.5.5.5.5.5.5.5.5.5.5.5.5.5.5.5.5.5.1.1.1.1.1.1.1.1.1.m1.1.1">0.88</cn></annotation-xml> <annotation encoding="application/x-tex" id="A2.F7.1.pic1.5.5.5.5.5.5.5.5.5.5.5.5.5.5.5.5.5.5.5.5.5.5.5.5.5.5.1.1.1.1.1.1.1.1.1.m1.1c">0.88</annotation></semantics></math></foreignObject></g> <g transform="matrix(1.0 0.0 0.0 1.0 3.59 107.7)" fill="#000000" stroke="#000000"><foreignObject width="26.91" height="8.92" transform="matrix(1 0 0 -1 0 16.6)" overflow="visible"><math xmlns="http://www.w3.org/1998/Math/MathML" display="inline" data-latex="0.89"><semantics id="A2.F7.1.pic1.6.6.6.6.6.6.6.6.6.6.6.6.6.6.6.6.6.6.6.6.6.6.6.6.6.6.1.1.1.1.1.1.1.1.1.m1.1a"><mn id="A2.F7.1.pic1.6.6.6.6.6.6.6.6.6.6.6.6.6.6.6.6.6.6.6.6.6.6.6.6.6.6.1.1.1.1.1.1.1.1.1.m1.1.1" xref="A2.F7.1.pic1.6.6.6.6.6.6.6.6.6.6.6.6.6.6.6.6.6.6.6.6.6.6.6.6.6.6.1.1.1.1.1.1.1.1.1.m1.1.1.cmml">0.89</mn> <annotation-xml encoding="MathML-Content" id="A2.F7.1.pic1.6.6.6.6.6.6.6.6.6.6.6.6.6.6.6.6.6.6.6.6.6.6.6.6.6.6.1.1.1.1.1.1.1.1.1.m1.1b"><cn type="float" id="A2.F7.1.pic1.6.6.6.6.6.6.6.6.6.6.6.6.6.6.6.6.6.6.6.6.6.6.6.6.6.6.1.1.1.1.1.1.1.1.1.m1.1.1.cmml" xref="A2.F7.1.pic1.6.6.6.6.6.6.6.6.6.6.6.6.6.6.6.6.6.6.6.6.6.6.6.6.6.6.1.1.1.1.1.1.1.1.1.m1.1.1">0.89</cn></annotation-xml> <annotation encoding="application/x-tex" id="A2.F7.1.pic1.6.6.6.6.6.6.6.6.6.6.6.6.6.6.6.6.6.6.6.6.6.6.6.6.6.6.1.1.1.1.1.1.1.1.1.m1.1c">0.89</annotation></semantics></math></foreignObject></g> <g transform="matrix(1.0 0.0 0.0 1.0 10.5 130.13)" fill="#000000" stroke="#000000"><foreignObject width="19.99" height="8.92" transform="matrix(1 0 0 -1 0 16.6)" overflow="visible"><math xmlns="http://www.w3.org/1998/Math/MathML" display="inline" data-latex="0.9"><semantics id="A2.F7.1.pic1.7.7.7.7.7.7.7.7.7.7.7.7.7.7.7.7.7.7.7.7.7.7.7.7.7.7.1.1.1.1.1.1.1.1.1.m1.1a"><mn id="A2.F7.1.pic1.7.7.7.7.7.7.7.7.7.7.7.7.7.7.7.7.7.7.7.7.7.7.7.7.7.7.1.1.1.1.1.1.1.1.1.m1.1.1" xref="A2.F7.1.pic1.7.7.7.7.7.7.7.7.7.7.7.7.7.7.7.7.7.7.7.7.7.7.7.7.7.7.1.1.1.1.1.1.1.1.1.m1.1.1.cmml">0.9</mn> <annotation-xml encoding="MathML-Content" id="A2.F7.1.pic1.7.7.7.7.7.7.7.7.7.7.7.7.7.7.7.7.7.7.7.7.7.7.7.7.7.7.1.1.1.1.1.1.1.1.1.m1.1b"><cn type="float" id="A2.F7.1.pic1.7.7.7.7.7.7.7.7.7.7.7.7.7.7.7.7.7.7.7.7.7.7.7.7.7.7.1.1.1.1.1.1.1.1.1.m1.1.1.cmml" xref="A2.F7.1.pic1.7.7.7.7.7.7.7.7.7.7.7.7.7.7.7.7.7.7.7.7.7.7.7.7.7.7.1.1.1.1.1.1.1.1.1.m1.1.1">0.9</cn></annotation-xml> <annotation encoding="application/x-tex" id="A2.F7.1.pic1.7.7.7.7.7.7.7.7.7.7.7.7.7.7.7.7.7.7.7.7.7.7.7.7.7.7.1.1.1.1.1.1.1.1.1.m1.1c">0.9</annotation></semantics></math></foreignObject></g> <clipPath id="pgfcp8"><path d="M 41.29 0 L 529.02 0 L 529.02 134.59 L 41.29 134.59 Z"></path></clipPath><g clip-path="url(#pgfcp8)"><g stroke="#0173B2" fill="#0173B2" fill-opacity="0.1" stroke-opacity="0.1" stroke-width="1.0pt"><path d="M 0 26.41 L 0 12.25 L 41.29 11.95 L 137.15 12.08 L 202.58 12.48 L 243.87 12.48 L 285.15 12.07 L 381.02 12.8 L 446.45 12.05 L 529.02 12.48 L 611.59 12.48 L 611.59 26.15 L 611.59 26.15 L 529.02 25.62 L 446.45 26.15 L 381.02 25.35 L 285.15 25.62 L 243.87 26.15 L 202.58 25.35 L 137.15 26.16 L 41.29 25.61 L 0 26.41 Z"></path></g><g></g><g stroke="#DE8F05" fill="#DE8F05" fill-opacity="0.1" stroke-opacity="0.1" stroke-width="1.0pt"><path d="M 381.02 98.31 L 381.02 82.23 L 446.45 94.19 L 529.02 91.8 L 529.02 98.87 L 529.02 98.87 L 446.45 99.66 L 381.02 98.31 Z"></path></g><g></g><g stroke="#029E73" fill="#029E73" fill-opacity="0.1" stroke-opacity="0.1" stroke-width="1.0pt"><path d="M 0 91.57 L 0 82.92 L 41.29 84.49 L 137.15 83.79 L 202.58 88.9 L 243.87 89.69 L 285.15 84.99 L 381.02 86.76 L 446.45 86.31 L 529.02 87.98 L 611.59 87.98 L 611.59 94.61 L 611.59 94.61 L 529.02 94.61 L 446.45 96.41 L 381.02 96.04 L 285.15 96.74 L 243.87 95.98 L 202.58 97.09 L 137.15 92.17 L 41.29 93.13 L 0 91.57 Z"></path></g><g></g><g stroke="#CC78BC" fill="#CC78BC" fill-opacity="0.1" stroke-opacity="0.1" stroke-width="1.0pt"><path d="M 381.02 104.18 L 381.02 94.68 L 446.45 102.76 L 529.02 108.8 L 529.02 114.4 L 529.02 114.4 L 446.45 111.75 L 381.02 104.18 Z"></path></g><g></g><g stroke="#CA9161" fill="#CA9161" fill-opacity="0.1" stroke-opacity="0.1" stroke-width="1.0pt"><path d="M 381.02 81.94 L 381.02 72.33 L 446.45 75.52 L 529.02 72.43 L 529.02 82.37 L 529.02 82.37 L 446.45 79.15 L 381.02 81.94 Z"></path></g><g></g><g stroke="#FBAFE4" fill="#FBAFE4" fill-opacity="0.1" stroke-opacity="0.1" stroke-width="1.0pt"><path d="M 137.15 81.16 L 137.15 16.66 L 202.58 71.4 L 243.87 89.62 L 285.15 92 L 381.02 91.59 L 446.45 94.63 L 529.02 93.36 L 529.02 103.72 L 529.02 103.72 L 446.45 104.06 L 381.02 102.19 L 285.15 101.1 L 243.87 100.23 L 202.58 93.29 L 137.15 81.16 Z"></path></g><g></g><g stroke="#7F7F7F" fill="#7F7F7F" fill-opacity="0.1" stroke-opacity="0.1" stroke-width="1.0pt"><path d="M 285.15 113.21 L 285.15 54.38 L 381.02 105.44 L 446.45 108.66 L 529.02 110.69 L 529.02 117.81 L 529.02 117.81 L 446.45 116.23 L 381.02 116.36 L 285.15 113.21 Z"></path></g><g></g><g stroke="#ECE133" fill="#ECE133" fill-opacity="0.1" stroke-opacity="0.1" stroke-width="1.0pt"><path d="M 285.15 119.13 L 285.15 111.28 L 381.02 112.94 L 446.45 112.49 L 529.02 115.82 L 529.02 128.42 L 529.02 128.42 L 446.45 125.8 L 381.02 123.95 L 285.15 119.13 Z"></path></g><g></g><g stroke="#56B4E9" fill="#56B4E9" fill-opacity="0.1" stroke-opacity="0.1" stroke-width="1.0pt"><path d="M 285.15 118.72 L 285.15 111.41 L 381.02 121.19 L 446.45 119.36 L 529.02 117.35 L 529.02 125.73 L 529.02 125.73 L 446.45 127.74 L 381.02 126.78 L 285.15 118.72 Z"></path></g><g></g><g stroke-width="1.5pt" fill="#0173B2" stroke="#0173B2" color="#0173B2"><path d="M 0 19.22 L 41.29 19.06 L 137.15 19.29 L 202.58 19.28 L 243.87 19.28 L 285.15 19.28 L 381.02 19.28 L 446.45 19.28 L 529.02 19.28 L 611.59 19.28" style="fill:none"></path></g><g></g><g stroke-width="1.5pt" fill="#DE8F05" stroke="#DE8F05" color="#DE8F05"><path d="M 381.02 90.26 L 446.45 97.1 L 529.02 95.32" style="fill:none"></path></g><g></g><g stroke-width="1.5pt" fill="#029E73" stroke="#029E73" color="#029E73"><path d="M 0 87.39 L 41.29 88.81 L 137.15 88.5 L 202.58 93.13 L 243.87 93.04 L 285.15 90.71 L 381.02 91.34 L 446.45 91.36 L 529.02 90.97 L 611.59 90.97" style="fill:none"></path></g><g></g><g stroke-width="1.5pt" fill="#D55E00" stroke="#D55E00" stroke-dasharray="3.0pt,3.0pt" stroke-dashoffset="0.0pt" color="#D55E00"><path d="M 41.29 121.86" style="fill:none"></path></g><g></g><g stroke-width="1.5pt" fill="#D55E00" stroke="#D55E00" stroke-dasharray="3.0pt,3.0pt" stroke-dashoffset="0.0pt" color="#D55E00"><path d="M 5.68 121.84 L 611.59 121.84" style="fill:none"></path></g><g></g><g stroke-width="1.5pt" fill="#CC78BC" stroke="#CC78BC" color="#CC78BC"><path d="M 381.02 99.21 L 446.45 106.88 L 529.02 111.6" style="fill:none"></path></g><g></g><g stroke-width="1.5pt" fill="#CA9161" stroke="#CA9161" color="#CA9161"><path d="M 381.02 77.14 L 446.45 77.34 L 529.02 76.54" style="fill:none"></path></g><g></g><g stroke-width="1.5pt" fill="#FBAFE4" stroke="#FBAFE4" color="#FBAFE4"><path d="M 137.15 50.98 L 202.58 82.89 L 243.87 94.56 L 285.15 96.55 L 381.02 96.8 L 446.45 99.52 L 529.02 98.62" style="fill:none"></path></g><g></g><g stroke-width="1.5pt" fill="#7F7F7F" stroke="#7F7F7F" color="#7F7F7F"><path d="M 285.15 91.18 L 381.02 110.83 L 446.45 113.1 L 529.02 114.25" style="fill:none"></path></g><g></g><g stroke-width="1.5pt" fill="#ECE133" stroke="#ECE133" color="#ECE133"><path d="M 285.15 115.19 L 381.02 118.82 L 446.45 119.99 L 529.02 122.66" style="fill:none"></path></g><g></g><g stroke-width="1.5pt" fill="#56B4E9" stroke="#56B4E9" color="#56B4E9"><path d="M 285.15 115.78 L 381.02 123.99 L 446.45 123.55 L 529.02 121.97" style="fill:none"></path></g><g></g></g><g fill="#0173B2" stroke="#FFFFFF" stroke-dasharray="none" stroke-dashoffset="0.0pt" stroke-width="0.5pt" color="#0173B2"><path d="M 44.05 19.06 C 44.05 20.59 42.81 21.83 41.29 21.83 C 39.76 21.83 38.52 20.59 38.52 19.06 C 38.52 17.54 39.76 16.3 41.29 16.3 C 42.81 16.3 44.05 17.54 44.05 19.06 Z M 41.29 19.06"></path><path d="M 139.91 19.29 C 139.91 20.82 138.68 22.06 137.15 22.06 C 135.62 22.06 134.38 20.82 134.38 19.29 C 134.38 17.76 135.62 16.52 137.15 16.52 C 138.68 16.52 139.91 17.76 139.91 19.29 Z M 137.15 19.29"></path><path d="M 205.35 19.28 C 205.35 20.81 204.11 22.05 202.58 22.05 C 201.06 22.05 199.82 20.81 199.82 19.28 C 199.82 17.75 201.06 16.51 202.58 16.51 C 204.11 16.51 205.35 17.75 205.35 19.28 Z M 202.58 19.28"></path><path d="M 246.64 19.28 C 246.64 20.81 245.4 22.05 243.87 22.05 C 242.34 22.05 241.1 20.81 241.1 19.28 C 241.1 17.75 242.34 16.51 243.87 16.51 C 245.4 16.51 246.64 17.75 246.64 19.28 Z M 243.87 19.28"></path><path d="M 287.92 19.28 C 287.92 20.81 286.68 22.05 285.15 22.05 C 283.63 22.05 282.39 20.81 282.39 19.28 C 282.39 17.75 283.63 16.51 285.15 16.51 C 286.68 16.51 287.92 17.75 287.92 19.28 Z M 285.15 19.28"></path><path d="M 383.78 19.28 C 383.78 20.81 382.54 22.05 381.02 22.05 C 379.49 22.05 378.25 20.81 378.25 19.28 C 378.25 17.75 379.49 16.51 381.02 16.51 C 382.54 16.51 383.78 17.75 383.78 19.28 Z M 381.02 19.28"></path><path d="M 449.22 19.28 C 449.22 20.81 447.98 22.05 446.45 22.05 C 444.92 22.05 443.69 20.81 443.69 19.28 C 443.69 17.75 444.92 16.51 446.45 16.51 C 447.98 16.51 449.22 17.75 449.22 19.28 Z M 446.45 19.28"></path><path d="M 531.79 19.28 C 531.79 20.81 530.55 22.05 529.02 22.05 C 527.5 22.05 526.26 20.81 526.26 19.28 C 526.26 17.75 527.5 16.51 529.02 16.51 C 530.55 16.51 531.79 17.75 531.79 19.28 Z M 529.02 19.28"></path></g><g fill="#DE8F05" stroke="#FFFFFF" stroke-dasharray="none" stroke-dashoffset="0.0pt" stroke-width="0.5pt" color="#DE8F05"><path d="M 383.78 90.26 C 383.78 91.79 382.54 93.03 381.02 93.03 C 379.49 93.03 378.25 91.79 378.25 90.26 C 378.25 88.73 379.49 87.49 381.02 87.49 C 382.54 87.49 383.78 88.73 383.78 90.26 Z M 381.02 90.26"></path><path d="M 449.22 97.1 C 449.22 98.63 447.98 99.87 446.45 99.87 C 444.92 99.87 443.69 98.63 443.69 97.1 C 443.69 95.58 444.92 94.34 446.45 94.34 C 447.98 94.34 449.22 95.58 449.22 97.1 Z M 446.45 97.1"></path><path d="M 531.79 95.32 C 531.79 96.85 530.55 98.09 529.02 98.09 C 527.5 98.09 526.26 96.85 526.26 95.32 C 526.26 93.79 527.5 92.55 529.02 92.55 C 530.55 92.55 531.79 93.79 531.79 95.32 Z M 529.02 95.32"></path></g><g fill="#029E73" stroke="#FFFFFF" stroke-dasharray="none" stroke-dashoffset="0.0pt" stroke-width="0.5pt" color="#029E73"><path d="M 44.05 88.81 C 44.05 90.34 42.81 91.58 41.29 91.58 C 39.76 91.58 38.52 90.34 38.52 88.81 C 38.52 87.28 39.76 86.04 41.29 86.04 C 42.81 86.04 44.05 87.28 44.05 88.81 Z M 41.29 88.81"></path><path d="M 139.91 88.5 C 139.91 90.03 138.68 91.27 137.15 91.27 C 135.62 91.27 134.38 90.03 134.38 88.5 C 134.38 86.97 135.62 85.73 137.15 85.73 C 138.68 85.73 139.91 86.97 139.91 88.5 Z M 137.15 88.5"></path><path d="M 205.35 93.13 C 205.35 94.66 204.11 95.9 202.58 95.9 C 201.06 95.9 199.82 94.66 199.82 93.13 C 199.82 91.6 201.06 90.36 202.58 90.36 C 204.11 90.36 205.35 91.6 205.35 93.13 Z M 202.58 93.13"></path><path d="M 246.64 93.04 C 246.64 94.56 245.4 95.8 243.87 95.8 C 242.34 95.8 241.1 94.56 241.1 93.04 C 241.1 91.51 242.34 90.27 243.87 90.27 C 245.4 90.27 246.64 91.51 246.64 93.04 Z M 243.87 93.04"></path><path d="M 287.92 90.71 C 287.92 92.24 286.68 93.48 285.15 93.48 C 283.63 93.48 282.39 92.24 282.39 90.71 C 282.39 89.18 283.63 87.95 285.15 87.95 C 286.68 87.95 287.92 89.18 287.92 90.71 Z M 285.15 90.71"></path><path d="M 383.78 91.34 C 383.78 92.87 382.54 94.11 381.02 94.11 C 379.49 94.11 378.25 92.87 378.25 91.34 C 378.25 89.81 379.49 88.57 381.02 88.57 C 382.54 88.57 383.78 89.81 383.78 91.34 Z M 381.02 91.34"></path><path d="M 449.22 91.36 C 449.22 92.89 447.98 94.13 446.45 94.13 C 444.92 94.13 443.69 92.89 443.69 91.36 C 443.69 89.83 444.92 88.59 446.45 88.59 C 447.98 88.59 449.22 89.83 449.22 91.36 Z M 446.45 91.36"></path><path d="M 531.79 90.97 C 531.79 92.5 530.55 93.74 529.02 93.74 C 527.5 93.74 526.26 92.5 526.26 90.97 C 526.26 89.44 527.5 88.2 529.02 88.2 C 530.55 88.2 531.79 89.44 531.79 90.97 Z M 529.02 90.97"></path></g><g stroke="#FFFFFF" fill="#D55E00" stroke-dasharray="none" stroke-dashoffset="0.0pt" stroke-width="0.5pt" color="#D55E00"><path d="M 41.29 128.78 L 39.48 124.35 L 34.71 124 L 38.36 120.91 L 37.22 116.27 L 41.29 118.79 L 45.35 116.27 L 44.21 120.91 L 47.87 124 L 43.09 124.35 Z" style="stroke:none"></path></g><g fill="#CC78BC" stroke="#FFFFFF" stroke-dasharray="none" stroke-dashoffset="0.0pt" stroke-width="0.5pt" color="#CC78BC"><path d="M 383.78 99.21 C 383.78 100.74 382.54 101.98 381.02 101.98 C 379.49 101.98 378.25 100.74 378.25 99.21 C 378.25 97.68 379.49 96.44 381.02 96.44 C 382.54 96.44 383.78 97.68 383.78 99.21 Z M 381.02 99.21"></path><path d="M 449.22 106.88 C 449.22 108.4 447.98 109.64 446.45 109.64 C 444.92 109.64 443.69 108.4 443.69 106.88 C 443.69 105.35 444.92 104.11 446.45 104.11 C 447.98 104.11 449.22 105.35 449.22 106.88 Z M 446.45 106.88"></path><path d="M 531.79 111.6 C 531.79 113.13 530.55 114.37 529.02 114.37 C 527.5 114.37 526.26 113.13 526.26 111.6 C 526.26 110.07 527.5 108.83 529.02 108.83 C 530.55 108.83 531.79 110.07 531.79 111.6 Z M 529.02 111.6"></path></g><g fill="#CA9161" stroke="#FFFFFF" stroke-dasharray="none" stroke-dashoffset="0.0pt" stroke-width="0.5pt" color="#CA9161"><path d="M 383.78 77.14 C 383.78 78.67 382.54 79.91 381.02 79.91 C 379.49 79.91 378.25 78.67 378.25 77.14 C 378.25 75.61 379.49 74.37 381.02 74.37 C 382.54 74.37 383.78 75.61 383.78 77.14 Z M 381.02 77.14"></path><path d="M 449.22 77.34 C 449.22 78.87 447.98 80.11 446.45 80.11 C 444.92 80.11 443.69 78.87 443.69 77.34 C 443.69 75.81 444.92 74.57 446.45 74.57 C 447.98 74.57 449.22 75.81 449.22 77.34 Z M 446.45 77.34"></path><path d="M 531.79 76.54 C 531.79 78.07 530.55 79.3 529.02 79.3 C 527.5 79.3 526.26 78.07 526.26 76.54 C 526.26 75.01 527.5 73.77 529.02 73.77 C 530.55 73.77 531.79 75.01 531.79 76.54 Z M 529.02 76.54"></path></g><g fill="#FBAFE4" stroke="#FFFFFF" stroke-dasharray="none" stroke-dashoffset="0.0pt" stroke-width="0.5pt" color="#FBAFE4"><path d="M 139.91 50.98 C 139.91 52.5 138.68 53.74 137.15 53.74 C 135.62 53.74 134.38 52.5 134.38 50.98 C 134.38 49.45 135.62 48.21 137.15 48.21 C 138.68 48.21 139.91 49.45 139.91 50.98 Z M 137.15 50.98"></path><path d="M 205.35 82.89 C 205.35 84.42 204.11 85.66 202.58 85.66 C 201.06 85.66 199.82 84.42 199.82 82.89 C 199.82 81.36 201.06 80.12 202.58 80.12 C 204.11 80.12 205.35 81.36 205.35 82.89 Z M 202.58 82.89"></path><path d="M 246.64 94.56 C 246.64 96.08 245.4 97.32 243.87 97.32 C 242.34 97.32 241.1 96.08 241.1 94.56 C 241.1 93.03 242.34 91.79 243.87 91.79 C 245.4 91.79 246.64 93.03 246.64 94.56 Z M 243.87 94.56"></path><path d="M 287.92 96.55 C 287.92 98.08 286.68 99.32 285.15 99.32 C 283.63 99.32 282.39 98.08 282.39 96.55 C 282.39 95.02 283.63 93.78 285.15 93.78 C 286.68 93.78 287.92 95.02 287.92 96.55 Z M 285.15 96.55"></path><path d="M 383.78 96.8 C 383.78 98.33 382.54 99.57 381.02 99.57 C 379.49 99.57 378.25 98.33 378.25 96.8 C 378.25 95.28 379.49 94.04 381.02 94.04 C 382.54 94.04 383.78 95.28 383.78 96.8 Z M 381.02 96.8"></path><path d="M 449.22 99.52 C 449.22 101.05 447.98 102.29 446.45 102.29 C 444.92 102.29 443.69 101.05 443.69 99.52 C 443.69 97.99 444.92 96.75 446.45 96.75 C 447.98 96.75 449.22 97.99 449.22 99.52 Z M 446.45 99.52"></path><path d="M 531.79 98.62 C 531.79 100.15 530.55 101.38 529.02 101.38 C 527.5 101.38 526.26 100.15 526.26 98.62 C 526.26 97.09 527.5 95.85 529.02 95.85 C 530.55 95.85 531.79 97.09 531.79 98.62 Z M 529.02 98.62"></path></g><g fill="#7F7F7F" stroke="#FFFFFF" stroke-dasharray="none" stroke-dashoffset="0.0pt" stroke-width="0.5pt" color="#7F7F7F"><path d="M 287.92 91.18 C 287.92 92.71 286.68 93.95 285.15 93.95 C 283.63 93.95 282.39 92.71 282.39 91.18 C 282.39 89.65 283.63 88.42 285.15 88.42 C 286.68 88.42 287.92 89.65 287.92 91.18 Z M 285.15 91.18"></path><path d="M 383.78 110.83 C 383.78 112.36 382.54 113.6 381.02 113.6 C 379.49 113.6 378.25 112.36 378.25 110.83 C 378.25 109.3 379.49 108.06 381.02 108.06 C 382.54 108.06 383.78 109.3 383.78 110.83 Z M 381.02 110.83"></path><path d="M 449.22 113.1 C 449.22 114.63 447.98 115.87 446.45 115.87 C 444.92 115.87 443.69 114.63 443.69 113.1 C 443.69 111.57 444.92 110.33 446.45 110.33 C 447.98 110.33 449.22 111.57 449.22 113.1 Z M 446.45 113.1"></path><path d="M 531.79 114.25 C 531.79 115.78 530.55 117.02 529.02 117.02 C 527.5 117.02 526.26 115.78 526.26 114.25 C 526.26 112.72 527.5 111.48 529.02 111.48 C 530.55 111.48 531.79 112.72 531.79 114.25 Z M 529.02 114.25"></path></g><g fill="#ECE133" stroke="#FFFFFF" stroke-dasharray="none" stroke-dashoffset="0.0pt" stroke-width="0.5pt" color="#ECE133"><path d="M 287.92 115.19 C 287.92 116.72 286.68 117.96 285.15 117.96 C 283.63 117.96 282.39 116.72 282.39 115.19 C 282.39 113.67 283.63 112.43 285.15 112.43 C 286.68 112.43 287.92 113.67 287.92 115.19 Z M 285.15 115.19"></path><path d="M 383.78 118.82 C 383.78 120.35 382.54 121.59 381.02 121.59 C 379.49 121.59 378.25 120.35 378.25 118.82 C 378.25 117.29 379.49 116.06 381.02 116.06 C 382.54 116.06 383.78 117.29 383.78 118.82 Z M 381.02 118.82"></path><path d="M 449.22 119.99 C 449.22 121.52 447.98 122.75 446.45 122.75 C 444.92 122.75 443.69 121.52 443.69 119.99 C 443.69 118.46 444.92 117.22 446.45 117.22 C 447.98 117.22 449.22 118.46 449.22 119.99 Z M 446.45 119.99"></path><path d="M 531.79 122.66 C 531.79 124.19 530.55 125.42 529.02 125.42 C 527.5 125.42 526.26 124.19 526.26 122.66 C 526.26 121.13 527.5 119.89 529.02 119.89 C 530.55 119.89 531.79 121.13 531.79 122.66 Z M 529.02 122.66"></path></g><g fill="#56B4E9" stroke="#FFFFFF" stroke-dasharray="none" stroke-dashoffset="0.0pt" stroke-width="0.5pt" color="#56B4E9"><path d="M 287.92 115.78 C 287.92 117.31 286.68 118.54 285.15 118.54 C 283.63 118.54 282.39 117.31 282.39 115.78 C 282.39 114.25 283.63 113.01 285.15 113.01 C 286.68 113.01 287.92 114.25 287.92 115.78 Z M 285.15 115.78"></path><path d="M 383.78 123.99 C 383.78 125.52 382.54 126.75 381.02 126.75 C 379.49 126.75 378.25 125.52 378.25 123.99 C 378.25 122.46 379.49 121.22 381.02 121.22 C 382.54 121.22 383.78 122.46 383.78 123.99 Z M 381.02 123.99"></path><path d="M 449.22 123.55 C 449.22 125.08 447.98 126.31 446.45 126.31 C 444.92 126.31 443.69 125.08 443.69 123.55 C 443.69 122.02 444.92 120.78 446.45 120.78 C 447.98 120.78 449.22 122.02 449.22 123.55 Z M 446.45 123.55"></path><path d="M 531.79 121.97 C 531.79 123.5 530.55 124.74 529.02 124.74 C 527.5 124.74 526.26 123.5 526.26 121.97 C 526.26 120.44 527.5 119.2 529.02 119.2 C 530.55 119.2 531.79 120.44 531.79 121.97 Z M 529.02 121.97"></path></g><g transform="matrix(1.0 0.0 0.0 1.0 225.24 -39.51)" fill="#000000" stroke="#000000"><foreignObject width="120.21" height="12.3" transform="matrix(1 0 0 -1 0 16.6)" overflow="visible"><span id="A2.F7.1.pic1.13.13.13.13.13.1.1">Given Time Budget</span></foreignObject></g> <g transform="matrix(0.0 1.0 -1.0 0.0 -5.91 15.5)" fill="#000000" stroke="#000000"><foreignObject width="104.35" height="9.46" transform="matrix(1 0 0 -1 0 16.6)" overflow="visible"><span id="A2.F7.1.pic1.14.14.14.14.14.1.1">Mean ROC AUC</span></foreignObject></g></g></g></g></svg>
