<svg id="A2.F9.1.pic1" height="187" overflow="visible" version="1.1" width="204.17"><g transform="translate(0,187) matrix(1 0 0 -1 0 0) translate(61.27,0) translate(0,44.12) matrix(1.0 0.0 0.0 1.0 -61.27 -44.12)" fill="#000000" stroke="#000000" stroke-width="0.4pt"><g transform="matrix(1 0 0 1 0 0) translate(61.27,0) translate(0,44.12)"><g stroke-width="0.2pt" fill="#000000" stroke="#000000" color="#808080"><path d="M 22.43 -5.91 L 22.43 0 M 67.29 -5.91 L 67.29 0 M 112.16 -5.91 L 112.16 0" style="fill:none"></path></g><g stroke-width="0.2pt" fill="#000000" stroke="#000000" color="#808080"><path d="M -5.91 21.12 L 0 21.12 M -5.91 43.65 L 0 43.65 M -5.91 66.19 L 0 66.19 M -5.91 88.73 L 0 88.73 M -5.91 111.27 L 0 111.27 M -5.91 133.81 L 0 133.81" style="fill:none"></path></g><g stroke="#000000" fill="#000000" stroke-width="0.4pt"><path d="M 0 0 L 0 134.59 L 134.59 134.59 L 134.59 0 L 0 0 Z" style="fill:none"></path><g transform="matrix(1.0 0.0 0.0 1.0 -0.87 -20.25)" fill="#000000" stroke="#000000"><foreignObject width="46.6" height="9.46" transform="matrix(1 0 0 -1 0 16.6)" overflow="visible"><span id="A2.F9.1.pic1.7.7.7.7.7.1.1">L-GBM</span></foreignObject></g> <g transform="matrix(1.0 0.0 0.0 1.0 51.92 -20.25)" fill="#000000" stroke="#000000"><foreignObject width="30.75" height="9.46" transform="matrix(1 0 0 -1 0 16.6)" overflow="visible"><span id="A2.F9.1.pic1.8.8.8.8.8.1.1">MLP</span></foreignObject></g> <g transform="matrix(1.0 0.0 0.0 1.0 86.02 -20.4)" fill="#000000" stroke="#000000"><foreignObject width="52.27" height="9.61" transform="matrix(1 0 0 -1 0 16.6)" overflow="visible"><span id="A2.F9.1.pic1.9.9.9.9.9.1.1">TabPFN</span></foreignObject></g> <g transform="matrix(1.0 0.0 0.0 1.0 -37.7 16.66)" fill="#000000" stroke="#000000"><foreignObject width="26.91" height="8.92" transform="matrix(1 0 0 -1 0 16.6)" overflow="visible"><math xmlns="http://www.w3.org/1998/Math/MathML" display="inline" data-latex="0.83"><semantics id="A2.F9.1.pic1.1.1.1.1.1.1.1.1.1.1.1.1.1.1.1.1.1.1.1.1.1.1.1.1.1.1.1.1.1.1.1.1.1.1.1.m1.1a"><mn id="A2.F9.1.pic1.1.1.1.1.1.1.1.1.1.1.1.1.1.1.1.1.1.1.1.1.1.1.1.1.1.1.1.1.1.1.1.1.1.1.1.m1.1.1" xref="A2.F9.1.pic1.1.1.1.1.1.1.1.1.1.1.1.1.1.1.1.1.1.1.1.1.1.1.1.1.1.1.1.1.1.1.1.1.1.1.1.m1.1.1.cmml">0.83</mn> <annotation-xml encoding="MathML-Content" id="A2.F9.1.pic1.1.1.1.1.1.1.1.1.1.1.1.1.1.1.1.1.1.1.1.1.1.1.1.1.1.1.1.1.1.1.1.1.1.1.1.m1.1b"><cn type="float" id="A2.F9.1.pic1.1.1.1.1.1.1.1.1.1.1.1.1.1.1.1.1.1.1.1.1.1.1.1.1.1.1.1.1.1.1.1.1.1.1.1.m1.1.1.cmml" xref="A2.F9.1.pic1.1.1.1.1.1.1.1.1.1.1.1.1.1.1.1.1.1.1.1.1.1.1.1.1.1.1.1.1.1.1.1.1.1.1.1.m1.1.1">0.83</cn></annotation-xml> <annotation encoding="application/x-tex" id="A2.F9.1.pic1.1.1.1.1.1.1.1.1.1.1.1.1.1.1.1.1.1.1.1.1.1.1.1.1.1.1.1.1.1.1.1.1.1.1.1.m1.1c">0.83</annotation></semantics></math></foreignObject></g> <g transform="matrix(1.0 0.0 0.0 1.0 -37.7 39.2)" fill="#000000" stroke="#000000"><foreignObject width="26.91" height="8.92" transform="matrix(1 0 0 -1 0 16.6)" overflow="visible"><math xmlns="http://www.w3.org/1998/Math/MathML" display="inline" data-latex="0.84"><semantics id="A2.F9.1.pic1.2.2.2.2.2.2.2.2.2.2.2.2.2.2.2.2.2.2.2.2.2.2.2.2.2.2.1.1.1.1.1.1.1.1.1.m1.1a"><mn id="A2.F9.1.pic1.2.2.2.2.2.2.2.2.2.2.2.2.2.2.2.2.2.2.2.2.2.2.2.2.2.2.1.1.1.1.1.1.1.1.1.m1.1.1" xref="A2.F9.1.pic1.2.2.2.2.2.2.2.2.2.2.2.2.2.2.2.2.2.2.2.2.2.2.2.2.2.2.1.1.1.1.1.1.1.1.1.m1.1.1.cmml">0.84</mn> <annotation-xml encoding="MathML-Content" id="A2.F9.1.pic1.2.2.2.2.2.2.2.2.2.2.2.2.2.2.2.2.2.2.2.2.2.2.2.2.2.2.1.1.1.1.1.1.1.1.1.m1.1b"><cn type="float" id="A2.F9.1.pic1.2.2.2.2.2.2.2.2.2.2.2.2.2.2.2.2.2.2.2.2.2.2.2.2.2.2.1.1.1.1.1.1.1.1.1.m1.1.1.cmml" xref="A2.F9.1.pic1.2.2.2.2.2.2.2.2.2.2.2.2.2.2.2.2.2.2.2.2.2.2.2.2.2.2.1.1.1.1.1.1.1.1.1.m1.1.1">0.84</cn></annotation-xml> <annotation encoding="application/x-tex" id="A2.F9.1.pic1.2.2.2.2.2.2.2.2.2.2.2.2.2.2.2.2.2.2.2.2.2.2.2.2.2.2.1.1.1.1.1.1.1.1.1.m1.1c">0.84</annotation></semantics></math></foreignObject></g> <g transform="matrix(1.0 0.0 0.0 1.0 -37.7 61.73)" fill="#000000" stroke="#000000"><foreignObject width="26.91" height="8.92" transform="matrix(1 0 0 -1 0 16.6)" overflow="visible"><math xmlns="http://www.w3.org/1998/Math/MathML" display="inline" data-latex="0.85"><semantics id="A2.F9.1.pic1.3.3.3.3.3.3.3.3.3.3.3.3.3.3.3.3.3.3.3.3.3.3.3.3.3.3.1.1.1.1.1.1.1.1.1.m1.1a"><mn id="A2.F9.1.pic1.3.3.3.3.3.3.3.3.3.3.3.3.3.3.3.3.3.3.3.3.3.3.3.3.3.3.1.1.1.1.1.1.1.1.1.m1.1.1" xref="A2.F9.1.pic1.3.3.3.3.3.3.3.3.3.3.3.3.3.3.3.3.3.3.3.3.3.3.3.3.3.3.1.1.1.1.1.1.1.1.1.m1.1.1.cmml">0.85</mn> <annotation-xml encoding="MathML-Content" id="A2.F9.1.pic1.3.3.3.3.3.3.3.3.3.3.3.3.3.3.3.3.3.3.3.3.3.3.3.3.3.3.1.1.1.1.1.1.1.1.1.m1.1b"><cn type="float" id="A2.F9.1.pic1.3.3.3.3.3.3.3.3.3.3.3.3.3.3.3.3.3.3.3.3.3.3.3.3.3.3.1.1.1.1.1.1.1.1.1.m1.1.1.cmml" xref="A2.F9.1.pic1.3.3.3.3.3.3.3.3.3.3.3.3.3.3.3.3.3.3.3.3.3.3.3.3.3.3.1.1.1.1.1.1.1.1.1.m1.1.1">0.85</cn></annotation-xml> <annotation encoding="application/x-tex" id="A2.F9.1.pic1.3.3.3.3.3.3.3.3.3.3.3.3.3.3.3.3.3.3.3.3.3.3.3.3.3.3.1.1.1.1.1.1.1.1.1.m1.1c">0.85</annotation></semantics></math></foreignObject></g> <g transform="matrix(1.0 0.0 0.0 1.0 -37.7 84.27)" fill="#000000" stroke="#000000"><foreignObject width="26.91" height="8.92" transform="matrix(1 0 0 -1 0 16.6)" overflow="visible"><math xmlns="http://www.w3.org/1998/Math/MathML" display="inline" data-latex="0.86"><semantics id="A2.F9.1.pic1.4.4.4.4.4.4.4.4.4.4.4.4.4.4.4.4.4.4.4.4.4.4.4.4.4.4.1.1.1.1.1.1.1.1.1.m1.1a"><mn id="A2.F9.1.pic1.4.4.4.4.4.4.4.4.4.4.4.4.4.4.4.4.4.4.4.4.4.4.4.4.4.4.1.1.1.1.1.1.1.1.1.m1.1.1" xref="A2.F9.1.pic1.4.4.4.4.4.4.4.4.4.4.4.4.4.4.4.4.4.4.4.4.4.4.4.4.4.4.1.1.1.1.1.1.1.1.1.m1.1.1.cmml">0.86</mn> <annotation-xml encoding="MathML-Content" id="A2.F9.1.pic1.4.4.4.4.4.4.4.4.4.4.4.4.4.4.4.4.4.4.4.4.4.4.4.4.4.4.1.1.1.1.1.1.1.1.1.m1.1b"><cn type="float" id="A2.F9.1.pic1.4.4.4.4.4.4.4.4.4.4.4.4.4.4.4.4.4.4.4.4.4.4.4.4.4.4.1.1.1.1.1.1.1.1.1.m1.1.1.cmml" xref="A2.F9.1.pic1.4.4.4.4.4.4.4.4.4.4.4.4.4.4.4.4.4.4.4.4.4.4.4.4.4.4.1.1.1.1.1.1.1.1.1.m1.1.1">0.86</cn></annotation-xml> <annotation encoding="application/x-tex" id="A2.F9.1.pic1.4.4.4.4.4.4.4.4.4.4.4.4.4.4.4.4.4.4.4.4.4.4.4.4.4.4.1.1.1.1.1.1.1.1.1.m1.1c">0.86</annotation></semantics></math></foreignObject></g> <g transform="matrix(1.0 0.0 0.0 1.0 -37.7 106.81)" fill="#000000" stroke="#000000"><foreignObject width="26.91" height="8.92" transform="matrix(1 0 0 -1 0 16.6)" overflow="visible"><math xmlns="http://www.w3.org/1998/Math/MathML" display="inline" data-latex="0.87"><semantics id="A2.F9.1.pic1.5.5.5.5.5.5.5.5.5.5.5.5.5.5.5.5.5.5.5.5.5.5.5.5.5.5.1.1.1.1.1.1.1.1.1.m1.1a"><mn id="A2.F9.1.pic1.5.5.5.5.5.5.5.5.5.5.5.5.5.5.5.5.5.5.5.5.5.5.5.5.5.5.1.1.1.1.1.1.1.1.1.m1.1.1" xref="A2.F9.1.pic1.5.5.5.5.5.5.5.5.5.5.5.5.5.5.5.5.5.5.5.5.5.5.5.5.5.5.1.1.1.1.1.1.1.1.1.m1.1.1.cmml">0.87</mn> <annotation-xml encoding="MathML-Content" id="A2.F9.1.pic1.5.5.5.5.5.5.5.5.5.5.5.5.5.5.5.5.5.5.5.5.5.5.5.5.5.5.1.1.1.1.1.1.1.1.1.m1.1b"><cn type="float" id="A2.F9.1.pic1.5.5.5.5.5.5.5.5.5.5.5.5.5.5.5.5.5.5.5.5.5.5.5.5.5.5.1.1.1.1.1.1.1.1.1.m1.1.1.cmml" xref="A2.F9.1.pic1.5.5.5.5.5.5.5.5.5.5.5.5.5.5.5.5.5.5.5.5.5.5.5.5.5.5.1.1.1.1.1.1.1.1.1.m1.1.1">0.87</cn></annotation-xml> <annotation encoding="application/x-tex" id="A2.F9.1.pic1.5.5.5.5.5.5.5.5.5.5.5.5.5.5.5.5.5.5.5.5.5.5.5.5.5.5.1.1.1.1.1.1.1.1.1.m1.1c">0.87</annotation></semantics></math></foreignObject></g> <g transform="matrix(1.0 0.0 0.0 1.0 -37.7 129.35)" fill="#000000" stroke="#000000"><foreignObject width="26.91" height="8.92" transform="matrix(1 0 0 -1 0 16.6)" overflow="visible"><math xmlns="http://www.w3.org/1998/Math/MathML" display="inline" data-latex="0.88"><semantics id="A2.F9.1.pic1.6.6.6.6.6.6.6.6.6.6.6.6.6.6.6.6.6.6.6.6.6.6.6.6.6.6.1.1.1.1.1.1.1.1.1.m1.1a"><mn id="A2.F9.1.pic1.6.6.6.6.6.6.6.6.6.6.6.6.6.6.6.6.6.6.6.6.6.6.6.6.6.6.1.1.1.1.1.1.1.1.1.m1.1.1" xref="A2.F9.1.pic1.6.6.6.6.6.6.6.6.6.6.6.6.6.6.6.6.6.6.6.6.6.6.6.6.6.6.1.1.1.1.1.1.1.1.1.m1.1.1.cmml">0.88</mn> <annotation-xml encoding="MathML-Content" id="A2.F9.1.pic1.6.6.6.6.6.6.6.6.6.6.6.6.6.6.6.6.6.6.6.6.6.6.6.6.6.6.1.1.1.1.1.1.1.1.1.m1.1b"><cn type="float" id="A2.F9.1.pic1.6.6.6.6.6.6.6.6.6.6.6.6.6.6.6.6.6.6.6.6.6.6.6.6.6.6.1.1.1.1.1.1.1.1.1.m1.1.1.cmml" xref="A2.F9.1.pic1.6.6.6.6.6.6.6.6.6.6.6.6.6.6.6.6.6.6.6.6.6.6.6.6.6.6.1.1.1.1.1.1.1.1.1.m1.1.1">0.88</cn></annotation-xml> <annotation encoding="application/x-tex" id="A2.F9.1.pic1.6.6.6.6.6.6.6.6.6.6.6.6.6.6.6.6.6.6.6.6.6.6.6.6.6.6.1.1.1.1.1.1.1.1.1.m1.1c">0.88</annotation></semantics></math></foreignObject></g> <clipPath id="pgfcp12"><path d="M 0 0 L 134.59 0 L 134.59 134.59 L 0 134.59 Z"></path></clipPath><g clip-path="url(#pgfcp12)"><g stroke="#3F3F3F" fill="#3274A1" stroke-width="1.5pt"><path d="M 4.67 42.04 L 22.25 42.04 L 22.25 55.96 L 4.67 55.96 L 4.67 42.04 Z"></path></g><g></g><g stroke="#3F3F3F" fill="#E1812C" stroke-width="1.5pt"><path d="M 22.61 16.11 L 40.2 16.11 L 40.2 20.07 L 22.61 20.07 L 22.61 16.11 Z"></path></g><g></g><g stroke="#3F3F3F" fill="#3274A1" stroke-width="1.5pt"><path d="M 49.53 57.33 L 67.11 57.33 L 67.11 75.32 L 49.53 75.32 L 49.53 57.33 Z"></path></g><g></g><g stroke="#3F3F3F" fill="#E1812C" stroke-width="1.5pt"><path d="M 67.47 61.29 L 85.06 61.29 L 85.06 77.98 L 67.47 77.98 L 67.47 61.29 Z"></path></g><g></g><g stroke="#3F3F3F" fill="#3274A1" stroke-width="1.5pt"><path d="M 94.39 100.33 L 111.98 100.33 L 111.98 113.77 L 94.39 113.77 L 94.39 100.33 Z"></path></g><g></g><g stroke="#3F3F3F" fill="#E1812C" stroke-width="1.5pt"><path d="M 112.33 91.53 L 129.92 91.53 L 129.92 106.47 L 112.33 106.47 L 112.33 91.53 Z"></path></g><g></g><g stroke="#3F3F3F" fill="#3274A1" stroke-width="0.75pt"><path d="M 22.43 -1849.6 M 22.43 -1849.6 L 22.43 -1849.6 L 22.43 -1849.6 L 22.43 -1849.6 Z M 22.43 -1849.6"></path></g><g></g><g stroke="#3F3F3F" fill="#E1812C" stroke-width="0.75pt"><path d="M 22.43 -1849.6 M 22.43 -1849.6 L 22.43 -1849.6 L 22.43 -1849.6 L 22.43 -1849.6 Z M 22.43 -1849.6"></path></g><g></g><g stroke-width="1.5pt" fill="#3F3F3F" stroke="#3F3F3F" color="#3F3F3F"><path d="M 13.46 42.04 L 13.46 35.83" style="fill:none"></path></g><g></g><g stroke-width="1.5pt" fill="#3F3F3F" stroke="#3F3F3F" color="#3F3F3F"><path d="M 13.46 55.96 L 13.46 57.88" style="fill:none"></path></g><g></g><g stroke-width="1.5pt" fill="#3F3F3F" stroke="#3F3F3F" color="#3F3F3F"><path d="M 9.06 35.83 L 17.86 35.83" style="fill:none"></path></g><g></g><g stroke-width="1.5pt" fill="#3F3F3F" stroke="#3F3F3F" color="#3F3F3F"><path d="M 9.06 57.88 L 17.86 57.88" style="fill:none"></path></g><g></g><g stroke-width="1.5pt" fill="#3F3F3F" stroke="#3F3F3F" color="#3F3F3F"><path d="M 31.4 16.11 L 31.4 16.11" style="fill:none"></path></g><g></g><g stroke-width="1.5pt" fill="#3F3F3F" stroke="#3F3F3F" color="#3F3F3F"><path d="M 31.4 20.07 L 31.4 22.07" style="fill:none"></path></g><g></g><g stroke-width="1.5pt" fill="#3F3F3F" stroke="#3F3F3F" color="#3F3F3F"><path d="M 27.01 16.11 L 35.8 16.11" style="fill:none"></path></g><g></g><g stroke-width="1.5pt" fill="#3F3F3F" stroke="#3F3F3F" color="#3F3F3F"><path d="M 27.01 22.07 L 35.8 22.07" style="fill:none"></path></g><g></g><g stroke-width="1.5pt" fill="#3F3F3F" stroke="#3F3F3F" color="#3F3F3F"><path d="M 58.32 57.33 L 58.32 54.96" style="fill:none"></path></g><g></g><g stroke-width="1.5pt" fill="#3F3F3F" stroke="#3F3F3F" color="#3F3F3F"><path d="M 58.32 75.32 L 58.32 75.76" style="fill:none"></path></g><g></g><g stroke-width="1.5pt" fill="#3F3F3F" stroke="#3F3F3F" color="#3F3F3F"><path d="M 53.92 54.96 L 62.72 54.96" style="fill:none"></path></g><g></g><g stroke-width="1.5pt" fill="#3F3F3F" stroke="#3F3F3F" color="#3F3F3F"><path d="M 53.92 75.76 L 62.72 75.76" style="fill:none"></path></g><g></g><g stroke-width="1.5pt" fill="#3F3F3F" stroke="#3F3F3F" color="#3F3F3F"><path d="M 76.27 61.29 L 76.27 58.8" style="fill:none"></path></g><g></g><g stroke-width="1.5pt" fill="#3F3F3F" stroke="#3F3F3F" color="#3F3F3F"><path d="M 76.27 77.98 L 76.27 78.52" style="fill:none"></path></g><g></g><g stroke-width="1.5pt" fill="#3F3F3F" stroke="#3F3F3F" color="#3F3F3F"><path d="M 71.87 58.8 L 80.66 58.8" style="fill:none"></path></g><g></g><g stroke-width="1.5pt" fill="#3F3F3F" stroke="#3F3F3F" color="#3F3F3F"><path d="M 71.87 78.52 L 80.66 78.52" style="fill:none"></path></g><g></g><g stroke-width="1.5pt" fill="#3F3F3F" stroke="#3F3F3F" color="#3F3F3F"><path d="M 103.18 100.33 L 103.18 95.15" style="fill:none"></path></g><g></g><g stroke-width="1.5pt" fill="#3F3F3F" stroke="#3F3F3F" color="#3F3F3F"><path d="M 103.18 113.77 L 103.18 128.47" style="fill:none"></path></g><g></g><g stroke-width="1.5pt" fill="#3F3F3F" stroke="#3F3F3F" color="#3F3F3F"><path d="M 98.79 95.15 L 107.58 95.15" style="fill:none"></path></g><g></g><g stroke-width="1.5pt" fill="#3F3F3F" stroke="#3F3F3F" color="#3F3F3F"><path d="M 98.79 128.47 L 107.58 128.47" style="fill:none"></path></g><g></g><g stroke-width="1.5pt" fill="#3F3F3F" stroke="#3F3F3F" color="#3F3F3F"><path d="M 121.13 91.53 L 121.13 89.55" style="fill:none"></path></g><g></g><g stroke-width="1.5pt" fill="#3F3F3F" stroke="#3F3F3F" color="#3F3F3F"><path d="M 121.13 106.47 L 121.13 116.23" style="fill:none"></path></g><g></g><g stroke-width="1.5pt" fill="#3F3F3F" stroke="#3F3F3F" color="#3F3F3F"><path d="M 116.73 89.55 L 125.52 89.55" style="fill:none"></path></g><g></g><g stroke-width="1.5pt" fill="#3F3F3F" stroke="#3F3F3F" color="#3F3F3F"><path d="M 116.73 116.23 L 125.52 116.23" style="fill:none"></path></g><g></g><g stroke-width="1.5pt" fill="#3F3F3F" stroke="#3F3F3F" color="#3F3F3F"><path d="M 4.67 53.87 L 22.25 53.87" style="fill:none"></path></g><g></g><g stroke-width="1.5pt" fill="#3F3F3F" stroke="#3F3F3F" color="#3F3F3F"><path d="M 22.61 17.19 L 40.2 17.19" style="fill:none"></path></g><g></g><g stroke-width="1.5pt" fill="#3F3F3F" stroke="#3F3F3F" color="#3F3F3F"><path d="M 49.53 67.15 L 67.11 67.15" style="fill:none"></path></g><g></g><g stroke-width="1.5pt" fill="#3F3F3F" stroke="#3F3F3F" color="#3F3F3F"><path d="M 67.47 68.74 L 85.06 68.74" style="fill:none"></path></g><g></g><g stroke-width="1.5pt" fill="#3F3F3F" stroke="#3F3F3F" color="#3F3F3F"><path d="M 94.39 108.17 L 111.98 108.17" style="fill:none"></path></g><g></g><g stroke-width="1.5pt" fill="#3F3F3F" stroke="#3F3F3F" color="#3F3F3F"><path d="M 112.33 98.44 L 129.92 98.44" style="fill:none"></path></g><g></g></g><g stroke-width="1.0pt" fill="#3F3F3F" stroke="#000000" stroke-dasharray="none" stroke-dashoffset="0.0pt" color="#000000"><path d="M 31.4 9.58 L 34 6.12 L 31.4 2.66 L 28.81 6.12 Z"></path></g><g transform="matrix(1.0 0.0 0.0 1.0 43.85 -39.51)" fill="#000000" stroke="#000000"><foreignObject width="46.89" height="9.61" transform="matrix(1 0 0 -1 0 16.6)" overflow="visible"><span id="A2.F9.1.pic1.10.10.10.10.10.1.1">Method</span></foreignObject></g> <g transform="matrix(0.0 1.0 -1.0 0.0 -47.2 34.53)" fill="#000000" stroke="#000000"><foreignObject width="65.92" height="9.46" transform="matrix(1 0 0 -1 0 16.6)" overflow="visible"><span id="A2.F9.1.pic1.11.11.11.11.11.1.1">ROC AUC</span></foreignObject></g> <g fill="#FFFFFF" fill-opacity="0.8" stroke="#CCCCCC" stroke-opacity="1"><path d="M 4.31 89.95 h 57.85 v 40.32 h -57.85 Z"></path></g><g fill="#FFFFFF" fill-opacity="0.8" stroke="#CCCCCC" stroke-opacity="1" transform="matrix(1.0 0.0 0.0 1.0 8.47 92.72)"><g transform="matrix(1 0 0 -1 0 26.105)"><g transform="matrix(1 0 0 1 0 8.82)"><g transform="matrix(1 0 0 -1 0 0) translate(2.59,0)" fill="#3274A1" stroke="#3F3F3F" stroke-width="0.75pt"><path d="M -2.08 -2.77 h 4.15 v 11.07 h -4.15 Z M 6.23 -2.77 h 4.15 v 8.3 h -4.15 Z"></path></g><g transform="matrix(1 0 0 -1 13.77 0) translate(-0.28,0) matrix(1.0 0.0 0.0 1.0 3.04 -3.77)" fill="#000000" stroke="#000000"><foreignObject width="30.25" height="9.61" transform="matrix(1 0 0 -1 0 16.6)" overflow="visible"><span id="A2.F9.1.pic1.12.12.12.12.12.1.1.1.1.1">False</span></foreignObject></g></g> <g transform="matrix(1 0 0 1 0 26.25)"><g transform="matrix(1 0 0 -1 0 0) translate(2.59,0)" fill="#E1812C" stroke="#3F3F3F" stroke-width="0.75pt"><path d="M -2.08 -2.77 h 4.15 v 11.07 h -4.15 Z M 6.23 -2.77 h 4.15 v 8.3 h -4.15 Z"></path></g><g transform="matrix(1 0 0 -1 13.77 0) translate(-0.28,0) matrix(1.0 0.0 0.0 1.0 3.04 -3.69)" fill="#000000" stroke="#000000"><foreignObject width="28.1" height="9.46" transform="matrix(1 0 0 -1 0 16.6)" overflow="visible"><span id="A2.F9.1.pic1.13.13.13.13.13.2.2.1.1.1">True</span></foreignObject></g></g></g></g></g></g></g></svg>
