<svg id="A2.F9.2.pic1" height="181.29" overflow="visible" version="1.1" width="212.61"><g transform="translate(0,181.29) matrix(1 0 0 -1 0 0) translate(46.92,0) translate(0,46.12) matrix(1.0 0.0 0.0 1.0 -46.92 -46.12)" fill="#000000" stroke="#000000" stroke-width="0.4pt"><g transform="matrix(1 0 0 1 0 0) translate(46.92,0) translate(0,46.12)"><g stroke-width="0.2pt" fill="#000000" stroke="#000000" color="#808080"><path d="M 6.12 -5.91 L 6.12 0 M 30.59 -5.91 L 30.59 0 M 55.06 -5.91 L 55.06 0 M 79.53 -5.91 L 79.53 0 M 104 -5.91 L 104 0 M 128.47 -5.91 L 128.47 0" style="fill:none"></path></g><g stroke-width="0.2pt" fill="#000000" stroke="#000000" color="#808080"><path d="M -5.91 15.61 L 0 15.61 M -5.91 31.39 L 0 31.39 M -5.91 47.18 L 0 47.18 M -5.91 62.96 L 0 62.96 M -5.91 78.74 L 0 78.74 M -5.91 94.53 L 0 94.53 M -5.91 110.31 L 0 110.31 M -5.91 126.09 L 0 126.09" style="fill:none"></path></g><g stroke="#000000" fill="#000000" stroke-width="0.4pt"><path d="M 0 0 L 0 134.59 L 134.58 134.59 L 134.58 0 L 0 0 Z" style="fill:none"></path><g transform="matrix(1.0 0.0 0.0 1.0 2.66 -19.71)" fill="#000000" stroke="#000000"><foreignObject width="6.92" height="8.92" transform="matrix(1 0 0 -1 0 16.6)" overflow="visible"><span id="A2.F9.2.pic1.1.1.1.1.1.1.1">0</span></foreignObject></g> <g transform="matrix(1.0 0.0 0.0 1.0 23.67 -19.71)" fill="#000000" stroke="#000000"><foreignObject width="13.84" height="8.92" transform="matrix(1 0 0 -1 0 16.6)" overflow="visible"><span id="A2.F9.2.pic1.2.2.2.2.2.1.1">20</span></foreignObject></g> <g transform="matrix(1.0 0.0 0.0 1.0 48.14 -19.71)" fill="#000000" stroke="#000000"><foreignObject width="13.84" height="8.92" transform="matrix(1 0 0 -1 0 16.6)" overflow="visible"><span id="A2.F9.2.pic1.3.3.3.3.3.1.1">40</span></foreignObject></g> <g transform="matrix(1.0 0.0 0.0 1.0 72.61 -19.71)" fill="#000000" stroke="#000000"><foreignObject width="13.84" height="8.92" transform="matrix(1 0 0 -1 0 16.6)" overflow="visible"><span id="A2.F9.2.pic1.4.4.4.4.4.1.1">60</span></foreignObject></g> <g transform="matrix(1.0 0.0 0.0 1.0 97.08 -19.71)" fill="#000000" stroke="#000000"><foreignObject width="13.84" height="8.92" transform="matrix(1 0 0 -1 0 16.6)" overflow="visible"><span id="A2.F9.2.pic1.5.5.5.5.5.1.1">80</span></foreignObject></g> <g transform="matrix(1.0 0.0 0.0 1.0 118.09 -19.71)" fill="#000000" stroke="#000000"><foreignObject width="20.76" height="8.92" transform="matrix(1 0 0 -1 0 16.6)" overflow="visible"><span id="A2.F9.2.pic1.6.6.6.6.6.1.1">100</span></foreignObject></g> <g transform="matrix(1.0 0.0 0.0 1.0 -28.47 11.15)" fill="#000000" stroke="#000000"><foreignObject width="17.68" height="8.92" transform="matrix(1 0 0 -1 0 16.6)" overflow="visible"><span id="A2.F9.2.pic1.7.7.7.7.7.1.1">0.7</span></foreignObject></g> <g transform="matrix(1.0 0.0 0.0 1.0 -42.31 26.93)" fill="#000000" stroke="#000000"><foreignObject width="31.52" height="8.92" transform="matrix(1 0 0 -1 0 16.6)" overflow="visible"><span id="A2.F9.2.pic1.8.8.8.8.8.1.1">0.725</span></foreignObject></g> <g transform="matrix(1.0 0.0 0.0 1.0 -35.39 42.72)" fill="#000000" stroke="#000000"><foreignObject width="24.6" height="8.92" transform="matrix(1 0 0 -1 0 16.6)" overflow="visible"><span id="A2.F9.2.pic1.9.9.9.9.9.1.1">0.75</span></foreignObject></g> <g transform="matrix(1.0 0.0 0.0 1.0 -42.31 58.5)" fill="#000000" stroke="#000000"><foreignObject width="31.52" height="8.92" transform="matrix(1 0 0 -1 0 16.6)" overflow="visible"><span id="A2.F9.2.pic1.10.10.10.10.10.1.1">0.775</span></foreignObject></g> <g transform="matrix(1.0 0.0 0.0 1.0 -28.47 74.28)" fill="#000000" stroke="#000000"><foreignObject width="17.68" height="8.92" transform="matrix(1 0 0 -1 0 16.6)" overflow="visible"><span id="A2.F9.2.pic1.11.11.11.11.11.1.1">0.8</span></foreignObject></g> <g transform="matrix(1.0 0.0 0.0 1.0 -42.31 90.07)" fill="#000000" stroke="#000000"><foreignObject width="31.52" height="8.92" transform="matrix(1 0 0 -1 0 16.6)" overflow="visible"><span id="A2.F9.2.pic1.12.12.12.12.12.1.1">0.825</span></foreignObject></g> <g transform="matrix(1.0 0.0 0.0 1.0 -35.39 105.85)" fill="#000000" stroke="#000000"><foreignObject width="24.6" height="8.92" transform="matrix(1 0 0 -1 0 16.6)" overflow="visible"><span id="A2.F9.2.pic1.13.13.13.13.13.1.1">0.85</span></foreignObject></g> <g transform="matrix(1.0 0.0 0.0 1.0 -42.31 121.64)" fill="#000000" stroke="#000000"><foreignObject width="31.52" height="8.92" transform="matrix(1 0 0 -1 0 16.6)" overflow="visible"><span id="A2.F9.2.pic1.14.14.14.14.14.1.1">0.875</span></foreignObject></g> <clipPath id="pgfcp13"><path d="M 0 0 L 134.58 0 L 134.58 134.59 L 0 134.59 Z"></path></clipPath><g clip-path="url(#pgfcp13)"><g stroke="#1F77B4" fill="#1F77B4" fill-opacity="0.2" stroke-opacity="0.2" stroke-width="1.0pt"><path d="M 6.12 114.67 L 6.12 108.6 L 12.23 108.54 L 18.35 108.84 L 24.47 108.49 L 30.59 103.61 L 36.7 103.94 L 42.82 101.69 L 48.94 100.89 L 55.06 97.86 L 61.17 97.53 L 67.29 94.48 L 73.41 94.09 L 79.53 93.41 L 85.64 83.26 L 91.76 81.22 L 97.88 74.8 L 104 70.31 L 110.11 65.12 L 116.23 53.09 L 122.35 32.51 L 128.47 6.12 L 128.47 9.2 L 128.47 9.2 L 122.35 39.86 L 116.23 56.99 L 110.11 66.96 L 104 75.72 L 97.88 81.68 L 91.76 85.22 L 85.64 88.97 L 79.53 97.07 L 73.41 98.44 L 67.29 100.22 L 61.17 103.45 L 55.06 104.4 L 48.94 106.59 L 42.82 107.9 L 36.7 110.89 L 30.59 112.09 L 24.47 115.31 L 18.35 115.01 L 12.23 114.74 L 6.12 114.67 Z"></path></g><g></g><g stroke="#FF7F0E" fill="#FF7F0E" fill-opacity="0.2" stroke-opacity="0.2" stroke-width="1.0pt"><path d="M 6.12 110.52 L 6.12 106.22 L 12.23 106.57 L 18.35 106.29 L 24.47 106.96 L 30.59 104.66 L 36.7 103.91 L 42.82 104.52 L 48.94 103.29 L 55.06 101.4 L 61.17 101.8 L 67.29 98.94 L 73.41 96.44 L 79.53 94.06 L 85.64 84.16 L 91.76 82.01 L 97.88 77.33 L 104 75.08 L 110.11 68.5 L 116.23 55.74 L 122.35 34.93 L 128.47 6.69 L 128.47 19.29 L 128.47 19.29 L 122.35 43.79 L 116.23 61.19 L 110.11 72.77 L 104 81.11 L 97.88 84.43 L 91.76 88.7 L 85.64 91.51 L 79.53 100.16 L 73.41 101.36 L 67.29 102.56 L 61.17 102.76 L 55.06 102.97 L 48.94 104.93 L 42.82 106.36 L 36.7 107.71 L 30.59 108.74 L 24.47 110.98 L 18.35 111.55 L 12.23 111.16 L 6.12 110.52 Z"></path></g><g></g><g stroke="#2CA02C" fill="#2CA02C" fill-opacity="0.2" stroke-opacity="0.2" stroke-width="1.0pt"><path d="M 6.12 128.3 L 6.12 121.67 L 12.23 121.96 L 18.35 122.08 L 24.47 121.84 L 30.59 117.29 L 36.7 117.62 L 42.82 115.18 L 48.94 114.32 L 55.06 113.51 L 61.17 112.76 L 67.29 108.86 L 73.41 106.78 L 79.53 105.02 L 85.64 96.12 L 91.76 94.3 L 97.88 88.21 L 104 84.32 L 110.11 77.1 L 116.23 64.76 L 122.35 40.09 L 128.47 10.29 L 128.47 19.53 L 128.47 19.53 L 122.35 47.94 L 116.23 67.03 L 110.11 81 L 104 90.92 L 97.88 94.51 L 91.76 99.06 L 85.64 101.52 L 79.53 108.97 L 73.41 109.94 L 67.29 110.98 L 61.17 113.6 L 55.06 114.72 L 48.94 116.66 L 42.82 117.29 L 36.7 123.38 L 30.59 123.86 L 24.47 128.1 L 18.35 128.47 L 12.23 128.45 L 6.12 128.3 Z"></path></g><g></g><g stroke-width="1.5pt" fill="#1F77B4" stroke="#1F77B4" color="#1F77B4"><path d="M 6.12 111.63 L 12.23 111.64 L 18.35 111.94 L 24.47 111.95 L 30.59 107.88 L 36.7 107.42 L 42.82 104.81 L 48.94 103.74 L 55.06 101.4 L 61.17 100.77 L 67.29 97.63 L 73.41 96.51 L 79.53 95.72 L 85.64 86.49 L 91.76 83.22 L 97.88 78.47 L 104 73.45 L 110.11 65.95 L 116.23 55 L 122.35 35.57 L 128.47 7.66" style="fill:none"></path></g><g></g><g stroke-width="1.5pt" fill="#FF7F0E" stroke="#FF7F0E" color="#FF7F0E"><path d="M 6.12 108.37 L 12.23 108.85 L 18.35 108.92 L 24.47 109.03 L 30.59 106.7 L 36.7 105.77 L 42.82 105.48 L 48.94 104.03 L 55.06 102.16 L 61.17 102.24 L 67.29 100.94 L 73.41 98.71 L 79.53 97.01 L 85.64 87.91 L 91.76 85.36 L 97.88 81.41 L 104 78.11 L 110.11 70.64 L 116.23 58.47 L 122.35 39.54 L 128.47 12.62" style="fill:none"></path></g><g></g><g stroke-width="1.5pt" fill="#2CA02C" stroke="#2CA02C" color="#2CA02C"><path d="M 6.12 125.07 L 12.23 125.27 L 18.35 125.34 L 24.47 125.01 L 30.59 120.24 L 36.7 120.09 L 42.82 116.24 L 48.94 115.48 L 55.06 114.11 L 61.17 113.07 L 67.29 109.95 L 73.41 108.36 L 79.53 107 L 85.64 98.73 L 91.76 96.89 L 97.88 91.79 L 104 87.52 L 110.11 79.02 L 116.23 65.91 L 122.35 44.13 L 128.47 14.97" style="fill:none"></path></g><g></g><path d="M 67.29 96.91" style="fill:none"></path><g transform="matrix(0.6 0.0 0.0 0.6 70.23 96.91)" fill="#1F77B4" stroke="#1F77B4"><foreignObject width="18.45" height="12.3" transform="matrix(1 0 0 -1 0 16.6)" overflow="visible" color="#1F77B4"><span id="A2.F9.2.pic1.15.15.15.15.15.1.1.1" style="color:#1F77B4;">lgb</span></foreignObject></g> <g></g><path d="M 67.29 103.54" style="fill:none"></path><g transform="matrix(0.6 0.0 0.0 0.6 70.23 103.54)" fill="#FF7F0E" stroke="#FF7F0E"><foreignObject width="23.06" height="12.3" transform="matrix(1 0 0 -1 0 16.6)" overflow="visible" color="#FF7F0E"><span id="A2.F9.2.pic1.16.16.16.16.16.2.1.1">mlp</span></foreignObject></g> <g></g><path d="M 67.29 110.39" style="fill:none"></path><g transform="matrix(0.6 0.0 0.0 0.6 70.23 110.39)" fill="#2CA02C" stroke="#2CA02C"><foreignObject width="39.59" height="12.3" transform="matrix(1 0 0 -1 0 16.6)" overflow="visible" color="#2CA02C"><span id="A2.F9.2.pic1.17.17.17.17.17.3.1.1">tabpfn</span></foreignObject></g> <g></g></g><g transform="matrix(1.0 0.0 0.0 1.0 -26.49 -38.82)" fill="#000000" stroke="#000000"><foreignObject width="187.57" height="12.3" transform="matrix(1 0 0 -1 0 16.6)" overflow="visible"><span id="A2.F9.2.pic1.18.18.18.18.18.1.1">Percentage of features dropped</span></foreignObject></g></g></g></g></svg>
