<svg xmlns="http://www.w3.org/2000/svg" id="S3.F1.1.pic1" height="129.4" overflow="visible" version="1.1" viewBox="0 0 673.52 129.4" width="673.52"><g transform="translate(0,129.4) matrix(1 0 0 -1 0 0) translate(16.78,0) translate(0,63.34)"><g style="--ltx-stroke-color:#CCCCCC;--ltx-fill-color:#F9F9F9;" fill="#F9F9F9" stroke="#CCCCCC" stroke-width="0.5pt"><path d="M 412.02 62.99 L -10.9 62.99 C -13.96 62.99 -16.44 60.51 -16.44 57.46 L -16.44 -57.46 C -16.44 -60.51 -13.96 -62.99 -10.9 -62.99 L 412.02 -62.99 C 415.08 -62.99 417.55 -60.51 417.55 -57.46 L 417.55 57.46 C 417.55 60.51 415.08 62.99 412.02 62.99 Z M -16.44 -62.99"></path></g><g style="--ltx-stroke-color:#000000;--ltx-fill-color:#000000;" stroke-width="0.5pt" fill="#000000" stroke="#000000" transform="matrix(1.0 0.0 0.0 1.0 -11.83 0)"></g><g style="--ltx-stroke-color:#000000;--ltx-fill-color:#000000;" stroke="#000000" fill="#000000" stroke-width="0.4pt"><g style="--ltx-stroke-color:#A6A6A6;--ltx-fill-color:#A6A6A6;" transform="matrix(1.0 0.0 0.0 1.0 158.76 -58.46)" fill="#A6A6A6" stroke="#A6A6A6"><foreignObject style="--ltx-fg-color:#A6A6A6;--ltx-fo-width:5.57em;--ltx-fo-height:0.63em;--ltx-fo-depth:0em;" width="84.75" height="9.61" transform="matrix(1 0 0 -1 0 9.61)" overflow="visible" color="#A6A6A6"><span id="S3.F1.1.pic1.10.10.10.9.1.1" style="--ltx-fg-color:#A6A6A6;">nanoTabPFN</span></foreignObject></g> <g style="--ltx-stroke-color:#7EA6D9;--ltx-fill-color:#DCEAFE;" stroke-width="0.4pt" fill="#DCEAFE" stroke="#7EA6D9"><path d="M 8.78 42.32 L -8.78 42.32 C -10.31 42.32 -11.55 41.08 -11.55 39.56 L -11.55 19.5 C -11.55 17.97 -10.31 16.73 -8.78 16.73 L 8.78 16.73 C 10.31 16.73 11.55 17.97 11.55 19.5 L 11.55 39.56 C 11.55 41.08 10.31 42.32 8.78 42.32 Z M -11.55 16.73"></path></g><g style="--ltx-stroke-color:#000000;--ltx-fill-color:#000000;" stroke-width="0.4pt" fill="#000000" stroke="#000000" transform="matrix(1.0 0.0 0.0 1.0 -6.02 24.78)"><foreignObject style="--ltx-fo-width:0.87em;--ltx-fo-height:0.69em;--ltx-fo-depth:0em;" width="12.03" height="9.49" transform="matrix(1 0 0 -1 0 9.49)" overflow="visible"><math xmlns="http://www.w3.org/1998/Math/MathML" display="inline" data-latex="\mathbf{X}"><semantics><mi>𝐗</mi> <annotation encoding="application/x-tex">\mathbf{X}</annotation></semantics></math></foreignObject></g> <g style="--ltx-stroke-color:#7EA6D9;--ltx-fill-color:#DCEAFE;" stroke-width="0.4pt" fill="#DCEAFE" stroke="#7EA6D9"><path d="M 6.97 -16.73 L -6.97 -16.73 C -8.49 -16.73 -9.73 -17.97 -9.73 -19.5 L -9.73 -39.56 C -9.73 -41.08 -8.49 -42.32 -6.97 -42.32 L 6.97 -42.32 C 8.49 -42.32 9.73 -41.08 9.73 -39.56 L 9.73 -19.5 C 9.73 -17.97 8.49 -16.73 6.97 -16.73 Z M -9.73 -42.32"></path></g><g style="--ltx-stroke-color:#000000;--ltx-fill-color:#000000;" stroke-width="0.4pt" fill="#000000" stroke="#000000" transform="matrix(1.0 0.0 0.0 1.0 -4.2 -31.26)"><foreignObject style="--ltx-fo-width:0.61em;--ltx-fo-height:0.44em;--ltx-fo-depth:0.19em;" width="8.4" height="8.84" transform="matrix(1 0 0 -1 0 6.15)" overflow="visible"><math xmlns="http://www.w3.org/1998/Math/MathML" display="inline" data-latex="\mathbf{y}"><semantics><mi>𝐲</mi> <annotation encoding="application/x-tex">\mathbf{y}</annotation></semantics></math></foreignObject></g> <g style="--ltx-stroke-color:#D6A45A;--ltx-fill-color:#F9E8CC;" stroke-width="0.4pt" fill="#F9E8CC" stroke="#D6A45A"><path d="M 129.53 42.32 L 34.56 42.32 C 33.03 42.32 31.79 41.08 31.79 39.56 L 31.79 19.5 C 31.79 17.97 33.03 16.73 34.56 16.73 L 129.53 16.73 C 131.06 16.73 132.3 17.97 132.3 19.5 L 132.3 39.56 C 132.3 41.08 131.06 42.32 129.53 42.32 Z M 31.79 16.73"></path></g><g style="--ltx-stroke-color:#000000;--ltx-fill-color:#000000;" stroke-width="0.4pt" fill="#000000" stroke="#000000" transform="matrix(1.0 0.0 0.0 1.0 37.32 24.72)"><foreignObject style="--ltx-fo-width:6.49em;--ltx-fo-height:0.69em;--ltx-fo-depth:0em;" width="89.83" height="9.61" transform="matrix(1 0 0 -1 0 9.61)" overflow="visible"><span id="S3.F1.1.pic1.11.11.11.10.1.1">FeatureEncoder</span></foreignObject></g> <g style="--ltx-stroke-color:#D6A45A;--ltx-fill-color:#F9E8CC;" stroke-width="0.4pt" fill="#F9E8CC" stroke="#D6A45A"><path d="M 132.1 -16.73 L 32.74 -16.73 C 31.21 -16.73 29.97 -17.97 29.97 -19.5 L 29.97 -39.56 C 29.97 -41.08 31.21 -42.32 32.74 -42.32 L 132.1 -42.32 C 133.63 -42.32 134.86 -41.08 134.86 -39.56 L 134.86 -19.5 C 134.86 -17.97 133.63 -16.73 132.1 -16.73 Z M 29.97 -42.32"></path></g><g style="--ltx-stroke-color:#000000;--ltx-fill-color:#000000;" stroke-width="0.4pt" fill="#000000" stroke="#000000" transform="matrix(1.0 0.0 0.0 1.0 35.51 -32.99)"><foreignObject style="--ltx-fo-width:6.75em;--ltx-fo-height:0.69em;--ltx-fo-depth:0.19em;" width="93.44" height="12.3" transform="matrix(1 0 0 -1 0 9.61)" overflow="visible"><span id="S3.F1.1.pic1.12.12.12.11.1.1">TargetEncoder</span></foreignObject></g> <g style="--ltx-stroke-color:#667085;--ltx-fill-color:#667085;" transform="matrix(1.0 0.0 0.0 1.0 7.93 51.56)" fill="#667085" stroke="#667085"><foreignObject style="--ltx-fg-color:#667085;--ltx-fo-width:10.71em;--ltx-fo-height:0.71em;--ltx-fo-depth:0.19em;" width="148.23" height="12.58" transform="matrix(1 0 0 -1 0 9.89)" overflow="visible" color="#667085"><span id="S3.F1.1.pic1.4.4.4.4.4.4.4.4.4.4.4.4.2.2.2.2.2.2.2.2.2.2">Normalize <math xmlns="http://www.w3.org/1998/Math/MathML" display="inline" data-latex="\to"><semantics><mo stretchy="false">→</mo> <annotation encoding="application/x-tex">\to</annotation></semantics></math> Clip <math xmlns="http://www.w3.org/1998/Math/MathML" display="inline" data-latex="\to"><semantics><mo stretchy="false">→</mo> <annotation encoding="application/x-tex">\to</annotation></semantics></math> Linear</span></foreignObject></g> <g style="--ltx-stroke-color:#667085;--ltx-fill-color:#667085;" transform="matrix(1.0 0.0 0.0 1.0 64.68 -58.48)" fill="#667085" stroke="#667085"><foreignObject style="--ltx-fg-color:#667085;--ltx-fo-width:2.56em;--ltx-fo-height:0.69em;--ltx-fo-depth:0em;" width="35.48" height="9.61" transform="matrix(1 0 0 -1 0 9.61)" overflow="visible" color="#667085"><span id="S3.F1.1.pic1.13.13.13.12.1.1">Linear</span></foreignObject></g> <g style="--ltx-stroke-color:#AEB7C3;--ltx-fill-color:#EEF1F5;" fill="#EEF1F5" stroke="#AEB7C3" stroke-width="0.4pt"><path d="M 299 33.46 L 165.57 33.46 C 163.28 33.46 161.42 31.61 161.42 29.31 L 161.42 -29.31 C 161.42 -31.61 163.28 -33.46 165.57 -33.46 L 299 -33.46 C 301.29 -33.46 303.15 -31.61 303.15 -29.31 L 303.15 29.31 C 303.15 31.61 301.29 33.46 299 33.46 Z M 161.42 -33.46"></path></g><g style="--ltx-stroke-color:#8FA0DE;--ltx-fill-color:#E3E9FF;" stroke-width="0.4pt" fill="#E3E9FF" stroke="#8FA0DE"><path d="M 221.27 18.64 L 172.43 18.64 C 170.9 18.64 169.66 17.4 169.66 15.87 L 169.66 -15.87 C 169.66 -17.4 170.9 -18.64 172.43 -18.64 L 221.27 -18.64 C 222.8 -18.64 224.04 -17.4 224.04 -15.87 L 224.04 15.87 C 224.04 17.4 222.8 18.64 221.27 18.64 Z M 169.66 -18.64"></path></g><g style="--ltx-stroke-color:#000000;--ltx-fill-color:#000000;" stroke-width="0.4pt" fill="#000000" stroke="#000000" transform="matrix(1.0 0.0 0.0 1.0 175.2 3.5)"><foreignObject style="--ltx-fo-width:3.13em;--ltx-fo-height:0.69em;--ltx-fo-depth:1.2em;" width="43.31" height="26.21" transform="matrix(1 0 0 -1 0 9.61)" overflow="visible"><span id="S3.F1.1.pic1.14.14.14.13.1.1" style="width:3.13em;"><span id="S3.F1.1.pic1.14.14.14.13.1.1.2"><span id="S3.F1.1.pic1.14.14.14.13.1.1.2.1">Attn over</span></span> <span id="S3.F1.1.pic1.14.14.14.13.1.1.3"><span id="S3.F1.1.pic1.14.14.14.13.1.1.3.1">Features</span></span> </span></foreignObject></g><g style="--ltx-stroke-color:#8FA0DE;--ltx-fill-color:#E3E9FF;" stroke-width="0.4pt" fill="#E3E9FF" stroke="#8FA0DE"><path d="M 292.14 19.99 L 243.3 19.99 C 241.77 19.99 240.53 18.75 240.53 17.22 L 240.53 -17.22 C 240.53 -18.75 241.77 -19.99 243.3 -19.99 L 292.14 -19.99 C 293.67 -19.99 294.91 -18.75 294.91 -17.22 L 294.91 17.22 C 294.91 18.75 293.67 19.99 292.14 19.99 Z M 240.53 -19.99"></path></g><g style="--ltx-stroke-color:#000000;--ltx-fill-color:#000000;" stroke-width="0.4pt" fill="#000000" stroke="#000000" transform="matrix(1.0 0.0 0.0 1.0 246.06 4.84)"><foreignObject style="--ltx-fo-width:3.13em;--ltx-fo-height:0.69em;--ltx-fo-depth:1.39em;" width="43.31" height="28.9" transform="matrix(1 0 0 -1 0 9.61)" overflow="visible"><span id="S3.F1.1.pic1.15.15.15.14.1.1" style="width:3.13em;"><span id="S3.F1.1.pic1.15.15.15.14.1.1.2"><span id="S3.F1.1.pic1.15.15.15.14.1.1.2.1">Attn over</span></span> <span id="S3.F1.1.pic1.15.15.15.14.1.1.3"><span id="S3.F1.1.pic1.15.15.15.14.1.1.3.1">Datapoints</span></span> </span></foreignObject></g><g style="--ltx-stroke-color:#4F5B66;--ltx-fill-color:#4F5B66;" transform="matrix(1.0 0.0 0.0 1.0 143.82 38.4)" fill="#4F5B66" stroke="#4F5B66"><foreignObject style="--ltx-fg-color:#4F5B66;--ltx-fo-width:12.75em;--ltx-fo-height:0.69em;--ltx-fo-depth:0.08em;" width="176.43" height="10.76" transform="matrix(1 0 0 -1 0 9.61)" overflow="visible" color="#4F5B66"><span id="S3.F1.1.pic1.5.5.5.5.5.5.5.5.5.5.5.5.1.1.1.1.1.1.1.1.1.1">Transformer Encoder <math xmlns="http://www.w3.org/1998/Math/MathML" display="inline" data-latex="\quad\!\!\times N"><semantics><mrow><mo lspace="0.892em" rspace="0.222em">×</mo> <mi>N</mi></mrow> <annotation encoding="application/x-tex">\quad\!\!\times N</annotation></semantics></math></span></foreignObject></g> <g style="--ltx-stroke-color:#4F5B66;--ltx-fill-color:#4F5B66;--ltx-fg-color:#4F5B66;" stroke="#4F5B66" fill="#4F5B66" stroke-width="0.45pt" color="#4F5B66"><path style="fill:none" d="M 224.32 0 L 235.57 0"></path><g transform="matrix(1.0 0.0 0.0 1.0 233.16 0)" stroke-dasharray="none" stroke-dashoffset="0.0pt" stroke-linejoin="miter"><path d="M 6.29 0 L 0.98 2.05 L 2.56 0 L 0.98 -2.05 Z"></path></g></g><g style="--ltx-stroke-color:#7EA6D9;--ltx-fill-color:#DCEAFE;" stroke-width="0.4pt" fill="#DCEAFE" stroke="#7EA6D9"><path d="M 409.9 42.32 L 341.9 42.32 C 340.38 42.32 339.14 41.08 339.14 39.56 L 339.14 19.5 C 339.14 17.97 340.38 16.73 341.9 16.73 L 409.9 16.73 C 411.43 16.73 412.66 17.97 412.66 19.5 L 412.66 39.56 C 412.66 41.08 411.43 42.32 409.9 42.32 Z M 339.14 16.73"></path></g><g style="--ltx-stroke-color:#000000;--ltx-fill-color:#000000;" stroke-width="0.4pt" fill="#000000" stroke="#000000" transform="matrix(1.0 0.0 0.0 1.0 344.67 24.72)"><foreignObject style="--ltx-fo-width:4.54em;--ltx-fo-height:0.69em;--ltx-fo-depth:0em;" width="62.84" height="9.61" transform="matrix(1 0 0 -1 0 9.61)" overflow="visible"><span id="S3.F1.1.pic1.16.16.16.15.1.1">Train emb.</span></foreignObject></g><g style="--ltx-stroke-color:#7EA6D9;--ltx-fill-color:#DCEAFE;" stroke-width="0.4pt" fill="#DCEAFE" stroke="#7EA6D9"><path d="M 409.13 -16.73 L 341.9 -16.73 C 340.38 -16.73 339.14 -17.97 339.14 -19.5 L 339.14 -39.56 C 339.14 -41.08 340.38 -42.32 341.9 -42.32 L 409.13 -42.32 C 410.66 -42.32 411.9 -41.08 411.9 -39.56 L 411.9 -19.5 C 411.9 -17.97 410.66 -16.73 409.13 -16.73 Z M 339.14 -42.32"></path></g> <g style="--ltx-stroke-color:#000000;--ltx-fill-color:#000000;" stroke-width="0.4pt" fill="#000000" stroke="#000000" transform="matrix(1.0 0.0 0.0 1.0 344.67 -34.33)"><foreignObject style="--ltx-fo-width:4.49em;--ltx-fo-height:0.69em;--ltx-fo-depth:0em;" width="62.07" height="9.61" transform="matrix(1 0 0 -1 0 9.61)" overflow="visible"><span id="S3.F1.1.pic1.17.17.17.16.1.1">Test emb.</span></foreignObject></g><g style="--ltx-stroke-color:#C98BA6;--ltx-fill-color:#F7E1EA;" stroke-width="0.4pt" fill="#F7E1EA" stroke="#C98BA6"><path d="M 510.25 42.32 L 429.77 42.32 C 428.24 42.32 427 41.08 427 39.56 L 427 19.5 C 427 17.97 428.24 16.73 429.77 16.73 L 510.25 16.73 C 511.78 16.73 513.02 17.97 513.02 19.5 L 513.02 39.56 C 513.02 41.08 511.78 42.32 510.25 42.32 Z M 427 16.73"></path></g> <g style="--ltx-stroke-color:#000000;--ltx-fill-color:#000000;" stroke-width="0.4pt" fill="#000000" stroke="#000000" transform="matrix(1.0 0.0 0.0 1.0 432.53 24.72)"><foreignObject style="--ltx-fo-width:5.39em;--ltx-fo-height:0.69em;--ltx-fo-depth:0em;" width="74.57" height="9.61" transform="matrix(1 0 0 -1 0 9.61)" overflow="visible"><span id="S3.F1.1.pic1.18.18.18.17.1.1">BaseDecoder</span></foreignObject></g> <g style="--ltx-stroke-color:#C98BA6;--ltx-fill-color:#F7E1EA;" stroke-width="0.4pt" fill="#F7E1EA" stroke="#C98BA6"><path d="M 510.79 -16.73 L 429 -16.73 C 427.47 -16.73 426.23 -17.97 426.23 -19.5 L 426.23 -39.56 C 426.23 -41.08 427.47 -42.32 429 -42.32 L 510.79 -42.32 C 512.32 -42.32 513.56 -41.08 513.56 -39.56 L 513.56 -19.5 C 513.56 -17.97 512.32 -16.73 510.79 -16.73 Z M 426.23 -42.32"></path></g><g style="--ltx-stroke-color:#000000;--ltx-fill-color:#000000;" stroke-width="0.4pt" fill="#000000" stroke="#000000" transform="matrix(1.0 0.0 0.0 1.0 431.76 -32.99)"><foreignObject style="--ltx-fo-width:5.48em;--ltx-fo-height:0.69em;--ltx-fo-depth:0.19em;" width="75.87" height="12.3" transform="matrix(1 0 0 -1 0 9.61)" overflow="visible"><span id="S3.F1.1.pic1.19.19.19.18.1.1">ShapDecoder</span></foreignObject></g> <g style="--ltx-stroke-color:#72B89A;--ltx-fill-color:#DDF3E8;" stroke-width="0.4pt" fill="#DDF3E8" stroke="#72B89A"><path d="M 560.91 42.32 L 530.12 42.32 C 528.59 42.32 527.35 41.08 527.35 39.56 L 527.35 19.5 C 527.35 17.97 528.59 16.73 530.12 16.73 L 560.91 16.73 C 562.43 16.73 563.67 17.97 563.67 19.5 L 563.67 39.56 C 563.67 41.08 562.43 42.32 560.91 42.32 Z M 527.35 16.73"></path></g><g style="--ltx-stroke-color:#000000;--ltx-fill-color:#000000;" stroke-width="0.4pt" fill="#000000" stroke="#000000" transform="matrix(1.0 0.0 0.0 1.0 532.89 24.72)"><foreignObject style="--ltx-fo-width:1.82em;--ltx-fo-height:0.69em;--ltx-fo-depth:0em;" width="25.25" height="9.61" transform="matrix(1 0 0 -1 0 9.61)" overflow="visible"><span id="S3.F1.1.pic1.20.20.20.19.1.1">base</span></foreignObject></g> <g style="--ltx-stroke-color:#72B89A;--ltx-fill-color:#DDF3E8;" stroke-width="0.4pt" fill="#DDF3E8" stroke="#72B89A"><path d="M 562.89 -16.73 L 530.66 -16.73 C 529.13 -16.73 527.89 -17.97 527.89 -19.5 L 527.89 -39.56 C 527.89 -41.08 529.13 -42.32 530.66 -42.32 L 562.89 -42.32 C 564.41 -42.32 565.65 -41.08 565.65 -39.56 L 565.65 -19.5 C 565.65 -17.97 564.41 -16.73 562.89 -16.73 Z M 527.89 -42.32"></path></g><g style="--ltx-stroke-color:#000000;--ltx-fill-color:#000000;" stroke-width="0.4pt" fill="#000000" stroke="#000000" transform="matrix(1.0 0.0 0.0 1.0 533.42 -32.99)"><foreignObject style="--ltx-fo-width:1.93em;--ltx-fo-height:0.69em;--ltx-fo-depth:0.19em;" width="26.69" height="12.3" transform="matrix(1 0 0 -1 0 9.61)" overflow="visible"><math xmlns="http://www.w3.org/1998/Math/MathML" display="inline" data-latex="\bm{\phi}"><semantics><mi mathvariant="bold-italic">ϕ</mi> <annotation encoding="application/x-tex">\bm{\phi}</annotation></semantics></math></foreignObject></g> <g style="--ltx-stroke-color:#667085;--ltx-fill-color:#667085;" transform="matrix(1.0 0.0 0.0 1.0 502.35 48.87)" fill="#667085" stroke="#667085"><foreignObject style="--ltx-fg-color:#667085;--ltx-fo-width:6.24em;--ltx-fo-height:0.69em;--ltx-fo-depth:0em;" width="86.33" height="9.61" transform="matrix(1 0 0 -1 0 9.61)" overflow="visible" color="#667085"><span id="S3.F1.1.pic1.23.23.23.22.1.1">Global baseline</span></foreignObject></g> <g style="--ltx-stroke-color:#667085;--ltx-fill-color:#667085;" transform="matrix(1.0 0.0 0.0 1.0 519.21 -58.48)" fill="#667085" stroke="#667085"><foreignObject style="--ltx-fg-color:#667085;--ltx-fo-width:3.98em;--ltx-fo-height:0.69em;--ltx-fo-depth:0em;" width="55.12" height="9.61" transform="matrix(1 0 0 -1 0 9.61)" overflow="visible" color="#667085"><span id="S3.F1.1.pic1.24.24.24.23.1.1" style="width:3.98em;"><span id="S3.F1.1.pic1.24.24.24.23.1.1.2"><span id="S3.F1.1.pic1.24.24.24.23.1.1.2.1">Per-feature</span></span> <span id="S3.F1.1.pic1.24.24.24.23.1.1.3"><span id="S3.F1.1.pic1.24.24.24.23.1.1.3.1">contributions</span></span> </span></foreignObject></g></g><g style="--ltx-stroke-color:#9A88CF;--ltx-fill-color:#EAE3FA;" fill="#EAE3FA" stroke="#9A88CF" stroke-width="0.4pt"><path d="M 597.67 0 C 597.67 7.21 591.83 13.05 584.62 13.05 C 577.42 13.05 571.58 7.21 571.58 0 C 571.58 -7.21 577.42 -13.05 584.62 -13.05 C 591.83 -13.05 597.67 -7.21 597.67 0 Z M 584.62 0"></path></g><g style="--ltx-stroke-color:#000000;--ltx-fill-color:#000000;" stroke-width="0.4pt" fill="#000000" stroke="#000000" transform="matrix(1.0 0.0 0.0 1.0 580.01 -3.46)"><foreignObject style="--ltx-fo-width:0.67em;--ltx-fo-height:0.58em;--ltx-fo-depth:0.08em;" width="9.22" height="9.22" transform="matrix(1 0 0 -1 0 8.07)" overflow="visible"><math xmlns="http://www.w3.org/1998/Math/MathML" display="inline" data-latex="\!+\!"><semantics><mo>+</mo> <annotation encoding="application/x-tex">\!+\!</annotation></semantics></math></foreignObject></g><g style="--ltx-stroke-color:#4FA782;--ltx-fill-color:#CBECDD;" stroke-width="0.4pt" fill="#CBECDD" stroke="#4FA782"><path d="M 653.69 15.75 L 614.77 15.75 C 613.24 15.75 612 14.51 612 12.98 L 612 -12.98 C 612 -14.51 613.24 -15.75 614.77 -15.75 L 653.69 -15.75 C 655.22 -15.75 656.46 -14.51 656.46 -12.98 L 656.46 12.98 C 656.46 14.51 655.22 15.75 653.69 15.75 Z M 612 -15.75"></path></g> <g style="--ltx-stroke-color:#000000;--ltx-fill-color:#000000;" stroke-width="0.4pt" fill="#000000" stroke="#000000" transform="matrix(1.0 0.0 0.0 1.0 617.54 -3.46)"><foreignObject style="--ltx-fo-width:2.41em;--ltx-fo-height:0.75em;--ltx-fo-depth:0.25em;" width="33.39" height="13.84" transform="matrix(1 0 0 -1 0 10.38)" overflow="visible"><math xmlns="http://www.w3.org/1998/Math/MathML" display="inline" data-latex="f_{\theta}(\mathbf{x})"><semantics><mrow><msub><mi>f</mi> <mi>θ</mi></msub> <mo lspace="0em" rspace="0em"></mo><mrow><mo stretchy="false">(</mo><mi>𝐱</mi><mo stretchy="false">)</mo></mrow></mrow> <annotation encoding="application/x-tex">f_{\theta}(\mathbf{x})</annotation></semantics></math></foreignObject></g><g style="--ltx-stroke-color:#4F5B66;--ltx-fill-color:#4F5B66;--ltx-fg-color:#4F5B66;" stroke="#4F5B66" fill="#4F5B66" stroke-width="0.45pt" color="#4F5B66"><path style="fill:none" d="M 11.83 29.53 L 26.83 29.53"></path><g transform="matrix(1.0 0.0 0.0 1.0 24.43 29.53)" stroke-dasharray="none" stroke-dashoffset="0.0pt" stroke-linejoin="miter"><path d="M 6.29 0 L 0.98 2.05 L 2.56 0 L 0.98 -2.05 Z"></path></g></g><g style="--ltx-stroke-color:#4F5B66;--ltx-fill-color:#4F5B66;--ltx-fg-color:#4F5B66;" stroke="#4F5B66" fill="#4F5B66" stroke-width="0.45pt" color="#4F5B66"><path style="fill:none" d="M 10.01 -29.53 L 25.02 -29.53"></path><g transform="matrix(1.0 0.0 0.0 1.0 22.61 -29.53)" stroke-dasharray="none" stroke-dashoffset="0.0pt" stroke-linejoin="miter"><path d="M 6.29 0 L 0.98 2.05 L 2.56 0 L 0.98 -2.05 Z"></path></g></g><g style="--ltx-stroke-color:#4F5B66;--ltx-fill-color:#4F5B66;--ltx-fg-color:#4F5B66;" stroke="#4F5B66" fill="#4F5B66" stroke-width="0.45pt" color="#4F5B66"><path style="fill:none" d="M 132.58 29.53 L 142.42 29.53 L 142.42 13.84 L 156.46 13.84"></path><g transform="matrix(1.0 0.0 0.0 1.0 154.05 13.84)" stroke-dasharray="none" stroke-dashoffset="0.0pt" stroke-linejoin="miter"><path d="M 6.29 0 L 0.98 2.05 L 2.56 0 L 0.98 -2.05 Z"></path></g></g><g style="--ltx-stroke-color:#4F5B66;--ltx-fill-color:#4F5B66;--ltx-fg-color:#4F5B66;" stroke="#4F5B66" fill="#4F5B66" stroke-width="0.45pt" color="#4F5B66"><path style="fill:none" d="M 135.14 -29.53 L 144.98 -29.53 L 144.98 -13.84 L 156.46 -13.84"></path><g transform="matrix(1.0 0.0 0.0 1.0 154.05 -13.84)" stroke-dasharray="none" stroke-dashoffset="0.0pt" stroke-linejoin="miter"><path d="M 6.29 0 L 0.98 2.05 L 2.56 0 L 0.98 -2.05 Z"></path></g></g><g style="--ltx-stroke-color:#4F5B66;--ltx-fill-color:#4F5B66;--ltx-fg-color:#4F5B66;" stroke="#4F5B66" fill="#4F5B66" stroke-width="0.45pt" color="#4F5B66"><path style="fill:none" d="M 303.43 0 L 319.17 0"></path></g><g style="--ltx-stroke-color:#4F5B66;--ltx-fill-color:#4F5B66;--ltx-fg-color:#4F5B66;" stroke="#4F5B66" fill="#4F5B66" stroke-width="0.45pt" color="#4F5B66"><path style="fill:none" d="M 319.17 0 L 319.17 29.53 L 334.18 29.53"></path><g transform="matrix(1.0 0.0 0.0 1.0 331.77 29.53)" stroke-dasharray="none" stroke-dashoffset="0.0pt" stroke-linejoin="miter"><path d="M 6.29 0 L 0.98 2.05 L 2.56 0 L 0.98 -2.05 Z"></path></g></g><g style="--ltx-stroke-color:#4F5B66;--ltx-fill-color:#4F5B66;--ltx-fg-color:#4F5B66;" stroke="#4F5B66" fill="#4F5B66" stroke-width="0.45pt" color="#4F5B66"><path style="fill:none" d="M 319.17 0 L 319.17 -29.53 L 334.18 -29.53"></path><g transform="matrix(1.0 0.0 0.0 1.0 331.77 -29.53)" stroke-dasharray="none" stroke-dashoffset="0.0pt" stroke-linejoin="miter"><path d="M 6.29 0 L 0.98 2.05 L 2.56 0 L 0.98 -2.05 Z"></path></g></g><g style="--ltx-stroke-color:#4F5B66;--ltx-fill-color:#4F5B66;--ltx-fg-color:#4F5B66;" stroke="#4F5B66" fill="#4F5B66" stroke-width="0.45pt" color="#4F5B66"><path style="fill:none" d="M 412.94 29.53 L 422.04 29.53"></path><g transform="matrix(1.0 0.0 0.0 1.0 419.63 29.53)" stroke-dasharray="none" stroke-dashoffset="0.0pt" stroke-linejoin="miter"><path d="M 6.29 0 L 0.98 2.05 L 2.56 0 L 0.98 -2.05 Z"></path></g></g><g style="--ltx-stroke-color:#4F5B66;--ltx-fill-color:#4F5B66;--ltx-fg-color:#4F5B66;" stroke="#4F5B66" fill="#4F5B66" stroke-width="0.45pt" color="#4F5B66"><path style="fill:none" d="M 412.17 -29.53 L 421.27 -29.53"></path><g transform="matrix(1.0 0.0 0.0 1.0 418.87 -29.53)" stroke-dasharray="none" stroke-dashoffset="0.0pt" stroke-linejoin="miter"><path d="M 6.29 0 L 0.98 2.05 L 2.56 0 L 0.98 -2.05 Z"></path></g></g><g style="--ltx-stroke-color:#4F5B66;--ltx-fill-color:#4F5B66;--ltx-fg-color:#4F5B66;" stroke="#4F5B66" fill="#4F5B66" stroke-width="0.45pt" color="#4F5B66"><path style="fill:none" d="M 513.29 29.53 L 522.4 29.53"></path><g transform="matrix(1.0 0.0 0.0 1.0 519.99 29.53)" stroke-dasharray="none" stroke-dashoffset="0.0pt" stroke-linejoin="miter"><path d="M 6.29 0 L 0.98 2.05 L 2.56 0 L 0.98 -2.05 Z"></path></g></g><g style="--ltx-stroke-color:#4F5B66;--ltx-fill-color:#4F5B66;--ltx-fg-color:#4F5B66;" stroke="#4F5B66" fill="#4F5B66" stroke-width="0.45pt" color="#4F5B66"><path style="fill:none" d="M 513.83 -29.53 L 522.93 -29.53"></path><g transform="matrix(1.0 0.0 0.0 1.0 520.53 -29.53)" stroke-dasharray="none" stroke-dashoffset="0.0pt" stroke-linejoin="miter"><path d="M 6.29 0 L 0.98 2.05 L 2.56 0 L 0.98 -2.05 Z"></path></g></g><g style="--ltx-stroke-color:#4F5B66;--ltx-fill-color:#4F5B66;--ltx-fg-color:#4F5B66;" stroke="#4F5B66" fill="#4F5B66" stroke-width="0.45pt" color="#4F5B66"><path style="fill:none" d="M 563.95 29.53 L 583.63 29.53 L 583.63 13.32 L 584.62 13.32"></path></g><g style="--ltx-stroke-color:#4F5B66;--ltx-fill-color:#4F5B66;--ltx-fg-color:#4F5B66;" stroke="#4F5B66" fill="#4F5B66" stroke-width="0.45pt" color="#4F5B66"><path style="fill:none" d="M 565.93 -29.53 L 585.61 -29.53 L 585.61 -13.32 L 584.62 -13.32"></path></g><g style="--ltx-stroke-color:#4F5B66;--ltx-fill-color:#4F5B66;--ltx-fg-color:#4F5B66;" stroke="#4F5B66" fill="#4F5B66" stroke-width="0.45pt" color="#4F5B66"><path style="fill:none" d="M 597.95 0 L 607.05 0"></path><g transform="matrix(1.0 0.0 0.0 1.0 604.64 0)" stroke-dasharray="none" stroke-dashoffset="0.0pt" stroke-linejoin="miter"><path d="M 6.29 0 L 0.98 2.05 L 2.56 0 L 0.98 -2.05 Z"></path></g></g></g></svg>
